<svg width="44" height="44" viewBox="0 0 44 44" fill="none" xmlns="http://www.w3.org/2000/svg">
<circle cx="22" cy="22" r="17" fill="#0B0C17"/>
<path fill-rule="evenodd" clip-rule="evenodd" d="M18.3058 17.0124C18.1699 17.0418 18.0169 17.1289 17.9111 17.2372C17.7485 17.4038 17.6516 17.6465 17.6188 17.97C17.5932 18.222 17.5932 25.7745 17.6188 26.0265C17.6516 26.35 17.7485 26.5927 17.9111 26.7593C18.1956 27.0506 18.623 27.0787 19.0925 26.837C19.2368 26.7627 25.6852 22.9741 25.8551 22.8638C25.9142 22.8254 26.0271 22.7271 26.1058 22.6454C26.4087 22.3313 26.4788 21.9809 26.3097 21.6267C26.2385 21.4776 26.0192 21.2393 25.8551 21.1327C25.6852 21.0224 19.2368 17.2338 19.0925 17.1595C19.0213 17.1228 18.9072 17.0744 18.839 17.0518C18.6972 17.0048 18.4315 16.9852 18.3058 17.0124Z" fill="white"/>
<rect x="0.5" y="0.5" width="43" height="43" rx="21.5" stroke="#0B0C17"/>
</svg>
