<svg width="481" height="543" viewBox="0 0 481 543" fill="none" xmlns="http://www.w3.org/2000/svg">
<path d="M0.608 532.4C0.608 530.779 1.168 529.408 2.288 528.288C3.408 527.157 4.77867 526.592 6.4 526.592C8.02133 526.592 9.392 527.157 10.512 528.288C11.6427 529.408 12.208 530.779 12.208 532.4C12.208 534.011 11.6427 535.381 10.512 536.512C9.392 537.643 8.02133 538.208 6.4 538.208C4.77867 538.208 3.408 537.643 2.288 536.512C1.168 535.371 0.608 534 0.608 532.4ZM10.72 532.4C10.72 531.163 10.304 530.128 9.472 529.296C8.66133 528.453 7.63733 528.032 6.4 528.032C5.17333 528.032 4.144 528.453 3.312 529.296C2.49067 530.139 2.08 531.173 2.08 532.4C2.08 533.616 2.49067 534.651 3.312 535.504C4.144 536.336 5.17333 536.752 6.4 536.752C7.63733 536.752 8.66133 536.336 9.472 535.504C10.304 534.651 10.72 533.616 10.72 532.4ZM22.3169 526.432V527.776C20.9195 527.659 20.2209 528.267 20.2209 529.6V530H22.3169V531.344H20.2209V538H18.8289V531.344H15.8529V538H14.4609V531.344H13.1809V530H14.4609V529.76C14.4609 528.672 14.7649 527.856 15.3729 527.312C15.9809 526.757 16.8449 526.517 17.9649 526.592V527.936C16.5569 527.819 15.8529 528.427 15.8529 529.76V530H18.8289V529.6C18.8289 528.512 19.1275 527.696 19.7249 527.152C20.3329 526.597 21.1969 526.357 22.3169 526.432ZM24.4904 532.16C24.4904 532.672 25.0184 533.072 26.0744 533.36C26.469 533.445 26.7997 533.536 27.0664 533.632C27.3437 533.717 27.6424 533.851 27.9624 534.032C28.293 534.213 28.5437 534.453 28.7144 534.752C28.885 535.051 28.9704 535.403 28.9704 535.808C28.9704 536.533 28.6877 537.115 28.1224 537.552C27.557 537.989 26.8424 538.208 25.9784 538.208C25.2104 538.208 24.5437 538.043 23.9784 537.712C23.4237 537.371 23.029 536.912 22.7944 536.336L23.9944 535.648C24.1224 536.032 24.3624 536.336 24.7144 536.56C25.0664 536.784 25.4877 536.896 25.9784 536.896C26.4584 536.896 26.8424 536.805 27.1304 536.624C27.4184 536.443 27.5624 536.171 27.5624 535.808C27.5624 535.264 27.0344 534.869 25.9784 534.624C25.6264 534.528 25.3597 534.453 25.1784 534.4C24.997 534.347 24.7464 534.251 24.4264 534.112C24.117 533.973 23.8824 533.829 23.7224 533.68C23.5624 533.52 23.413 533.312 23.2744 533.056C23.1464 532.789 23.0824 532.496 23.0824 532.176C23.0824 531.483 23.349 530.912 23.8824 530.464C24.4264 530.016 25.1037 529.792 25.9144 529.792C26.565 529.792 27.141 529.941 27.6424 530.24C28.1544 530.528 28.5384 530.933 28.7944 531.456L27.6264 532.112C27.3384 531.429 26.7677 531.088 25.9144 531.088C25.509 531.088 25.1677 531.184 24.8904 531.376C24.6237 531.568 24.4904 531.829 24.4904 532.16ZM34.5244 529.792C35.463 529.792 36.215 530.091 36.7804 530.688C37.3457 531.275 37.6284 532.075 37.6284 533.088V538H36.2364V533.168C36.2364 532.528 36.0604 532.027 35.7084 531.664C35.3564 531.301 34.871 531.12 34.2524 531.12C33.5377 531.12 32.9724 531.344 32.5564 531.792C32.1404 532.229 31.9324 532.885 31.9324 533.76V538H30.5404V526.8H31.9324V531.152C32.487 530.245 33.351 529.792 34.5244 529.792ZM46.3236 536.992C45.513 537.803 44.5156 538.208 43.3316 538.208C42.1476 538.208 41.1503 537.803 40.3396 536.992C39.529 536.181 39.1236 535.184 39.1236 534C39.1236 532.816 39.529 531.819 40.3396 531.008C41.1503 530.197 42.1476 529.792 43.3316 529.792C44.5156 529.792 45.513 530.197 46.3236 531.008C47.145 531.829 47.5556 532.827 47.5556 534C47.5556 535.173 47.145 536.171 46.3236 536.992ZM43.3316 536.848C44.1316 536.848 44.8036 536.576 45.3476 536.032C45.8916 535.488 46.1636 534.811 46.1636 534C46.1636 533.189 45.8916 532.512 45.3476 531.968C44.8036 531.424 44.1316 531.152 43.3316 531.152C42.5423 531.152 41.8756 531.424 41.3316 531.968C40.7876 532.512 40.5156 533.189 40.5156 534C40.5156 534.811 40.7876 535.488 41.3316 536.032C41.8756 536.576 42.5423 536.848 43.3316 536.848ZM50.5886 530V531.344C51.0473 530.352 51.8793 529.856 53.0846 529.856V531.312C52.402 531.28 51.8153 531.461 51.3246 531.856C50.834 532.251 50.5886 532.885 50.5886 533.76V538H49.1966V530H50.5886ZM61.6891 534.64H54.9851C55.1238 535.344 55.4491 535.899 55.9611 536.304C56.4731 536.699 57.1131 536.896 57.8811 536.896C58.9371 536.896 59.7051 536.507 60.1851 535.728L61.3691 536.4C60.5798 537.605 59.4065 538.208 57.8491 538.208C56.5905 538.208 55.5558 537.813 54.7451 537.024C53.9558 536.213 53.5611 535.205 53.5611 534C53.5611 532.784 53.9505 531.781 54.7291 530.992C55.5078 530.192 56.5158 529.792 57.7531 529.792C58.9265 529.792 59.8811 530.208 60.6171 531.04C61.3638 531.851 61.7371 532.843 61.7371 534.016C61.7371 534.219 61.7211 534.427 61.6891 534.64ZM57.7531 531.104C57.0171 531.104 56.3985 531.312 55.8971 531.728C55.4065 532.144 55.1025 532.709 54.9851 533.424H60.3291C60.2118 532.688 59.9185 532.117 59.4491 531.712C58.9798 531.307 58.4145 531.104 57.7531 531.104ZM73.9613 531.376V526.8H75.3533V538H73.9613V536.624C73.2786 537.68 72.2706 538.208 70.9373 538.208C69.8066 538.208 68.8519 537.803 68.0733 536.992C67.2839 536.171 66.8893 535.173 66.8893 534C66.8893 532.837 67.2839 531.845 68.0733 531.024C68.8626 530.203 69.8173 529.792 70.9373 529.792C72.2706 529.792 73.2786 530.32 73.9613 531.376ZM71.1133 536.864C71.9239 536.864 72.6013 536.592 73.1453 536.048C73.6893 535.483 73.9613 534.8 73.9613 534C73.9613 533.189 73.6893 532.512 73.1453 531.968C72.6013 531.413 71.9239 531.136 71.1133 531.136C70.3133 531.136 69.6413 531.413 69.0973 531.968C68.5533 532.512 68.2812 533.189 68.2812 534C68.2812 534.8 68.5533 535.483 69.0973 536.048C69.6413 536.592 70.3133 536.864 71.1133 536.864ZM85.1423 534.64H78.4383C78.5769 535.344 78.9023 535.899 79.4143 536.304C79.9263 536.699 80.5663 536.896 81.3343 536.896C82.3903 536.896 83.1583 536.507 83.6383 535.728L84.8223 536.4C84.0329 537.605 82.8596 538.208 81.3023 538.208C80.0436 538.208 79.0089 537.813 78.1983 537.024C77.4089 536.213 77.0143 535.205 77.0143 534C77.0143 532.784 77.4036 531.781 78.1823 530.992C78.9609 530.192 79.9689 529.792 81.2063 529.792C82.3796 529.792 83.3343 530.208 84.0703 531.04C84.8169 531.851 85.1903 532.843 85.1903 534.016C85.1903 534.219 85.1743 534.427 85.1423 534.64ZM81.2063 531.104C80.4703 531.104 79.8516 531.312 79.3503 531.728C78.8596 532.144 78.5556 532.709 78.4383 533.424H83.7823C83.6649 532.688 83.3716 532.117 82.9023 531.712C82.4329 531.307 81.8676 531.104 81.2063 531.104ZM89.5659 536.512L92.0779 530H93.5819L90.3819 538H88.7499L85.5499 530H87.0539L89.5659 536.512ZM102.127 534.64H95.4226C95.5613 535.344 95.8866 535.899 96.3986 536.304C96.9106 536.699 97.5506 536.896 98.3186 536.896C99.3746 536.896 100.143 536.507 100.623 535.728L101.807 536.4C101.017 537.605 99.844 538.208 98.2866 538.208C97.028 538.208 95.9933 537.813 95.1826 537.024C94.3933 536.213 93.9986 535.205 93.9986 534C93.9986 532.784 94.388 531.781 95.1666 530.992C95.9453 530.192 96.9533 529.792 98.1906 529.792C99.364 529.792 100.319 530.208 101.055 531.04C101.801 531.851 102.175 532.843 102.175 534.016C102.175 534.219 102.159 534.427 102.127 534.64ZM98.1906 531.104C97.4546 531.104 96.836 531.312 96.3346 531.728C95.844 532.144 95.54 532.709 95.4226 533.424H100.767C100.649 532.688 100.356 532.117 99.8866 531.712C99.4173 531.307 98.852 531.104 98.1906 531.104ZM105.167 538H103.775V526.32H105.167V538ZM114.042 536.992C113.232 537.803 112.234 538.208 111.05 538.208C109.866 538.208 108.869 537.803 108.058 536.992C107.248 536.181 106.842 535.184 106.842 534C106.842 532.816 107.248 531.819 108.058 531.008C108.869 530.197 109.866 529.792 111.05 529.792C112.234 529.792 113.232 530.197 114.042 531.008C114.864 531.829 115.274 532.827 115.274 534C115.274 535.173 114.864 536.171 114.042 536.992ZM111.05 536.848C111.85 536.848 112.522 536.576 113.066 536.032C113.61 535.488 113.882 534.811 113.882 534C113.882 533.189 113.61 532.512 113.066 531.968C112.522 531.424 111.85 531.152 111.05 531.152C110.261 531.152 109.594 531.424 109.05 531.968C108.506 532.512 108.234 533.189 108.234 534C108.234 534.811 108.506 535.488 109.05 536.032C109.594 536.576 110.261 536.848 111.05 536.848ZM121.331 529.792C122.451 529.792 123.406 530.203 124.195 531.024C124.985 531.845 125.379 532.837 125.379 534C125.379 535.173 124.985 536.171 124.195 536.992C123.417 537.803 122.462 538.208 121.331 538.208C120.009 538.208 119.001 537.68 118.307 536.624V541.2H116.915V530H118.307V531.376C119.001 530.32 120.009 529.792 121.331 529.792ZM121.155 536.864C121.955 536.864 122.627 536.592 123.171 536.048C123.715 535.483 123.987 534.8 123.987 534C123.987 533.189 123.715 532.512 123.171 531.968C122.627 531.413 121.955 531.136 121.155 531.136C120.345 531.136 119.667 531.413 119.123 531.968C118.579 532.512 118.307 533.189 118.307 534C118.307 534.8 118.579 535.483 119.123 536.048C119.667 536.592 120.345 536.864 121.155 536.864ZM134.72 534.64H128.016C128.155 535.344 128.48 535.899 128.992 536.304C129.504 536.699 130.144 536.896 130.912 536.896C131.968 536.896 132.736 536.507 133.216 535.728L134.4 536.4C133.611 537.605 132.438 538.208 130.88 538.208C129.622 538.208 128.587 537.813 127.776 537.024C126.987 536.213 126.592 535.205 126.592 534C126.592 532.784 126.982 531.781 127.76 530.992C128.539 530.192 129.547 529.792 130.784 529.792C131.958 529.792 132.912 530.208 133.648 531.04C134.395 531.851 134.768 532.843 134.768 534.016C134.768 534.219 134.752 534.427 134.72 534.64ZM130.784 531.104C130.048 531.104 129.43 531.312 128.928 531.728C128.438 532.144 128.134 532.709 128.016 533.424H133.36C133.243 532.688 132.95 532.117 132.48 531.712C132.011 531.307 131.446 531.104 130.784 531.104ZM137.761 530V531.344C138.219 530.352 139.051 529.856 140.257 529.856V531.312C139.574 531.28 138.987 531.461 138.497 531.856C138.006 532.251 137.761 532.885 137.761 533.76V538H136.368V530H137.761Z" fill="#101923"/>
<path d="M0.608 532.4C0.608 530.779 1.168 529.408 2.288 528.288C3.408 527.157 4.77867 526.592 6.4 526.592C8.02133 526.592 9.392 527.157 10.512 528.288C11.6427 529.408 12.208 530.779 12.208 532.4C12.208 534.011 11.6427 535.381 10.512 536.512C9.392 537.643 8.02133 538.208 6.4 538.208C4.77867 538.208 3.408 537.643 2.288 536.512C1.168 535.371 0.608 534 0.608 532.4ZM10.72 532.4C10.72 531.163 10.304 530.128 9.472 529.296C8.66133 528.453 7.63733 528.032 6.4 528.032C5.17333 528.032 4.144 528.453 3.312 529.296C2.49067 530.139 2.08 531.173 2.08 532.4C2.08 533.616 2.49067 534.651 3.312 535.504C4.144 536.336 5.17333 536.752 6.4 536.752C7.63733 536.752 8.66133 536.336 9.472 535.504C10.304 534.651 10.72 533.616 10.72 532.4ZM22.3169 526.432V527.776C20.9195 527.659 20.2209 528.267 20.2209 529.6V530H22.3169V531.344H20.2209V538H18.8289V531.344H15.8529V538H14.4609V531.344H13.1809V530H14.4609V529.76C14.4609 528.672 14.7649 527.856 15.3729 527.312C15.9809 526.757 16.8449 526.517 17.9649 526.592V527.936C16.5569 527.819 15.8529 528.427 15.8529 529.76V530H18.8289V529.6C18.8289 528.512 19.1275 527.696 19.7249 527.152C20.3329 526.597 21.1969 526.357 22.3169 526.432ZM24.4904 532.16C24.4904 532.672 25.0184 533.072 26.0744 533.36C26.469 533.445 26.7997 533.536 27.0664 533.632C27.3437 533.717 27.6424 533.851 27.9624 534.032C28.293 534.213 28.5437 534.453 28.7144 534.752C28.885 535.051 28.9704 535.403 28.9704 535.808C28.9704 536.533 28.6877 537.115 28.1224 537.552C27.557 537.989 26.8424 538.208 25.9784 538.208C25.2104 538.208 24.5437 538.043 23.9784 537.712C23.4237 537.371 23.029 536.912 22.7944 536.336L23.9944 535.648C24.1224 536.032 24.3624 536.336 24.7144 536.56C25.0664 536.784 25.4877 536.896 25.9784 536.896C26.4584 536.896 26.8424 536.805 27.1304 536.624C27.4184 536.443 27.5624 536.171 27.5624 535.808C27.5624 535.264 27.0344 534.869 25.9784 534.624C25.6264 534.528 25.3597 534.453 25.1784 534.4C24.997 534.347 24.7464 534.251 24.4264 534.112C24.117 533.973 23.8824 533.829 23.7224 533.68C23.5624 533.52 23.413 533.312 23.2744 533.056C23.1464 532.789 23.0824 532.496 23.0824 532.176C23.0824 531.483 23.349 530.912 23.8824 530.464C24.4264 530.016 25.1037 529.792 25.9144 529.792C26.565 529.792 27.141 529.941 27.6424 530.24C28.1544 530.528 28.5384 530.933 28.7944 531.456L27.6264 532.112C27.3384 531.429 26.7677 531.088 25.9144 531.088C25.509 531.088 25.1677 531.184 24.8904 531.376C24.6237 531.568 24.4904 531.829 24.4904 532.16ZM34.5244 529.792C35.463 529.792 36.215 530.091 36.7804 530.688C37.3457 531.275 37.6284 532.075 37.6284 533.088V538H36.2364V533.168C36.2364 532.528 36.0604 532.027 35.7084 531.664C35.3564 531.301 34.871 531.12 34.2524 531.12C33.5377 531.12 32.9724 531.344 32.5564 531.792C32.1404 532.229 31.9324 532.885 31.9324 533.76V538H30.5404V526.8H31.9324V531.152C32.487 530.245 33.351 529.792 34.5244 529.792ZM46.3236 536.992C45.513 537.803 44.5156 538.208 43.3316 538.208C42.1476 538.208 41.1503 537.803 40.3396 536.992C39.529 536.181 39.1236 535.184 39.1236 534C39.1236 532.816 39.529 531.819 40.3396 531.008C41.1503 530.197 42.1476 529.792 43.3316 529.792C44.5156 529.792 45.513 530.197 46.3236 531.008C47.145 531.829 47.5556 532.827 47.5556 534C47.5556 535.173 47.145 536.171 46.3236 536.992ZM43.3316 536.848C44.1316 536.848 44.8036 536.576 45.3476 536.032C45.8916 535.488 46.1636 534.811 46.1636 534C46.1636 533.189 45.8916 532.512 45.3476 531.968C44.8036 531.424 44.1316 531.152 43.3316 531.152C42.5423 531.152 41.8756 531.424 41.3316 531.968C40.7876 532.512 40.5156 533.189 40.5156 534C40.5156 534.811 40.7876 535.488 41.3316 536.032C41.8756 536.576 42.5423 536.848 43.3316 536.848ZM50.5886 530V531.344C51.0473 530.352 51.8793 529.856 53.0846 529.856V531.312C52.402 531.28 51.8153 531.461 51.3246 531.856C50.834 532.251 50.5886 532.885 50.5886 533.76V538H49.1966V530H50.5886ZM61.6891 534.64H54.9851C55.1238 535.344 55.4491 535.899 55.9611 536.304C56.4731 536.699 57.1131 536.896 57.8811 536.896C58.9371 536.896 59.7051 536.507 60.1851 535.728L61.3691 536.4C60.5798 537.605 59.4065 538.208 57.8491 538.208C56.5905 538.208 55.5558 537.813 54.7451 537.024C53.9558 536.213 53.5611 535.205 53.5611 534C53.5611 532.784 53.9505 531.781 54.7291 530.992C55.5078 530.192 56.5158 529.792 57.7531 529.792C58.9265 529.792 59.8811 530.208 60.6171 531.04C61.3638 531.851 61.7371 532.843 61.7371 534.016C61.7371 534.219 61.7211 534.427 61.6891 534.64ZM57.7531 531.104C57.0171 531.104 56.3985 531.312 55.8971 531.728C55.4065 532.144 55.1025 532.709 54.9851 533.424H60.3291C60.2118 532.688 59.9185 532.117 59.4491 531.712C58.9798 531.307 58.4145 531.104 57.7531 531.104ZM73.9613 531.376V526.8H75.3533V538H73.9613V536.624C73.2786 537.68 72.2706 538.208 70.9373 538.208C69.8066 538.208 68.8519 537.803 68.0733 536.992C67.2839 536.171 66.8893 535.173 66.8893 534C66.8893 532.837 67.2839 531.845 68.0733 531.024C68.8626 530.203 69.8173 529.792 70.9373 529.792C72.2706 529.792 73.2786 530.32 73.9613 531.376ZM71.1133 536.864C71.9239 536.864 72.6013 536.592 73.1453 536.048C73.6893 535.483 73.9613 534.8 73.9613 534C73.9613 533.189 73.6893 532.512 73.1453 531.968C72.6013 531.413 71.9239 531.136 71.1133 531.136C70.3133 531.136 69.6413 531.413 69.0973 531.968C68.5533 532.512 68.2812 533.189 68.2812 534C68.2812 534.8 68.5533 535.483 69.0973 536.048C69.6413 536.592 70.3133 536.864 71.1133 536.864ZM85.1423 534.64H78.4383C78.5769 535.344 78.9023 535.899 79.4143 536.304C79.9263 536.699 80.5663 536.896 81.3343 536.896C82.3903 536.896 83.1583 536.507 83.6383 535.728L84.8223 536.4C84.0329 537.605 82.8596 538.208 81.3023 538.208C80.0436 538.208 79.0089 537.813 78.1983 537.024C77.4089 536.213 77.0143 535.205 77.0143 534C77.0143 532.784 77.4036 531.781 78.1823 530.992C78.9609 530.192 79.9689 529.792 81.2063 529.792C82.3796 529.792 83.3343 530.208 84.0703 531.04C84.8169 531.851 85.1903 532.843 85.1903 534.016C85.1903 534.219 85.1743 534.427 85.1423 534.64ZM81.2063 531.104C80.4703 531.104 79.8516 531.312 79.3503 531.728C78.8596 532.144 78.5556 532.709 78.4383 533.424H83.7823C83.6649 532.688 83.3716 532.117 82.9023 531.712C82.4329 531.307 81.8676 531.104 81.2063 531.104ZM89.5659 536.512L92.0779 530H93.5819L90.3819 538H88.7499L85.5499 530H87.0539L89.5659 536.512ZM102.127 534.64H95.4226C95.5613 535.344 95.8866 535.899 96.3986 536.304C96.9106 536.699 97.5506 536.896 98.3186 536.896C99.3746 536.896 100.143 536.507 100.623 535.728L101.807 536.4C101.017 537.605 99.844 538.208 98.2866 538.208C97.028 538.208 95.9933 537.813 95.1826 537.024C94.3933 536.213 93.9986 535.205 93.9986 534C93.9986 532.784 94.388 531.781 95.1666 530.992C95.9453 530.192 96.9533 529.792 98.1906 529.792C99.364 529.792 100.319 530.208 101.055 531.04C101.801 531.851 102.175 532.843 102.175 534.016C102.175 534.219 102.159 534.427 102.127 534.64ZM98.1906 531.104C97.4546 531.104 96.836 531.312 96.3346 531.728C95.844 532.144 95.54 532.709 95.4226 533.424H100.767C100.649 532.688 100.356 532.117 99.8866 531.712C99.4173 531.307 98.852 531.104 98.1906 531.104ZM105.167 538H103.775V526.32H105.167V538ZM114.042 536.992C113.232 537.803 112.234 538.208 111.05 538.208C109.866 538.208 108.869 537.803 108.058 536.992C107.248 536.181 106.842 535.184 106.842 534C106.842 532.816 107.248 531.819 108.058 531.008C108.869 530.197 109.866 529.792 111.05 529.792C112.234 529.792 113.232 530.197 114.042 531.008C114.864 531.829 115.274 532.827 115.274 534C115.274 535.173 114.864 536.171 114.042 536.992ZM111.05 536.848C111.85 536.848 112.522 536.576 113.066 536.032C113.61 535.488 113.882 534.811 113.882 534C113.882 533.189 113.61 532.512 113.066 531.968C112.522 531.424 111.85 531.152 111.05 531.152C110.261 531.152 109.594 531.424 109.05 531.968C108.506 532.512 108.234 533.189 108.234 534C108.234 534.811 108.506 535.488 109.05 536.032C109.594 536.576 110.261 536.848 111.05 536.848ZM121.331 529.792C122.451 529.792 123.406 530.203 124.195 531.024C124.985 531.845 125.379 532.837 125.379 534C125.379 535.173 124.985 536.171 124.195 536.992C123.417 537.803 122.462 538.208 121.331 538.208C120.009 538.208 119.001 537.68 118.307 536.624V541.2H116.915V530H118.307V531.376C119.001 530.32 120.009 529.792 121.331 529.792ZM121.155 536.864C121.955 536.864 122.627 536.592 123.171 536.048C123.715 535.483 123.987 534.8 123.987 534C123.987 533.189 123.715 532.512 123.171 531.968C122.627 531.413 121.955 531.136 121.155 531.136C120.345 531.136 119.667 531.413 119.123 531.968C118.579 532.512 118.307 533.189 118.307 534C118.307 534.8 118.579 535.483 119.123 536.048C119.667 536.592 120.345 536.864 121.155 536.864ZM134.72 534.64H128.016C128.155 535.344 128.48 535.899 128.992 536.304C129.504 536.699 130.144 536.896 130.912 536.896C131.968 536.896 132.736 536.507 133.216 535.728L134.4 536.4C133.611 537.605 132.438 538.208 130.88 538.208C129.622 538.208 128.587 537.813 127.776 537.024C126.987 536.213 126.592 535.205 126.592 534C126.592 532.784 126.982 531.781 127.76 530.992C128.539 530.192 129.547 529.792 130.784 529.792C131.958 529.792 132.912 530.208 133.648 531.04C134.395 531.851 134.768 532.843 134.768 534.016C134.768 534.219 134.752 534.427 134.72 534.64ZM130.784 531.104C130.048 531.104 129.43 531.312 128.928 531.728C128.438 532.144 128.134 532.709 128.016 533.424H133.36C133.243 532.688 132.95 532.117 132.48 531.712C132.011 531.307 131.446 531.104 130.784 531.104ZM137.761 530V531.344C138.219 530.352 139.051 529.856 140.257 529.856V531.312C139.574 531.28 138.987 531.461 138.497 531.856C138.006 532.251 137.761 532.885 137.761 533.76V538H136.368V530H137.761Z" fill="black" fill-opacity="0.2"/>
<path d="M238.688 526.8V536.592H243.52V538H237.2V526.8H238.688ZM251.308 536.992C250.497 537.803 249.5 538.208 248.316 538.208C247.132 538.208 246.135 537.803 245.324 536.992C244.513 536.181 244.108 535.184 244.108 534C244.108 532.816 244.513 531.819 245.324 531.008C246.135 530.197 247.132 529.792 248.316 529.792C249.5 529.792 250.497 530.197 251.308 531.008C252.129 531.829 252.54 532.827 252.54 534C252.54 535.173 252.129 536.171 251.308 536.992ZM248.316 536.848C249.116 536.848 249.788 536.576 250.332 536.032C250.876 535.488 251.148 534.811 251.148 534C251.148 533.189 250.876 532.512 250.332 531.968C249.788 531.424 249.116 531.152 248.316 531.152C247.527 531.152 246.86 531.424 246.316 531.968C245.772 532.512 245.5 533.189 245.5 534C245.5 534.811 245.772 535.488 246.316 536.032C246.86 536.576 247.527 536.848 248.316 536.848ZM257.941 538.208C256.736 538.208 255.733 537.808 254.933 537.008C254.133 536.197 253.733 535.195 253.733 534C253.733 532.805 254.133 531.808 254.933 531.008C255.733 530.197 256.736 529.792 257.941 529.792C258.73 529.792 259.44 529.984 260.069 530.368C260.698 530.741 261.168 531.248 261.477 531.888L260.309 532.56C260.106 532.133 259.792 531.792 259.365 531.536C258.949 531.28 258.474 531.152 257.941 531.152C257.141 531.152 256.469 531.424 255.925 531.968C255.392 532.523 255.125 533.2 255.125 534C255.125 534.789 255.392 535.461 255.925 536.016C256.469 536.56 257.141 536.832 257.941 536.832C258.474 536.832 258.954 536.709 259.381 536.464C259.808 536.208 260.133 535.867 260.357 535.44L261.541 536.128C261.189 536.768 260.693 537.275 260.053 537.648C259.413 538.021 258.709 538.208 257.941 538.208ZM269.43 531.376V530H270.822V538H269.43V536.624C268.747 537.68 267.739 538.208 266.406 538.208C265.275 538.208 264.321 537.803 263.542 536.992C262.753 536.171 262.358 535.173 262.358 534C262.358 532.837 262.753 531.845 263.542 531.024C264.331 530.203 265.286 529.792 266.406 529.792C267.739 529.792 268.747 530.32 269.43 531.376ZM266.582 536.864C267.393 536.864 268.07 536.592 268.614 536.048C269.158 535.483 269.43 534.8 269.43 534C269.43 533.189 269.158 532.512 268.614 531.968C268.07 531.413 267.393 531.136 266.582 531.136C265.782 531.136 265.11 531.413 264.566 531.968C264.022 532.512 263.75 533.189 263.75 534C263.75 534.8 264.022 535.483 264.566 536.048C265.11 536.592 265.782 536.864 266.582 536.864ZM274.323 538H272.931V526.32H274.323V538ZM280.591 526.8H284.959C286.473 526.8 287.737 527.344 288.751 528.432C289.764 529.509 290.271 530.832 290.271 532.4C290.271 533.957 289.764 535.285 288.751 536.384C287.737 537.461 286.473 538 284.959 538H280.591V526.8ZM282.079 536.592H284.959C286.1 536.592 287.033 536.192 287.759 535.392C288.484 534.581 288.847 533.584 288.847 532.4C288.847 531.216 288.484 530.219 287.759 529.408C287.033 528.608 286.1 528.208 284.959 528.208H282.079V536.592ZM299.611 534.64H292.907C293.046 535.344 293.371 535.899 293.883 536.304C294.395 536.699 295.035 536.896 295.803 536.896C296.859 536.896 297.627 536.507 298.107 535.728L299.291 536.4C298.502 537.605 297.328 538.208 295.771 538.208C294.512 538.208 293.478 537.813 292.667 537.024C291.878 536.213 291.483 535.205 291.483 534C291.483 532.784 291.872 531.781 292.651 530.992C293.43 530.192 294.438 529.792 295.675 529.792C296.848 529.792 297.803 530.208 298.539 531.04C299.286 531.851 299.659 532.843 299.659 534.016C299.659 534.219 299.643 534.427 299.611 534.64ZM295.675 531.104C294.939 531.104 294.32 531.312 293.819 531.728C293.328 532.144 293.024 532.709 292.907 533.424H298.251C298.134 532.688 297.84 532.117 297.371 531.712C296.902 531.307 296.336 531.104 295.675 531.104ZM304.035 536.512L306.547 530H308.051L304.851 538H303.219L300.019 530H301.523L304.035 536.512ZM316.595 534.64H309.891C310.03 535.344 310.355 535.899 310.867 536.304C311.379 536.699 312.019 536.896 312.787 536.896C313.843 536.896 314.611 536.507 315.091 535.728L316.275 536.4C315.486 537.605 314.313 538.208 312.755 538.208C311.497 538.208 310.462 537.813 309.651 537.024C308.862 536.213 308.467 535.205 308.467 534C308.467 532.784 308.857 531.781 309.635 530.992C310.414 530.192 311.422 529.792 312.659 529.792C313.833 529.792 314.787 530.208 315.523 531.04C316.27 531.851 316.643 532.843 316.643 534.016C316.643 534.219 316.627 534.427 316.595 534.64ZM312.659 531.104C311.923 531.104 311.305 531.312 310.803 531.728C310.313 532.144 310.009 532.709 309.891 533.424H315.235C315.118 532.688 314.825 532.117 314.355 531.712C313.886 531.307 313.321 531.104 312.659 531.104ZM319.636 538H318.243V526.32H319.636V538ZM328.511 536.992C327.7 537.803 326.703 538.208 325.519 538.208C324.335 538.208 323.338 537.803 322.527 536.992C321.716 536.181 321.311 535.184 321.311 534C321.311 532.816 321.716 531.819 322.527 531.008C323.338 530.197 324.335 529.792 325.519 529.792C326.703 529.792 327.7 530.197 328.511 531.008C329.332 531.829 329.743 532.827 329.743 534C329.743 535.173 329.332 536.171 328.511 536.992ZM325.519 536.848C326.319 536.848 326.991 536.576 327.535 536.032C328.079 535.488 328.351 534.811 328.351 534C328.351 533.189 328.079 532.512 327.535 531.968C326.991 531.424 326.319 531.152 325.519 531.152C324.73 531.152 324.063 531.424 323.519 531.968C322.975 532.512 322.703 533.189 322.703 534C322.703 534.811 322.975 535.488 323.519 536.032C324.063 536.576 324.73 536.848 325.519 536.848ZM335.8 529.792C336.92 529.792 337.875 530.203 338.664 531.024C339.453 531.845 339.848 532.837 339.848 534C339.848 535.173 339.453 536.171 338.664 536.992C337.885 537.803 336.931 538.208 335.8 538.208C334.477 538.208 333.469 537.68 332.776 536.624V541.2H331.384V530H332.776V531.376C333.469 530.32 334.477 529.792 335.8 529.792ZM335.624 536.864C336.424 536.864 337.096 536.592 337.64 536.048C338.184 535.483 338.456 534.8 338.456 534C338.456 533.189 338.184 532.512 337.64 531.968C337.096 531.413 336.424 531.136 335.624 531.136C334.813 531.136 334.136 531.413 333.592 531.968C333.048 532.512 332.776 533.189 332.776 534C332.776 534.8 333.048 535.483 333.592 536.048C334.136 536.592 334.813 536.864 335.624 536.864ZM349.189 534.64H342.485C342.624 535.344 342.949 535.899 343.461 536.304C343.973 536.699 344.613 536.896 345.381 536.896C346.437 536.896 347.205 536.507 347.685 535.728L348.869 536.4C348.08 537.605 346.906 538.208 345.349 538.208C344.09 538.208 343.056 537.813 342.245 537.024C341.456 536.213 341.061 535.205 341.061 534C341.061 532.784 341.45 531.781 342.229 530.992C343.008 530.192 344.016 529.792 345.253 529.792C346.426 529.792 347.381 530.208 348.117 531.04C348.864 531.851 349.237 532.843 349.237 534.016C349.237 534.219 349.221 534.427 349.189 534.64ZM345.253 531.104C344.517 531.104 343.898 531.312 343.397 531.728C342.906 532.144 342.602 532.709 342.485 533.424H347.829C347.712 532.688 347.418 532.117 346.949 531.712C346.48 531.307 345.914 531.104 345.253 531.104ZM352.229 530V531.344C352.688 530.352 353.52 529.856 354.725 529.856V531.312C354.043 531.28 353.456 531.461 352.965 531.856C352.475 532.251 352.229 532.885 352.229 533.76V538H350.837V530H352.229Z" fill="#101923"/>
<path d="M238.688 526.8V536.592H243.52V538H237.2V526.8H238.688ZM251.308 536.992C250.497 537.803 249.5 538.208 248.316 538.208C247.132 538.208 246.135 537.803 245.324 536.992C244.513 536.181 244.108 535.184 244.108 534C244.108 532.816 244.513 531.819 245.324 531.008C246.135 530.197 247.132 529.792 248.316 529.792C249.5 529.792 250.497 530.197 251.308 531.008C252.129 531.829 252.54 532.827 252.54 534C252.54 535.173 252.129 536.171 251.308 536.992ZM248.316 536.848C249.116 536.848 249.788 536.576 250.332 536.032C250.876 535.488 251.148 534.811 251.148 534C251.148 533.189 250.876 532.512 250.332 531.968C249.788 531.424 249.116 531.152 248.316 531.152C247.527 531.152 246.86 531.424 246.316 531.968C245.772 532.512 245.5 533.189 245.5 534C245.5 534.811 245.772 535.488 246.316 536.032C246.86 536.576 247.527 536.848 248.316 536.848ZM257.941 538.208C256.736 538.208 255.733 537.808 254.933 537.008C254.133 536.197 253.733 535.195 253.733 534C253.733 532.805 254.133 531.808 254.933 531.008C255.733 530.197 256.736 529.792 257.941 529.792C258.73 529.792 259.44 529.984 260.069 530.368C260.698 530.741 261.168 531.248 261.477 531.888L260.309 532.56C260.106 532.133 259.792 531.792 259.365 531.536C258.949 531.28 258.474 531.152 257.941 531.152C257.141 531.152 256.469 531.424 255.925 531.968C255.392 532.523 255.125 533.2 255.125 534C255.125 534.789 255.392 535.461 255.925 536.016C256.469 536.56 257.141 536.832 257.941 536.832C258.474 536.832 258.954 536.709 259.381 536.464C259.808 536.208 260.133 535.867 260.357 535.44L261.541 536.128C261.189 536.768 260.693 537.275 260.053 537.648C259.413 538.021 258.709 538.208 257.941 538.208ZM269.43 531.376V530H270.822V538H269.43V536.624C268.747 537.68 267.739 538.208 266.406 538.208C265.275 538.208 264.321 537.803 263.542 536.992C262.753 536.171 262.358 535.173 262.358 534C262.358 532.837 262.753 531.845 263.542 531.024C264.331 530.203 265.286 529.792 266.406 529.792C267.739 529.792 268.747 530.32 269.43 531.376ZM266.582 536.864C267.393 536.864 268.07 536.592 268.614 536.048C269.158 535.483 269.43 534.8 269.43 534C269.43 533.189 269.158 532.512 268.614 531.968C268.07 531.413 267.393 531.136 266.582 531.136C265.782 531.136 265.11 531.413 264.566 531.968C264.022 532.512 263.75 533.189 263.75 534C263.75 534.8 264.022 535.483 264.566 536.048C265.11 536.592 265.782 536.864 266.582 536.864ZM274.323 538H272.931V526.32H274.323V538ZM280.591 526.8H284.959C286.473 526.8 287.737 527.344 288.751 528.432C289.764 529.509 290.271 530.832 290.271 532.4C290.271 533.957 289.764 535.285 288.751 536.384C287.737 537.461 286.473 538 284.959 538H280.591V526.8ZM282.079 536.592H284.959C286.1 536.592 287.033 536.192 287.759 535.392C288.484 534.581 288.847 533.584 288.847 532.4C288.847 531.216 288.484 530.219 287.759 529.408C287.033 528.608 286.1 528.208 284.959 528.208H282.079V536.592ZM299.611 534.64H292.907C293.046 535.344 293.371 535.899 293.883 536.304C294.395 536.699 295.035 536.896 295.803 536.896C296.859 536.896 297.627 536.507 298.107 535.728L299.291 536.4C298.502 537.605 297.328 538.208 295.771 538.208C294.512 538.208 293.478 537.813 292.667 537.024C291.878 536.213 291.483 535.205 291.483 534C291.483 532.784 291.872 531.781 292.651 530.992C293.43 530.192 294.438 529.792 295.675 529.792C296.848 529.792 297.803 530.208 298.539 531.04C299.286 531.851 299.659 532.843 299.659 534.016C299.659 534.219 299.643 534.427 299.611 534.64ZM295.675 531.104C294.939 531.104 294.32 531.312 293.819 531.728C293.328 532.144 293.024 532.709 292.907 533.424H298.251C298.134 532.688 297.84 532.117 297.371 531.712C296.902 531.307 296.336 531.104 295.675 531.104ZM304.035 536.512L306.547 530H308.051L304.851 538H303.219L300.019 530H301.523L304.035 536.512ZM316.595 534.64H309.891C310.03 535.344 310.355 535.899 310.867 536.304C311.379 536.699 312.019 536.896 312.787 536.896C313.843 536.896 314.611 536.507 315.091 535.728L316.275 536.4C315.486 537.605 314.313 538.208 312.755 538.208C311.497 538.208 310.462 537.813 309.651 537.024C308.862 536.213 308.467 535.205 308.467 534C308.467 532.784 308.857 531.781 309.635 530.992C310.414 530.192 311.422 529.792 312.659 529.792C313.833 529.792 314.787 530.208 315.523 531.04C316.27 531.851 316.643 532.843 316.643 534.016C316.643 534.219 316.627 534.427 316.595 534.64ZM312.659 531.104C311.923 531.104 311.305 531.312 310.803 531.728C310.313 532.144 310.009 532.709 309.891 533.424H315.235C315.118 532.688 314.825 532.117 314.355 531.712C313.886 531.307 313.321 531.104 312.659 531.104ZM319.636 538H318.243V526.32H319.636V538ZM328.511 536.992C327.7 537.803 326.703 538.208 325.519 538.208C324.335 538.208 323.338 537.803 322.527 536.992C321.716 536.181 321.311 535.184 321.311 534C321.311 532.816 321.716 531.819 322.527 531.008C323.338 530.197 324.335 529.792 325.519 529.792C326.703 529.792 327.7 530.197 328.511 531.008C329.332 531.829 329.743 532.827 329.743 534C329.743 535.173 329.332 536.171 328.511 536.992ZM325.519 536.848C326.319 536.848 326.991 536.576 327.535 536.032C328.079 535.488 328.351 534.811 328.351 534C328.351 533.189 328.079 532.512 327.535 531.968C326.991 531.424 326.319 531.152 325.519 531.152C324.73 531.152 324.063 531.424 323.519 531.968C322.975 532.512 322.703 533.189 322.703 534C322.703 534.811 322.975 535.488 323.519 536.032C324.063 536.576 324.73 536.848 325.519 536.848ZM335.8 529.792C336.92 529.792 337.875 530.203 338.664 531.024C339.453 531.845 339.848 532.837 339.848 534C339.848 535.173 339.453 536.171 338.664 536.992C337.885 537.803 336.931 538.208 335.8 538.208C334.477 538.208 333.469 537.68 332.776 536.624V541.2H331.384V530H332.776V531.376C333.469 530.32 334.477 529.792 335.8 529.792ZM335.624 536.864C336.424 536.864 337.096 536.592 337.64 536.048C338.184 535.483 338.456 534.8 338.456 534C338.456 533.189 338.184 532.512 337.64 531.968C337.096 531.413 336.424 531.136 335.624 531.136C334.813 531.136 334.136 531.413 333.592 531.968C333.048 532.512 332.776 533.189 332.776 534C332.776 534.8 333.048 535.483 333.592 536.048C334.136 536.592 334.813 536.864 335.624 536.864ZM349.189 534.64H342.485C342.624 535.344 342.949 535.899 343.461 536.304C343.973 536.699 344.613 536.896 345.381 536.896C346.437 536.896 347.205 536.507 347.685 535.728L348.869 536.4C348.08 537.605 346.906 538.208 345.349 538.208C344.09 538.208 343.056 537.813 342.245 537.024C341.456 536.213 341.061 535.205 341.061 534C341.061 532.784 341.45 531.781 342.229 530.992C343.008 530.192 344.016 529.792 345.253 529.792C346.426 529.792 347.381 530.208 348.117 531.04C348.864 531.851 349.237 532.843 349.237 534.016C349.237 534.219 349.221 534.427 349.189 534.64ZM345.253 531.104C344.517 531.104 343.898 531.312 343.397 531.728C342.906 532.144 342.602 532.709 342.485 533.424H347.829C347.712 532.688 347.418 532.117 346.949 531.712C346.48 531.307 345.914 531.104 345.253 531.104ZM352.229 530V531.344C352.688 530.352 353.52 529.856 354.725 529.856V531.312C354.043 531.28 353.456 531.461 352.965 531.856C352.475 532.251 352.229 532.885 352.229 533.76V538H350.837V530H352.229Z" fill="black" fill-opacity="0.2"/>
<path fill-rule="evenodd" clip-rule="evenodd" d="M236 190C236 187.791 237.791 186 240 186H436C438.209 186 440 187.791 440 190V235H236V190ZM236 243V292H438V300H236V500C236 502.209 237.791 504 240 504H436C438.209 504 440 502.209 440 500V243H236Z" fill="url(#paint0_linear_1_2)"/>
<rect y="455" width="204" height="49" rx="4" fill="#0040E3"/>
<path d="M0 307C0 304.791 1.79086 303 4 303H200C202.209 303 204 304.791 204 307V443C204 445.209 202.209 447 200 447H4C1.79086 447 0 445.209 0 443V307Z" fill="#5E04B9"/>
<path d="M0 307C0 304.791 1.79086 303 4 303H200C202.209 303 204 304.791 204 307V443C204 445.209 202.209 447 200 447H4C1.79086 447 0 445.209 0 443V307Z" fill="#9142DF"/>
<path d="M0 307C0 304.791 1.79086 303 4 303H200C202.209 303 204 304.791 204 307V443C204 445.209 202.209 447 200 447H4C1.79086 447 0 445.209 0 443V307Z" fill="#009EE3"/>
<path d="M475.354 32.6465C475.158 32.4512 474.842 32.4512 474.646 32.6465L471.464 35.8284C471.269 36.0237 471.269 36.3403 471.464 36.5355C471.66 36.7308 471.976 36.7308 472.172 36.5355L475 33.7071L477.828 36.5355C478.024 36.7308 478.34 36.7308 478.536 36.5355C478.731 36.3403 478.731 36.0237 478.536 35.8284L475.354 32.6465ZM475.5 504L475.5 33L474.5 33L474.5 504L475.5 504Z" fill="#CED0FF"/>
<path d="M253.05 214V204.2H254.352V214H253.05ZM259.814 206.818C260.636 206.818 261.294 207.079 261.788 207.602C262.283 208.115 262.53 208.815 262.53 209.702V214H261.312V209.772C261.312 209.212 261.158 208.773 260.85 208.456C260.542 208.139 260.118 207.98 259.576 207.98C258.951 207.98 258.456 208.176 258.092 208.568C257.728 208.951 257.546 209.525 257.546 210.29V214H256.328V207H257.546V208.008C258.032 207.215 258.788 206.818 259.814 206.818ZM265.281 208.89C265.281 209.338 265.743 209.688 266.667 209.94C267.012 210.015 267.301 210.094 267.535 210.178C267.777 210.253 268.039 210.369 268.319 210.528C268.608 210.687 268.827 210.897 268.977 211.158C269.126 211.419 269.201 211.727 269.201 212.082C269.201 212.717 268.953 213.225 268.459 213.608C267.964 213.991 267.339 214.182 266.583 214.182C265.911 214.182 265.327 214.037 264.833 213.748C264.347 213.449 264.002 213.048 263.797 212.544L264.847 211.942C264.959 212.278 265.169 212.544 265.477 212.74C265.785 212.936 266.153 213.034 266.583 213.034C267.003 213.034 267.339 212.955 267.591 212.796C267.843 212.637 267.969 212.399 267.969 212.082C267.969 211.606 267.507 211.261 266.583 211.046C266.275 210.962 266.041 210.897 265.883 210.85C265.724 210.803 265.505 210.719 265.225 210.598C264.954 210.477 264.749 210.351 264.609 210.22C264.469 210.08 264.338 209.898 264.217 209.674C264.105 209.441 264.049 209.184 264.049 208.904C264.049 208.297 264.282 207.798 264.749 207.406C265.225 207.014 265.817 206.818 266.527 206.818C267.096 206.818 267.6 206.949 268.039 207.21C268.487 207.462 268.823 207.817 269.047 208.274L268.025 208.848C267.773 208.251 267.273 207.952 266.527 207.952C266.172 207.952 265.873 208.036 265.631 208.204C265.397 208.372 265.281 208.601 265.281 208.89ZM275.404 210.71V207H276.622V214H275.404V212.992C274.919 213.785 274.163 214.182 273.136 214.182C272.315 214.182 271.657 213.925 271.162 213.412C270.668 212.889 270.42 212.185 270.42 211.298V207H271.638V211.228C271.638 211.788 271.792 212.227 272.1 212.544C272.408 212.861 272.833 213.02 273.374 213.02C274 213.02 274.494 212.829 274.858 212.446C275.222 212.054 275.404 211.475 275.404 210.71ZM279.695 207V208.176C280.096 207.308 280.824 206.874 281.879 206.874V208.148C281.281 208.12 280.768 208.279 280.339 208.624C279.909 208.969 279.695 209.525 279.695 210.29V214H278.477V207H279.695ZM288.484 208.204V207H289.702V214H288.484V212.796C287.886 213.72 287.004 214.182 285.838 214.182C284.848 214.182 284.013 213.827 283.332 213.118C282.641 212.399 282.296 211.527 282.296 210.5C282.296 209.483 282.641 208.615 283.332 207.896C284.022 207.177 284.858 206.818 285.838 206.818C287.004 206.818 287.886 207.28 288.484 208.204ZM285.992 213.006C286.701 213.006 287.294 212.768 287.77 212.292C288.246 211.797 288.484 211.2 288.484 210.5C288.484 209.791 288.246 209.198 287.77 208.722C287.294 208.237 286.701 207.994 285.992 207.994C285.292 207.994 284.704 208.237 284.228 208.722C283.752 209.198 283.514 209.791 283.514 210.5C283.514 211.2 283.752 211.797 284.228 212.292C284.704 212.768 285.292 213.006 285.992 213.006ZM295.033 206.818C295.854 206.818 296.512 207.079 297.007 207.602C297.502 208.115 297.749 208.815 297.749 209.702V214H296.531V209.772C296.531 209.212 296.377 208.773 296.069 208.456C295.761 208.139 295.336 207.98 294.795 207.98C294.17 207.98 293.675 208.176 293.311 208.568C292.947 208.951 292.765 209.525 292.765 210.29V214H291.547V207H292.765V208.008C293.25 207.215 294.006 206.818 295.033 206.818ZM302.739 214.182C301.685 214.182 300.807 213.832 300.107 213.132C299.407 212.423 299.057 211.545 299.057 210.5C299.057 209.455 299.407 208.582 300.107 207.882C300.807 207.173 301.685 206.818 302.739 206.818C303.43 206.818 304.051 206.986 304.601 207.322C305.152 207.649 305.563 208.092 305.833 208.652L304.811 209.24C304.634 208.867 304.359 208.568 303.985 208.344C303.621 208.12 303.206 208.008 302.739 208.008C302.039 208.008 301.451 208.246 300.975 208.722C300.509 209.207 300.275 209.8 300.275 210.5C300.275 211.191 300.509 211.779 300.975 212.264C301.451 212.74 302.039 212.978 302.739 212.978C303.206 212.978 303.626 212.871 303.999 212.656C304.373 212.432 304.657 212.133 304.853 211.76L305.889 212.362C305.581 212.922 305.147 213.365 304.587 213.692C304.027 214.019 303.411 214.182 302.739 214.182ZM313.716 211.06H307.85C307.972 211.676 308.256 212.161 308.704 212.516C309.152 212.861 309.712 213.034 310.384 213.034C311.308 213.034 311.98 212.693 312.4 212.012L313.436 212.6C312.746 213.655 311.719 214.182 310.356 214.182C309.255 214.182 308.35 213.837 307.64 213.146C306.95 212.437 306.604 211.555 306.604 210.5C306.604 209.436 306.945 208.559 307.626 207.868C308.308 207.168 309.19 206.818 310.272 206.818C311.299 206.818 312.134 207.182 312.778 207.91C313.432 208.619 313.758 209.487 313.758 210.514C313.758 210.691 313.744 210.873 313.716 211.06ZM310.272 207.966C309.628 207.966 309.087 208.148 308.648 208.512C308.219 208.876 307.953 209.371 307.85 209.996H312.526C312.424 209.352 312.167 208.853 311.756 208.498C311.346 208.143 310.851 207.966 310.272 207.966Z" fill="white"/>
<path d="M253.05 214V204.2H254.352V214H253.05ZM259.814 206.818C260.636 206.818 261.294 207.079 261.788 207.602C262.283 208.115 262.53 208.815 262.53 209.702V214H261.312V209.772C261.312 209.212 261.158 208.773 260.85 208.456C260.542 208.139 260.118 207.98 259.576 207.98C258.951 207.98 258.456 208.176 258.092 208.568C257.728 208.951 257.546 209.525 257.546 210.29V214H256.328V207H257.546V208.008C258.032 207.215 258.788 206.818 259.814 206.818ZM265.281 208.89C265.281 209.338 265.743 209.688 266.667 209.94C267.012 210.015 267.301 210.094 267.535 210.178C267.777 210.253 268.039 210.369 268.319 210.528C268.608 210.687 268.827 210.897 268.977 211.158C269.126 211.419 269.201 211.727 269.201 212.082C269.201 212.717 268.953 213.225 268.459 213.608C267.964 213.991 267.339 214.182 266.583 214.182C265.911 214.182 265.327 214.037 264.833 213.748C264.347 213.449 264.002 213.048 263.797 212.544L264.847 211.942C264.959 212.278 265.169 212.544 265.477 212.74C265.785 212.936 266.153 213.034 266.583 213.034C267.003 213.034 267.339 212.955 267.591 212.796C267.843 212.637 267.969 212.399 267.969 212.082C267.969 211.606 267.507 211.261 266.583 211.046C266.275 210.962 266.041 210.897 265.883 210.85C265.724 210.803 265.505 210.719 265.225 210.598C264.954 210.477 264.749 210.351 264.609 210.22C264.469 210.08 264.338 209.898 264.217 209.674C264.105 209.441 264.049 209.184 264.049 208.904C264.049 208.297 264.282 207.798 264.749 207.406C265.225 207.014 265.817 206.818 266.527 206.818C267.096 206.818 267.6 206.949 268.039 207.21C268.487 207.462 268.823 207.817 269.047 208.274L268.025 208.848C267.773 208.251 267.273 207.952 266.527 207.952C266.172 207.952 265.873 208.036 265.631 208.204C265.397 208.372 265.281 208.601 265.281 208.89ZM275.404 210.71V207H276.622V214H275.404V212.992C274.919 213.785 274.163 214.182 273.136 214.182C272.315 214.182 271.657 213.925 271.162 213.412C270.668 212.889 270.42 212.185 270.42 211.298V207H271.638V211.228C271.638 211.788 271.792 212.227 272.1 212.544C272.408 212.861 272.833 213.02 273.374 213.02C274 213.02 274.494 212.829 274.858 212.446C275.222 212.054 275.404 211.475 275.404 210.71ZM279.695 207V208.176C280.096 207.308 280.824 206.874 281.879 206.874V208.148C281.281 208.12 280.768 208.279 280.339 208.624C279.909 208.969 279.695 209.525 279.695 210.29V214H278.477V207H279.695ZM288.484 208.204V207H289.702V214H288.484V212.796C287.886 213.72 287.004 214.182 285.838 214.182C284.848 214.182 284.013 213.827 283.332 213.118C282.641 212.399 282.296 211.527 282.296 210.5C282.296 209.483 282.641 208.615 283.332 207.896C284.022 207.177 284.858 206.818 285.838 206.818C287.004 206.818 287.886 207.28 288.484 208.204ZM285.992 213.006C286.701 213.006 287.294 212.768 287.77 212.292C288.246 211.797 288.484 211.2 288.484 210.5C288.484 209.791 288.246 209.198 287.77 208.722C287.294 208.237 286.701 207.994 285.992 207.994C285.292 207.994 284.704 208.237 284.228 208.722C283.752 209.198 283.514 209.791 283.514 210.5C283.514 211.2 283.752 211.797 284.228 212.292C284.704 212.768 285.292 213.006 285.992 213.006ZM295.033 206.818C295.854 206.818 296.512 207.079 297.007 207.602C297.502 208.115 297.749 208.815 297.749 209.702V214H296.531V209.772C296.531 209.212 296.377 208.773 296.069 208.456C295.761 208.139 295.336 207.98 294.795 207.98C294.17 207.98 293.675 208.176 293.311 208.568C292.947 208.951 292.765 209.525 292.765 210.29V214H291.547V207H292.765V208.008C293.25 207.215 294.006 206.818 295.033 206.818ZM302.739 214.182C301.685 214.182 300.807 213.832 300.107 213.132C299.407 212.423 299.057 211.545 299.057 210.5C299.057 209.455 299.407 208.582 300.107 207.882C300.807 207.173 301.685 206.818 302.739 206.818C303.43 206.818 304.051 206.986 304.601 207.322C305.152 207.649 305.563 208.092 305.833 208.652L304.811 209.24C304.634 208.867 304.359 208.568 303.985 208.344C303.621 208.12 303.206 208.008 302.739 208.008C302.039 208.008 301.451 208.246 300.975 208.722C300.509 209.207 300.275 209.8 300.275 210.5C300.275 211.191 300.509 211.779 300.975 212.264C301.451 212.74 302.039 212.978 302.739 212.978C303.206 212.978 303.626 212.871 303.999 212.656C304.373 212.432 304.657 212.133 304.853 211.76L305.889 212.362C305.581 212.922 305.147 213.365 304.587 213.692C304.027 214.019 303.411 214.182 302.739 214.182ZM313.716 211.06H307.85C307.972 211.676 308.256 212.161 308.704 212.516C309.152 212.861 309.712 213.034 310.384 213.034C311.308 213.034 311.98 212.693 312.4 212.012L313.436 212.6C312.746 213.655 311.719 214.182 310.356 214.182C309.255 214.182 308.35 213.837 307.64 213.146C306.95 212.437 306.604 211.555 306.604 210.5C306.604 209.436 306.945 208.559 307.626 207.868C308.308 207.168 309.19 206.818 310.272 206.818C311.299 206.818 312.134 207.182 312.778 207.91C313.432 208.619 313.758 209.487 313.758 210.514C313.758 210.691 313.744 210.873 313.716 211.06ZM310.272 207.966C309.628 207.966 309.087 208.148 308.648 208.512C308.219 208.876 307.953 209.371 307.85 209.996H312.526C312.424 209.352 312.167 208.853 311.756 208.498C311.346 208.143 310.851 207.966 310.272 207.966Z" fill="white"/>
<path d="M252.252 261.2H259.322V262.432H256.424V271H255.136V262.432H252.252V261.2ZM265.009 265.204V264H266.227V271H265.009V269.796C264.412 270.72 263.53 271.182 262.363 271.182C261.374 271.182 260.538 270.827 259.857 270.118C259.166 269.399 258.821 268.527 258.821 267.5C258.821 266.483 259.166 265.615 259.857 264.896C260.548 264.177 261.383 263.818 262.363 263.818C263.53 263.818 264.412 264.28 265.009 265.204ZM262.517 270.006C263.226 270.006 263.819 269.768 264.295 269.292C264.771 268.797 265.009 268.2 265.009 267.5C265.009 266.791 264.771 266.198 264.295 265.722C263.819 265.237 263.226 264.994 262.517 264.994C261.817 264.994 261.229 265.237 260.753 265.722C260.277 266.198 260.039 266.791 260.039 267.5C260.039 268.2 260.277 268.797 260.753 269.292C261.229 269.768 261.817 270.006 262.517 270.006ZM271.474 267.388L274.148 271H272.72L270.76 268.354L268.786 271H267.358L270.046 267.402L267.512 264H268.954L270.76 266.436L272.566 264H273.994L271.474 267.388Z" fill="white"/>
<path d="M252.252 261.2H259.322V262.432H256.424V271H255.136V262.432H252.252V261.2ZM265.009 265.204V264H266.227V271H265.009V269.796C264.412 270.72 263.53 271.182 262.363 271.182C261.374 271.182 260.538 270.827 259.857 270.118C259.166 269.399 258.821 268.527 258.821 267.5C258.821 266.483 259.166 265.615 259.857 264.896C260.548 264.177 261.383 263.818 262.363 263.818C263.53 263.818 264.412 264.28 265.009 265.204ZM262.517 270.006C263.226 270.006 263.819 269.768 264.295 269.292C264.771 268.797 265.009 268.2 265.009 267.5C265.009 266.791 264.771 266.198 264.295 265.722C263.819 265.237 263.226 264.994 262.517 264.994C261.817 264.994 261.229 265.237 260.753 265.722C260.277 266.198 260.039 266.791 260.039 267.5C260.039 268.2 260.277 268.797 260.753 269.292C261.229 269.768 261.817 270.006 262.517 270.006ZM271.474 267.388L274.148 271H272.72L270.76 268.354L268.786 271H267.358L270.046 267.402L267.512 264H268.954L270.76 266.436L272.566 264H273.994L271.474 267.388Z" fill="white"/>
<path d="M256.214 328.182C255.299 328.182 254.515 327.972 253.862 327.552C253.218 327.123 252.765 326.53 252.504 325.774L253.624 325.13C253.997 326.315 254.87 326.908 256.242 326.908C256.905 326.908 257.413 326.773 257.768 326.502C258.132 326.231 258.314 325.863 258.314 325.396C258.314 324.939 258.137 324.589 257.782 324.346C257.465 324.131 256.872 323.884 256.004 323.604L255.066 323.296C254.861 323.212 254.59 323.091 254.254 322.932C253.927 322.764 253.689 322.596 253.54 322.428C253.129 321.98 252.924 321.434 252.924 320.79C252.924 319.931 253.223 319.259 253.82 318.774C254.417 318.27 255.145 318.018 256.004 318.018C256.769 318.018 257.441 318.209 258.02 318.592C258.599 318.975 259.033 319.497 259.322 320.16L258.23 320.79C257.81 319.782 257.068 319.278 256.004 319.278C255.472 319.278 255.043 319.409 254.716 319.67C254.389 319.931 254.226 320.286 254.226 320.734C254.226 321.163 254.38 321.49 254.688 321.714C255.005 321.947 255.537 322.181 256.284 322.414L256.858 322.596C257.175 322.717 257.348 322.783 257.376 322.792C257.675 322.904 258.001 323.058 258.356 323.254C258.608 323.394 258.86 323.609 259.112 323.898C259.439 324.225 259.602 324.715 259.602 325.368C259.602 326.227 259.289 326.913 258.664 327.426C258.029 327.93 257.213 328.182 256.214 328.182ZM266.978 322.204V321H268.196V328H266.978V326.796C266.38 327.72 265.498 328.182 264.332 328.182C263.342 328.182 262.507 327.827 261.826 327.118C261.135 326.399 260.79 325.527 260.79 324.5C260.79 323.483 261.135 322.615 261.826 321.896C262.516 321.177 263.352 320.818 264.332 320.818C265.498 320.818 266.38 321.28 266.978 322.204ZM264.486 327.006C265.195 327.006 265.788 326.768 266.264 326.292C266.74 325.797 266.978 325.2 266.978 324.5C266.978 323.791 266.74 323.198 266.264 322.722C265.788 322.237 265.195 321.994 264.486 321.994C263.786 321.994 263.198 322.237 262.722 322.722C262.246 323.198 262.008 323.791 262.008 324.5C262.008 325.2 262.246 325.797 262.722 326.292C263.198 326.768 263.786 327.006 264.486 327.006ZM271.259 328H270.041V317.78H271.259V328ZM278.913 322.204V321H280.131V328H278.913V326.796C278.316 327.72 277.434 328.182 276.267 328.182C275.278 328.182 274.443 327.827 273.761 327.118C273.071 326.399 272.725 325.527 272.725 324.5C272.725 323.483 273.071 322.615 273.761 321.896C274.452 321.177 275.287 320.818 276.267 320.818C277.434 320.818 278.316 321.28 278.913 322.204ZM276.421 327.006C277.131 327.006 277.723 326.768 278.199 326.292C278.675 325.797 278.913 325.2 278.913 324.5C278.913 323.791 278.675 323.198 278.199 322.722C277.723 322.237 277.131 321.994 276.421 321.994C275.721 321.994 275.133 322.237 274.657 322.722C274.181 323.198 273.943 323.791 273.943 324.5C273.943 325.2 274.181 325.797 274.657 326.292C275.133 326.768 275.721 327.006 276.421 327.006ZM283.195 321V322.176C283.596 321.308 284.324 320.874 285.379 320.874V322.148C284.781 322.12 284.268 322.279 283.839 322.624C283.409 322.969 283.195 323.525 283.195 324.29V328H281.977V321H283.195ZM289.591 326.488L291.607 321H292.909L290.053 328.434C289.745 329.227 289.32 329.829 288.779 330.24C288.247 330.66 287.636 330.847 286.945 330.8V329.666C287.804 329.731 288.434 329.255 288.835 328.238L288.961 327.972L285.909 321H287.211L289.591 326.488Z" fill="white"/>
<path d="M256.214 328.182C255.299 328.182 254.515 327.972 253.862 327.552C253.218 327.123 252.765 326.53 252.504 325.774L253.624 325.13C253.997 326.315 254.87 326.908 256.242 326.908C256.905 326.908 257.413 326.773 257.768 326.502C258.132 326.231 258.314 325.863 258.314 325.396C258.314 324.939 258.137 324.589 257.782 324.346C257.465 324.131 256.872 323.884 256.004 323.604L255.066 323.296C254.861 323.212 254.59 323.091 254.254 322.932C253.927 322.764 253.689 322.596 253.54 322.428C253.129 321.98 252.924 321.434 252.924 320.79C252.924 319.931 253.223 319.259 253.82 318.774C254.417 318.27 255.145 318.018 256.004 318.018C256.769 318.018 257.441 318.209 258.02 318.592C258.599 318.975 259.033 319.497 259.322 320.16L258.23 320.79C257.81 319.782 257.068 319.278 256.004 319.278C255.472 319.278 255.043 319.409 254.716 319.67C254.389 319.931 254.226 320.286 254.226 320.734C254.226 321.163 254.38 321.49 254.688 321.714C255.005 321.947 255.537 322.181 256.284 322.414L256.858 322.596C257.175 322.717 257.348 322.783 257.376 322.792C257.675 322.904 258.001 323.058 258.356 323.254C258.608 323.394 258.86 323.609 259.112 323.898C259.439 324.225 259.602 324.715 259.602 325.368C259.602 326.227 259.289 326.913 258.664 327.426C258.029 327.93 257.213 328.182 256.214 328.182ZM266.978 322.204V321H268.196V328H266.978V326.796C266.38 327.72 265.498 328.182 264.332 328.182C263.342 328.182 262.507 327.827 261.826 327.118C261.135 326.399 260.79 325.527 260.79 324.5C260.79 323.483 261.135 322.615 261.826 321.896C262.516 321.177 263.352 320.818 264.332 320.818C265.498 320.818 266.38 321.28 266.978 322.204ZM264.486 327.006C265.195 327.006 265.788 326.768 266.264 326.292C266.74 325.797 266.978 325.2 266.978 324.5C266.978 323.791 266.74 323.198 266.264 322.722C265.788 322.237 265.195 321.994 264.486 321.994C263.786 321.994 263.198 322.237 262.722 322.722C262.246 323.198 262.008 323.791 262.008 324.5C262.008 325.2 262.246 325.797 262.722 326.292C263.198 326.768 263.786 327.006 264.486 327.006ZM271.259 328H270.041V317.78H271.259V328ZM278.913 322.204V321H280.131V328H278.913V326.796C278.316 327.72 277.434 328.182 276.267 328.182C275.278 328.182 274.443 327.827 273.761 327.118C273.071 326.399 272.725 325.527 272.725 324.5C272.725 323.483 273.071 322.615 273.761 321.896C274.452 321.177 275.287 320.818 276.267 320.818C277.434 320.818 278.316 321.28 278.913 322.204ZM276.421 327.006C277.131 327.006 277.723 326.768 278.199 326.292C278.675 325.797 278.913 325.2 278.913 324.5C278.913 323.791 278.675 323.198 278.199 322.722C277.723 322.237 277.131 321.994 276.421 321.994C275.721 321.994 275.133 322.237 274.657 322.722C274.181 323.198 273.943 323.791 273.943 324.5C273.943 325.2 274.181 325.797 274.657 326.292C275.133 326.768 275.721 327.006 276.421 327.006ZM283.195 321V322.176C283.596 321.308 284.324 320.874 285.379 320.874V322.148C284.781 322.12 284.268 322.279 283.839 322.624C283.409 322.969 283.195 323.525 283.195 324.29V328H281.977V321H283.195ZM289.591 326.488L291.607 321H292.909L290.053 328.434C289.745 329.227 289.32 329.829 288.779 330.24C288.247 330.66 287.636 330.847 286.945 330.8V329.666C287.804 329.731 288.434 329.255 288.835 328.238L288.961 327.972L285.909 321H287.211L289.591 326.488Z" fill="white"/>
<path d="M24.89 483H23.504L22.706 480.802H18.296L17.498 483H16.112L19.766 473.2H21.236L24.89 483ZM20.494 474.754L18.744 479.584H22.258L20.494 474.754ZM31.566 477.204V476H32.77V482.706C32.77 483.742 32.42 484.545 31.72 485.114C31.0107 485.693 30.1707 485.982 29.2 485.982C28.416 485.982 27.7394 485.833 27.17 485.534C26.6007 485.245 26.1714 484.825 25.882 484.274L26.946 483.672C27.3287 484.456 28.0894 484.848 29.228 484.848C29.956 484.848 30.5254 484.657 30.936 484.274C31.356 483.891 31.566 483.369 31.566 482.706V481.712C30.95 482.645 30.0727 483.112 28.934 483.112C27.926 483.112 27.0814 482.757 26.4 482.048C25.7094 481.329 25.364 480.466 25.364 479.458C25.364 478.45 25.7094 477.591 26.4 476.882C27.0814 476.173 27.926 475.818 28.934 475.818C30.082 475.818 30.9594 476.28 31.566 477.204ZM31.566 479.458C31.566 478.758 31.328 478.17 30.852 477.694C30.376 477.218 29.7834 476.98 29.074 476.98C28.3647 476.98 27.772 477.218 27.296 477.694C26.82 478.17 26.582 478.758 26.582 479.458C26.582 480.167 26.82 480.76 27.296 481.236C27.772 481.712 28.3647 481.95 29.074 481.95C29.7834 481.95 30.376 481.712 30.852 481.236C31.328 480.76 31.566 480.167 31.566 479.458ZM41.3354 480.06H35.4694C35.5907 480.676 35.8754 481.161 36.3234 481.516C36.7714 481.861 37.3314 482.034 38.0034 482.034C38.9274 482.034 39.5994 481.693 40.0194 481.012L41.0554 481.6C40.3647 482.655 39.3381 483.182 37.9754 483.182C36.8741 483.182 35.9687 482.837 35.2594 482.146C34.5687 481.437 34.2234 480.555 34.2234 479.5C34.2234 478.436 34.5641 477.559 35.2454 476.868C35.9267 476.168 36.8087 475.818 37.8914 475.818C38.9181 475.818 39.7534 476.182 40.3974 476.91C41.0507 477.619 41.3774 478.487 41.3774 479.514C41.3774 479.691 41.3634 479.873 41.3354 480.06ZM37.8914 476.966C37.2474 476.966 36.7061 477.148 36.2674 477.512C35.8381 477.876 35.5721 478.371 35.4694 478.996H40.1454C40.0427 478.352 39.7861 477.853 39.3754 477.498C38.9647 477.143 38.4701 476.966 37.8914 476.966ZM46.2635 475.818C47.0848 475.818 47.7428 476.079 48.2375 476.602C48.7322 477.115 48.9795 477.815 48.9795 478.702V483H47.7615V478.772C47.7615 478.212 47.6075 477.773 47.2995 477.456C46.9915 477.139 46.5668 476.98 46.0255 476.98C45.4002 476.98 44.9055 477.176 44.5415 477.568C44.1775 477.951 43.9955 478.525 43.9955 479.29V483H42.7775V476H43.9955V477.008C44.4808 476.215 45.2368 475.818 46.2635 475.818ZM53.9699 483.182C52.9152 483.182 52.0379 482.832 51.3379 482.132C50.6379 481.423 50.2879 480.545 50.2879 479.5C50.2879 478.455 50.6379 477.582 51.3379 476.882C52.0379 476.173 52.9152 475.818 53.9699 475.818C54.6605 475.818 55.2812 475.986 55.8319 476.322C56.3825 476.649 56.7932 477.092 57.0639 477.652L56.0419 478.24C55.8645 477.867 55.5892 477.568 55.2159 477.344C54.8519 477.12 54.4365 477.008 53.9699 477.008C53.2699 477.008 52.6819 477.246 52.2059 477.722C51.7392 478.207 51.5059 478.8 51.5059 479.5C51.5059 480.191 51.7392 480.779 52.2059 481.264C52.6819 481.74 53.2699 481.978 53.9699 481.978C54.4365 481.978 54.8565 481.871 55.2299 481.656C55.6032 481.432 55.8879 481.133 56.0839 480.76L57.1199 481.362C56.8119 481.922 56.3779 482.365 55.8179 482.692C55.2579 483.019 54.6419 483.182 53.9699 483.182ZM61.2061 481.488L63.2221 476H64.5241L61.6681 483.434C61.3601 484.227 60.9354 484.829 60.3941 485.24C59.8621 485.66 59.2508 485.847 58.5601 485.8V484.666C59.4188 484.731 60.0488 484.255 60.4501 483.238L60.5761 482.972L57.5241 476H58.8261L61.2061 481.488ZM66.3392 476.14H65.4572L65.2892 473.2H66.5072L66.3392 476.14ZM68.5873 477.89C68.5873 478.338 69.0493 478.688 69.9733 478.94C70.3186 479.015 70.6079 479.094 70.8413 479.178C71.0839 479.253 71.3453 479.369 71.6253 479.528C71.9146 479.687 72.1339 479.897 72.2833 480.158C72.4326 480.419 72.5073 480.727 72.5073 481.082C72.5073 481.717 72.2599 482.225 71.7653 482.608C71.2706 482.991 70.6453 483.182 69.8893 483.182C69.2173 483.182 68.6339 483.037 68.1393 482.748C67.6539 482.449 67.3086 482.048 67.1033 481.544L68.1533 480.942C68.2653 481.278 68.4753 481.544 68.7833 481.74C69.0913 481.936 69.4599 482.034 69.8893 482.034C70.3093 482.034 70.6453 481.955 70.8973 481.796C71.1493 481.637 71.2753 481.399 71.2753 481.082C71.2753 480.606 70.8133 480.261 69.8893 480.046C69.5813 479.962 69.3479 479.897 69.1893 479.85C69.0306 479.803 68.8113 479.719 68.5313 479.598C68.2606 479.477 68.0553 479.351 67.9153 479.22C67.7753 479.08 67.6446 478.898 67.5233 478.674C67.4113 478.441 67.3553 478.184 67.3553 477.904C67.3553 477.297 67.5886 476.798 68.0553 476.406C68.5313 476.014 69.1239 475.818 69.8333 475.818C70.4026 475.818 70.9066 475.949 71.3453 476.21C71.7933 476.462 72.1293 476.817 72.3533 477.274L71.3313 477.848C71.0793 477.251 70.5799 476.952 69.8333 476.952C69.4786 476.952 69.1799 477.036 68.9373 477.204C68.7039 477.372 68.5873 477.601 68.5873 477.89ZM81.0474 473.018V474.194C79.8154 474.091 79.1994 474.623 79.1994 475.79V476H81.0474V477.176H79.1994V483H77.9814V477.176H76.8614V476H77.9814V475.79C77.9814 474.838 78.2474 474.124 78.7794 473.648C79.3114 473.163 80.0674 472.953 81.0474 473.018ZM88.312 480.06H82.446C82.5673 480.676 82.852 481.161 83.3 481.516C83.748 481.861 84.308 482.034 84.98 482.034C85.904 482.034 86.576 481.693 86.996 481.012L88.032 481.6C87.3413 482.655 86.3146 483.182 84.952 483.182C83.8506 483.182 82.9453 482.837 82.236 482.146C81.5453 481.437 81.2 480.555 81.2 479.5C81.2 478.436 81.5406 477.559 82.222 476.868C82.9033 476.168 83.7853 475.818 84.868 475.818C85.8946 475.818 86.73 476.182 87.374 476.91C88.0273 477.619 88.354 478.487 88.354 479.514C88.354 479.691 88.34 479.873 88.312 480.06ZM84.868 476.966C84.224 476.966 83.6826 477.148 83.244 477.512C82.8146 477.876 82.5486 478.371 82.446 478.996H87.122C87.0193 478.352 86.7626 477.853 86.352 477.498C85.9413 477.143 85.4466 476.966 84.868 476.966ZM96.4604 480.06H90.5944C90.7157 480.676 91.0004 481.161 91.4484 481.516C91.8964 481.861 92.4564 482.034 93.1284 482.034C94.0524 482.034 94.7244 481.693 95.1444 481.012L96.1804 481.6C95.4897 482.655 94.4631 483.182 93.1004 483.182C91.9991 483.182 91.0937 482.837 90.3844 482.146C89.6937 481.437 89.3484 480.555 89.3484 479.5C89.3484 478.436 89.6891 477.559 90.3704 476.868C91.0517 476.168 91.9337 475.818 93.0164 475.818C94.0431 475.818 94.8784 476.182 95.5224 476.91C96.1757 477.619 96.5024 478.487 96.5024 479.514C96.5024 479.691 96.4884 479.873 96.4604 480.06ZM93.0164 476.966C92.3724 476.966 91.8311 477.148 91.3924 477.512C90.9631 477.876 90.6971 478.371 90.5944 478.996H95.2704C95.1677 478.352 94.9111 477.853 94.5004 477.498C94.0897 477.143 93.5951 476.966 93.0164 476.966Z" fill="white"/>
<path d="M24.89 483H23.504L22.706 480.802H18.296L17.498 483H16.112L19.766 473.2H21.236L24.89 483ZM20.494 474.754L18.744 479.584H22.258L20.494 474.754ZM31.566 477.204V476H32.77V482.706C32.77 483.742 32.42 484.545 31.72 485.114C31.0107 485.693 30.1707 485.982 29.2 485.982C28.416 485.982 27.7394 485.833 27.17 485.534C26.6007 485.245 26.1714 484.825 25.882 484.274L26.946 483.672C27.3287 484.456 28.0894 484.848 29.228 484.848C29.956 484.848 30.5254 484.657 30.936 484.274C31.356 483.891 31.566 483.369 31.566 482.706V481.712C30.95 482.645 30.0727 483.112 28.934 483.112C27.926 483.112 27.0814 482.757 26.4 482.048C25.7094 481.329 25.364 480.466 25.364 479.458C25.364 478.45 25.7094 477.591 26.4 476.882C27.0814 476.173 27.926 475.818 28.934 475.818C30.082 475.818 30.9594 476.28 31.566 477.204ZM31.566 479.458C31.566 478.758 31.328 478.17 30.852 477.694C30.376 477.218 29.7834 476.98 29.074 476.98C28.3647 476.98 27.772 477.218 27.296 477.694C26.82 478.17 26.582 478.758 26.582 479.458C26.582 480.167 26.82 480.76 27.296 481.236C27.772 481.712 28.3647 481.95 29.074 481.95C29.7834 481.95 30.376 481.712 30.852 481.236C31.328 480.76 31.566 480.167 31.566 479.458ZM41.3354 480.06H35.4694C35.5907 480.676 35.8754 481.161 36.3234 481.516C36.7714 481.861 37.3314 482.034 38.0034 482.034C38.9274 482.034 39.5994 481.693 40.0194 481.012L41.0554 481.6C40.3647 482.655 39.3381 483.182 37.9754 483.182C36.8741 483.182 35.9687 482.837 35.2594 482.146C34.5687 481.437 34.2234 480.555 34.2234 479.5C34.2234 478.436 34.5641 477.559 35.2454 476.868C35.9267 476.168 36.8087 475.818 37.8914 475.818C38.9181 475.818 39.7534 476.182 40.3974 476.91C41.0507 477.619 41.3774 478.487 41.3774 479.514C41.3774 479.691 41.3634 479.873 41.3354 480.06ZM37.8914 476.966C37.2474 476.966 36.7061 477.148 36.2674 477.512C35.8381 477.876 35.5721 478.371 35.4694 478.996H40.1454C40.0427 478.352 39.7861 477.853 39.3754 477.498C38.9647 477.143 38.4701 476.966 37.8914 476.966ZM46.2635 475.818C47.0848 475.818 47.7428 476.079 48.2375 476.602C48.7322 477.115 48.9795 477.815 48.9795 478.702V483H47.7615V478.772C47.7615 478.212 47.6075 477.773 47.2995 477.456C46.9915 477.139 46.5668 476.98 46.0255 476.98C45.4002 476.98 44.9055 477.176 44.5415 477.568C44.1775 477.951 43.9955 478.525 43.9955 479.29V483H42.7775V476H43.9955V477.008C44.4808 476.215 45.2368 475.818 46.2635 475.818ZM53.9699 483.182C52.9152 483.182 52.0379 482.832 51.3379 482.132C50.6379 481.423 50.2879 480.545 50.2879 479.5C50.2879 478.455 50.6379 477.582 51.3379 476.882C52.0379 476.173 52.9152 475.818 53.9699 475.818C54.6605 475.818 55.2812 475.986 55.8319 476.322C56.3825 476.649 56.7932 477.092 57.0639 477.652L56.0419 478.24C55.8645 477.867 55.5892 477.568 55.2159 477.344C54.8519 477.12 54.4365 477.008 53.9699 477.008C53.2699 477.008 52.6819 477.246 52.2059 477.722C51.7392 478.207 51.5059 478.8 51.5059 479.5C51.5059 480.191 51.7392 480.779 52.2059 481.264C52.6819 481.74 53.2699 481.978 53.9699 481.978C54.4365 481.978 54.8565 481.871 55.2299 481.656C55.6032 481.432 55.8879 481.133 56.0839 480.76L57.1199 481.362C56.8119 481.922 56.3779 482.365 55.8179 482.692C55.2579 483.019 54.6419 483.182 53.9699 483.182ZM61.2061 481.488L63.2221 476H64.5241L61.6681 483.434C61.3601 484.227 60.9354 484.829 60.3941 485.24C59.8621 485.66 59.2508 485.847 58.5601 485.8V484.666C59.4188 484.731 60.0488 484.255 60.4501 483.238L60.5761 482.972L57.5241 476H58.8261L61.2061 481.488ZM66.3392 476.14H65.4572L65.2892 473.2H66.5072L66.3392 476.14ZM68.5873 477.89C68.5873 478.338 69.0493 478.688 69.9733 478.94C70.3186 479.015 70.6079 479.094 70.8413 479.178C71.0839 479.253 71.3453 479.369 71.6253 479.528C71.9146 479.687 72.1339 479.897 72.2833 480.158C72.4326 480.419 72.5073 480.727 72.5073 481.082C72.5073 481.717 72.2599 482.225 71.7653 482.608C71.2706 482.991 70.6453 483.182 69.8893 483.182C69.2173 483.182 68.6339 483.037 68.1393 482.748C67.6539 482.449 67.3086 482.048 67.1033 481.544L68.1533 480.942C68.2653 481.278 68.4753 481.544 68.7833 481.74C69.0913 481.936 69.4599 482.034 69.8893 482.034C70.3093 482.034 70.6453 481.955 70.8973 481.796C71.1493 481.637 71.2753 481.399 71.2753 481.082C71.2753 480.606 70.8133 480.261 69.8893 480.046C69.5813 479.962 69.3479 479.897 69.1893 479.85C69.0306 479.803 68.8113 479.719 68.5313 479.598C68.2606 479.477 68.0553 479.351 67.9153 479.22C67.7753 479.08 67.6446 478.898 67.5233 478.674C67.4113 478.441 67.3553 478.184 67.3553 477.904C67.3553 477.297 67.5886 476.798 68.0553 476.406C68.5313 476.014 69.1239 475.818 69.8333 475.818C70.4026 475.818 70.9066 475.949 71.3453 476.21C71.7933 476.462 72.1293 476.817 72.3533 477.274L71.3313 477.848C71.0793 477.251 70.5799 476.952 69.8333 476.952C69.4786 476.952 69.1799 477.036 68.9373 477.204C68.7039 477.372 68.5873 477.601 68.5873 477.89ZM81.0474 473.018V474.194C79.8154 474.091 79.1994 474.623 79.1994 475.79V476H81.0474V477.176H79.1994V483H77.9814V477.176H76.8614V476H77.9814V475.79C77.9814 474.838 78.2474 474.124 78.7794 473.648C79.3114 473.163 80.0674 472.953 81.0474 473.018ZM88.312 480.06H82.446C82.5673 480.676 82.852 481.161 83.3 481.516C83.748 481.861 84.308 482.034 84.98 482.034C85.904 482.034 86.576 481.693 86.996 481.012L88.032 481.6C87.3413 482.655 86.3146 483.182 84.952 483.182C83.8506 483.182 82.9453 482.837 82.236 482.146C81.5453 481.437 81.2 480.555 81.2 479.5C81.2 478.436 81.5406 477.559 82.222 476.868C82.9033 476.168 83.7853 475.818 84.868 475.818C85.8946 475.818 86.73 476.182 87.374 476.91C88.0273 477.619 88.354 478.487 88.354 479.514C88.354 479.691 88.34 479.873 88.312 480.06ZM84.868 476.966C84.224 476.966 83.6826 477.148 83.244 477.512C82.8146 477.876 82.5486 478.371 82.446 478.996H87.122C87.0193 478.352 86.7626 477.853 86.352 477.498C85.9413 477.143 85.4466 476.966 84.868 476.966ZM96.4604 480.06H90.5944C90.7157 480.676 91.0004 481.161 91.4484 481.516C91.8964 481.861 92.4564 482.034 93.1284 482.034C94.0524 482.034 94.7244 481.693 95.1444 481.012L96.1804 481.6C95.4897 482.655 94.4631 483.182 93.1004 483.182C91.9991 483.182 91.0937 482.837 90.3844 482.146C89.6937 481.437 89.3484 480.555 89.3484 479.5C89.3484 478.436 89.6891 477.559 90.3704 476.868C91.0517 476.168 91.9337 475.818 93.0164 475.818C94.0431 475.818 94.8784 476.182 95.5224 476.91C96.1757 477.619 96.5024 478.487 96.5024 479.514C96.5024 479.691 96.4884 479.873 96.4604 480.06ZM93.0164 476.966C92.3724 476.966 91.8311 477.148 91.3924 477.512C90.9631 477.876 90.6971 478.371 90.5944 478.996H95.2704C95.1677 478.352 94.9111 477.853 94.5004 477.498C94.0897 477.143 93.5951 476.966 93.0164 476.966Z" fill="white"/>
<path d="M17.05 321.2H20.872C22.1973 321.2 23.3033 321.676 24.19 322.628C25.0767 323.571 25.52 324.728 25.52 326.1C25.52 327.463 25.0767 328.625 24.19 329.586C23.3033 330.529 22.1973 331 20.872 331H17.05V321.2ZM18.352 329.768H20.872C21.8707 329.768 22.6873 329.418 23.322 328.718C23.9567 328.009 24.274 327.136 24.274 326.1C24.274 325.064 23.9567 324.191 23.322 323.482C22.6873 322.782 21.8707 322.432 20.872 322.432H18.352V329.768ZM33.6928 328.06H27.8268C27.9482 328.676 28.2328 329.161 28.6808 329.516C29.1288 329.861 29.6888 330.034 30.3608 330.034C31.2848 330.034 31.9568 329.693 32.3768 329.012L33.4128 329.6C32.7222 330.655 31.6955 331.182 30.3328 331.182C29.2315 331.182 28.3262 330.837 27.6168 330.146C26.9262 329.437 26.5808 328.555 26.5808 327.5C26.5808 326.436 26.9215 325.559 27.6028 324.868C28.2842 324.168 29.1662 323.818 30.2488 323.818C31.2755 323.818 32.1108 324.182 32.7548 324.91C33.4082 325.619 33.7348 326.487 33.7348 327.514C33.7348 327.691 33.7208 327.873 33.6928 328.06ZM30.2488 324.966C29.6048 324.966 29.0635 325.148 28.6248 325.512C28.1955 325.876 27.9295 326.371 27.8268 326.996H32.5028C32.4002 326.352 32.1435 325.853 31.7328 325.498C31.3222 325.143 30.8275 324.966 30.2488 324.966ZM37.5635 329.698L39.7615 324H41.0775L38.2775 331H36.8495L34.0495 324H35.3655L37.5635 329.698ZM48.5542 328.06H42.6882C42.8095 328.676 43.0942 329.161 43.5422 329.516C43.9902 329.861 44.5502 330.034 45.2222 330.034C46.1462 330.034 46.8182 329.693 47.2382 329.012L48.2742 329.6C47.5835 330.655 46.5568 331.182 45.1942 331.182C44.0928 331.182 43.1875 330.837 42.4782 330.146C41.7875 329.437 41.4422 328.555 41.4422 327.5C41.4422 326.436 41.7828 325.559 42.4642 324.868C43.1455 324.168 44.0275 323.818 45.1102 323.818C46.1368 323.818 46.9722 324.182 47.6162 324.91C48.2695 325.619 48.5962 326.487 48.5962 327.514C48.5962 327.691 48.5822 327.873 48.5542 328.06ZM45.1102 324.966C44.4662 324.966 43.9248 325.148 43.4862 325.512C43.0568 325.876 42.7908 326.371 42.6882 326.996H47.3642C47.2615 326.352 47.0048 325.853 46.5942 325.498C46.1835 325.143 45.6888 324.966 45.1102 324.966ZM51.2143 331H49.9963V320.78H51.2143V331ZM58.9804 330.118C58.2711 330.827 57.3984 331.182 56.3624 331.182C55.3264 331.182 54.4538 330.827 53.7444 330.118C53.0351 329.409 52.6804 328.536 52.6804 327.5C52.6804 326.464 53.0351 325.591 53.7444 324.882C54.4538 324.173 55.3264 323.818 56.3624 323.818C57.3984 323.818 58.2711 324.173 58.9804 324.882C59.6991 325.601 60.0584 326.473 60.0584 327.5C60.0584 328.527 59.6991 329.399 58.9804 330.118ZM56.3624 329.992C57.0624 329.992 57.6504 329.754 58.1264 329.278C58.6024 328.802 58.8404 328.209 58.8404 327.5C58.8404 326.791 58.6024 326.198 58.1264 325.722C57.6504 325.246 57.0624 325.008 56.3624 325.008C55.6718 325.008 55.0884 325.246 54.6124 325.722C54.1364 326.198 53.8984 326.791 53.8984 327.5C53.8984 328.209 54.1364 328.802 54.6124 329.278C55.0884 329.754 55.6718 329.992 56.3624 329.992ZM65.3583 323.818C66.3383 323.818 67.1736 324.177 67.8643 324.896C68.555 325.615 68.9003 326.483 68.9003 327.5C68.9003 328.527 68.555 329.399 67.8643 330.118C67.183 330.827 66.3476 331.182 65.3583 331.182C64.201 331.182 63.319 330.72 62.7123 329.796V333.8H61.4943V324H62.7123V325.204C63.319 324.28 64.201 323.818 65.3583 323.818ZM65.2043 330.006C65.9043 330.006 66.4923 329.768 66.9683 329.292C67.4443 328.797 67.6823 328.2 67.6823 327.5C67.6823 326.791 67.4443 326.198 66.9683 325.722C66.4923 325.237 65.9043 324.994 65.2043 324.994C64.495 324.994 63.9023 325.237 63.4263 325.722C62.9503 326.198 62.7123 326.791 62.7123 327.5C62.7123 328.2 62.9503 328.797 63.4263 329.292C63.9023 329.768 64.495 330.006 65.2043 330.006ZM77.0737 328.06H71.2077C71.329 328.676 71.6137 329.161 72.0617 329.516C72.5097 329.861 73.0697 330.034 73.7417 330.034C74.6657 330.034 75.3377 329.693 75.7577 329.012L76.7937 329.6C76.103 330.655 75.0764 331.182 73.7137 331.182C72.6124 331.182 71.707 330.837 70.9977 330.146C70.307 329.437 69.9617 328.555 69.9617 327.5C69.9617 326.436 70.3024 325.559 70.9837 324.868C71.665 324.168 72.547 323.818 73.6297 323.818C74.6564 323.818 75.4917 324.182 76.1357 324.91C76.789 325.619 77.1157 326.487 77.1157 327.514C77.1157 327.691 77.1017 327.873 77.0737 328.06ZM73.6297 324.966C72.9857 324.966 72.4444 325.148 72.0057 325.512C71.5764 325.876 71.3104 326.371 71.2077 326.996H75.8837C75.781 326.352 75.5244 325.853 75.1137 325.498C74.703 325.143 74.2084 324.966 73.6297 324.966ZM79.7338 324V325.176C80.1351 324.308 80.8631 323.874 81.9178 323.874V325.148C81.3205 325.12 80.8071 325.279 80.3778 325.624C79.9485 325.969 79.7338 326.525 79.7338 327.29V331H78.5158V324H79.7338ZM84.1126 324.14H83.2306L83.0626 321.2H84.2806L84.1126 324.14ZM86.3607 325.89C86.3607 326.338 86.8227 326.688 87.7467 326.94C88.0921 327.015 88.3814 327.094 88.6147 327.178C88.8574 327.253 89.1187 327.369 89.3987 327.528C89.6881 327.687 89.9074 327.897 90.0567 328.158C90.2061 328.419 90.2807 328.727 90.2807 329.082C90.2807 329.717 90.0334 330.225 89.5387 330.608C89.0441 330.991 88.4187 331.182 87.6627 331.182C86.9907 331.182 86.4074 331.037 85.9127 330.748C85.4274 330.449 85.0821 330.048 84.8767 329.544L85.9267 328.942C86.0387 329.278 86.2487 329.544 86.5567 329.74C86.8647 329.936 87.2334 330.034 87.6627 330.034C88.0827 330.034 88.4187 329.955 88.6707 329.796C88.9227 329.637 89.0487 329.399 89.0487 329.082C89.0487 328.606 88.5867 328.261 87.6627 328.046C87.3547 327.962 87.1214 327.897 86.9627 327.85C86.8041 327.803 86.5847 327.719 86.3047 327.598C86.0341 327.477 85.8287 327.351 85.6887 327.22C85.5487 327.08 85.4181 326.898 85.2967 326.674C85.1847 326.441 85.1287 326.184 85.1287 325.904C85.1287 325.297 85.3621 324.798 85.8287 324.406C86.3047 324.014 86.8974 323.818 87.6067 323.818C88.1761 323.818 88.6801 323.949 89.1187 324.21C89.5667 324.462 89.9027 324.817 90.1267 325.274L89.1047 325.848C88.8527 325.251 88.3534 324.952 87.6067 324.952C87.2521 324.952 86.9534 325.036 86.7107 325.204C86.4774 325.372 86.3607 325.601 86.3607 325.89ZM98.5128 331.182C97.4582 331.182 96.5808 330.832 95.8808 330.132C95.1808 329.423 94.8308 328.545 94.8308 327.5C94.8308 326.455 95.1808 325.582 95.8808 324.882C96.5808 324.173 97.4582 323.818 98.5128 323.818C99.2035 323.818 99.8242 323.986 100.375 324.322C100.925 324.649 101.336 325.092 101.607 325.652L100.585 326.24C100.407 325.867 100.132 325.568 99.7588 325.344C99.3948 325.12 98.9795 325.008 98.5128 325.008C97.8128 325.008 97.2248 325.246 96.7488 325.722C96.2822 326.207 96.0488 326.8 96.0488 327.5C96.0488 328.191 96.2822 328.779 96.7488 329.264C97.2248 329.74 97.8128 329.978 98.5128 329.978C98.9795 329.978 99.3995 329.871 99.7728 329.656C100.146 329.432 100.431 329.133 100.627 328.76L101.663 329.362C101.355 329.922 100.921 330.365 100.361 330.692C99.8008 331.019 99.1848 331.182 98.5128 331.182ZM108.678 330.118C107.968 330.827 107.096 331.182 106.06 331.182C105.024 331.182 104.151 330.827 103.442 330.118C102.732 329.409 102.378 328.536 102.378 327.5C102.378 326.464 102.732 325.591 103.442 324.882C104.151 324.173 105.024 323.818 106.06 323.818C107.096 323.818 107.968 324.173 108.678 324.882C109.396 325.601 109.756 326.473 109.756 327.5C109.756 328.527 109.396 329.399 108.678 330.118ZM106.06 329.992C106.76 329.992 107.348 329.754 107.824 329.278C108.3 328.802 108.538 328.209 108.538 327.5C108.538 326.791 108.3 326.198 107.824 325.722C107.348 325.246 106.76 325.008 106.06 325.008C105.369 325.008 104.786 325.246 104.31 325.722C103.834 326.198 103.596 326.791 103.596 327.5C103.596 328.209 103.834 328.802 104.31 329.278C104.786 329.754 105.369 329.992 106.06 329.992ZM112.091 325.89C112.091 326.338 112.553 326.688 113.477 326.94C113.823 327.015 114.112 327.094 114.345 327.178C114.588 327.253 114.849 327.369 115.129 327.528C115.419 327.687 115.638 327.897 115.787 328.158C115.937 328.419 116.011 328.727 116.011 329.082C116.011 329.717 115.764 330.225 115.269 330.608C114.775 330.991 114.149 331.182 113.393 331.182C112.721 331.182 112.138 331.037 111.643 330.748C111.158 330.449 110.813 330.048 110.607 329.544L111.657 328.942C111.769 329.278 111.979 329.544 112.287 329.74C112.595 329.936 112.964 330.034 113.393 330.034C113.813 330.034 114.149 329.955 114.401 329.796C114.653 329.637 114.779 329.399 114.779 329.082C114.779 328.606 114.317 328.261 113.393 328.046C113.085 327.962 112.852 327.897 112.693 327.85C112.535 327.803 112.315 327.719 112.035 327.598C111.765 327.477 111.559 327.351 111.419 327.22C111.279 327.08 111.149 326.898 111.027 326.674C110.915 326.441 110.859 326.184 110.859 325.904C110.859 325.297 111.093 324.798 111.559 324.406C112.035 324.014 112.628 323.818 113.337 323.818C113.907 323.818 114.411 323.949 114.849 324.21C115.297 324.462 115.633 324.817 115.857 325.274L114.835 325.848C114.583 325.251 114.084 324.952 113.337 324.952C112.983 324.952 112.684 325.036 112.441 325.204C112.208 325.372 112.091 325.601 112.091 325.89ZM120.988 324V325.176H119.126V328.97C119.126 329.315 119.191 329.563 119.322 329.712C119.462 329.852 119.672 329.927 119.952 329.936C120.232 329.936 120.577 329.927 120.988 329.908V331C119.915 331.14 119.131 331.051 118.636 330.734C118.151 330.417 117.908 329.829 117.908 328.97V325.176H116.522V324H117.908V322.404L119.126 322.04V324H120.988Z" fill="white"/>
<path d="M17.05 321.2H20.872C22.1973 321.2 23.3033 321.676 24.19 322.628C25.0767 323.571 25.52 324.728 25.52 326.1C25.52 327.463 25.0767 328.625 24.19 329.586C23.3033 330.529 22.1973 331 20.872 331H17.05V321.2ZM18.352 329.768H20.872C21.8707 329.768 22.6873 329.418 23.322 328.718C23.9567 328.009 24.274 327.136 24.274 326.1C24.274 325.064 23.9567 324.191 23.322 323.482C22.6873 322.782 21.8707 322.432 20.872 322.432H18.352V329.768ZM33.6928 328.06H27.8268C27.9482 328.676 28.2328 329.161 28.6808 329.516C29.1288 329.861 29.6888 330.034 30.3608 330.034C31.2848 330.034 31.9568 329.693 32.3768 329.012L33.4128 329.6C32.7222 330.655 31.6955 331.182 30.3328 331.182C29.2315 331.182 28.3262 330.837 27.6168 330.146C26.9262 329.437 26.5808 328.555 26.5808 327.5C26.5808 326.436 26.9215 325.559 27.6028 324.868C28.2842 324.168 29.1662 323.818 30.2488 323.818C31.2755 323.818 32.1108 324.182 32.7548 324.91C33.4082 325.619 33.7348 326.487 33.7348 327.514C33.7348 327.691 33.7208 327.873 33.6928 328.06ZM30.2488 324.966C29.6048 324.966 29.0635 325.148 28.6248 325.512C28.1955 325.876 27.9295 326.371 27.8268 326.996H32.5028C32.4002 326.352 32.1435 325.853 31.7328 325.498C31.3222 325.143 30.8275 324.966 30.2488 324.966ZM37.5635 329.698L39.7615 324H41.0775L38.2775 331H36.8495L34.0495 324H35.3655L37.5635 329.698ZM48.5542 328.06H42.6882C42.8095 328.676 43.0942 329.161 43.5422 329.516C43.9902 329.861 44.5502 330.034 45.2222 330.034C46.1462 330.034 46.8182 329.693 47.2382 329.012L48.2742 329.6C47.5835 330.655 46.5568 331.182 45.1942 331.182C44.0928 331.182 43.1875 330.837 42.4782 330.146C41.7875 329.437 41.4422 328.555 41.4422 327.5C41.4422 326.436 41.7828 325.559 42.4642 324.868C43.1455 324.168 44.0275 323.818 45.1102 323.818C46.1368 323.818 46.9722 324.182 47.6162 324.91C48.2695 325.619 48.5962 326.487 48.5962 327.514C48.5962 327.691 48.5822 327.873 48.5542 328.06ZM45.1102 324.966C44.4662 324.966 43.9248 325.148 43.4862 325.512C43.0568 325.876 42.7908 326.371 42.6882 326.996H47.3642C47.2615 326.352 47.0048 325.853 46.5942 325.498C46.1835 325.143 45.6888 324.966 45.1102 324.966ZM51.2143 331H49.9963V320.78H51.2143V331ZM58.9804 330.118C58.2711 330.827 57.3984 331.182 56.3624 331.182C55.3264 331.182 54.4538 330.827 53.7444 330.118C53.0351 329.409 52.6804 328.536 52.6804 327.5C52.6804 326.464 53.0351 325.591 53.7444 324.882C54.4538 324.173 55.3264 323.818 56.3624 323.818C57.3984 323.818 58.2711 324.173 58.9804 324.882C59.6991 325.601 60.0584 326.473 60.0584 327.5C60.0584 328.527 59.6991 329.399 58.9804 330.118ZM56.3624 329.992C57.0624 329.992 57.6504 329.754 58.1264 329.278C58.6024 328.802 58.8404 328.209 58.8404 327.5C58.8404 326.791 58.6024 326.198 58.1264 325.722C57.6504 325.246 57.0624 325.008 56.3624 325.008C55.6718 325.008 55.0884 325.246 54.6124 325.722C54.1364 326.198 53.8984 326.791 53.8984 327.5C53.8984 328.209 54.1364 328.802 54.6124 329.278C55.0884 329.754 55.6718 329.992 56.3624 329.992ZM65.3583 323.818C66.3383 323.818 67.1736 324.177 67.8643 324.896C68.555 325.615 68.9003 326.483 68.9003 327.5C68.9003 328.527 68.555 329.399 67.8643 330.118C67.183 330.827 66.3476 331.182 65.3583 331.182C64.201 331.182 63.319 330.72 62.7123 329.796V333.8H61.4943V324H62.7123V325.204C63.319 324.28 64.201 323.818 65.3583 323.818ZM65.2043 330.006C65.9043 330.006 66.4923 329.768 66.9683 329.292C67.4443 328.797 67.6823 328.2 67.6823 327.5C67.6823 326.791 67.4443 326.198 66.9683 325.722C66.4923 325.237 65.9043 324.994 65.2043 324.994C64.495 324.994 63.9023 325.237 63.4263 325.722C62.9503 326.198 62.7123 326.791 62.7123 327.5C62.7123 328.2 62.9503 328.797 63.4263 329.292C63.9023 329.768 64.495 330.006 65.2043 330.006ZM77.0737 328.06H71.2077C71.329 328.676 71.6137 329.161 72.0617 329.516C72.5097 329.861 73.0697 330.034 73.7417 330.034C74.6657 330.034 75.3377 329.693 75.7577 329.012L76.7937 329.6C76.103 330.655 75.0764 331.182 73.7137 331.182C72.6124 331.182 71.707 330.837 70.9977 330.146C70.307 329.437 69.9617 328.555 69.9617 327.5C69.9617 326.436 70.3024 325.559 70.9837 324.868C71.665 324.168 72.547 323.818 73.6297 323.818C74.6564 323.818 75.4917 324.182 76.1357 324.91C76.789 325.619 77.1157 326.487 77.1157 327.514C77.1157 327.691 77.1017 327.873 77.0737 328.06ZM73.6297 324.966C72.9857 324.966 72.4444 325.148 72.0057 325.512C71.5764 325.876 71.3104 326.371 71.2077 326.996H75.8837C75.781 326.352 75.5244 325.853 75.1137 325.498C74.703 325.143 74.2084 324.966 73.6297 324.966ZM79.7338 324V325.176C80.1351 324.308 80.8631 323.874 81.9178 323.874V325.148C81.3205 325.12 80.8071 325.279 80.3778 325.624C79.9485 325.969 79.7338 326.525 79.7338 327.29V331H78.5158V324H79.7338ZM84.1126 324.14H83.2306L83.0626 321.2H84.2806L84.1126 324.14ZM86.3607 325.89C86.3607 326.338 86.8227 326.688 87.7467 326.94C88.0921 327.015 88.3814 327.094 88.6147 327.178C88.8574 327.253 89.1187 327.369 89.3987 327.528C89.6881 327.687 89.9074 327.897 90.0567 328.158C90.2061 328.419 90.2807 328.727 90.2807 329.082C90.2807 329.717 90.0334 330.225 89.5387 330.608C89.0441 330.991 88.4187 331.182 87.6627 331.182C86.9907 331.182 86.4074 331.037 85.9127 330.748C85.4274 330.449 85.0821 330.048 84.8767 329.544L85.9267 328.942C86.0387 329.278 86.2487 329.544 86.5567 329.74C86.8647 329.936 87.2334 330.034 87.6627 330.034C88.0827 330.034 88.4187 329.955 88.6707 329.796C88.9227 329.637 89.0487 329.399 89.0487 329.082C89.0487 328.606 88.5867 328.261 87.6627 328.046C87.3547 327.962 87.1214 327.897 86.9627 327.85C86.8041 327.803 86.5847 327.719 86.3047 327.598C86.0341 327.477 85.8287 327.351 85.6887 327.22C85.5487 327.08 85.4181 326.898 85.2967 326.674C85.1847 326.441 85.1287 326.184 85.1287 325.904C85.1287 325.297 85.3621 324.798 85.8287 324.406C86.3047 324.014 86.8974 323.818 87.6067 323.818C88.1761 323.818 88.6801 323.949 89.1187 324.21C89.5667 324.462 89.9027 324.817 90.1267 325.274L89.1047 325.848C88.8527 325.251 88.3534 324.952 87.6067 324.952C87.2521 324.952 86.9534 325.036 86.7107 325.204C86.4774 325.372 86.3607 325.601 86.3607 325.89ZM98.5128 331.182C97.4582 331.182 96.5808 330.832 95.8808 330.132C95.1808 329.423 94.8308 328.545 94.8308 327.5C94.8308 326.455 95.1808 325.582 95.8808 324.882C96.5808 324.173 97.4582 323.818 98.5128 323.818C99.2035 323.818 99.8242 323.986 100.375 324.322C100.925 324.649 101.336 325.092 101.607 325.652L100.585 326.24C100.407 325.867 100.132 325.568 99.7588 325.344C99.3948 325.12 98.9795 325.008 98.5128 325.008C97.8128 325.008 97.2248 325.246 96.7488 325.722C96.2822 326.207 96.0488 326.8 96.0488 327.5C96.0488 328.191 96.2822 328.779 96.7488 329.264C97.2248 329.74 97.8128 329.978 98.5128 329.978C98.9795 329.978 99.3995 329.871 99.7728 329.656C100.146 329.432 100.431 329.133 100.627 328.76L101.663 329.362C101.355 329.922 100.921 330.365 100.361 330.692C99.8008 331.019 99.1848 331.182 98.5128 331.182ZM108.678 330.118C107.968 330.827 107.096 331.182 106.06 331.182C105.024 331.182 104.151 330.827 103.442 330.118C102.732 329.409 102.378 328.536 102.378 327.5C102.378 326.464 102.732 325.591 103.442 324.882C104.151 324.173 105.024 323.818 106.06 323.818C107.096 323.818 107.968 324.173 108.678 324.882C109.396 325.601 109.756 326.473 109.756 327.5C109.756 328.527 109.396 329.399 108.678 330.118ZM106.06 329.992C106.76 329.992 107.348 329.754 107.824 329.278C108.3 328.802 108.538 328.209 108.538 327.5C108.538 326.791 108.3 326.198 107.824 325.722C107.348 325.246 106.76 325.008 106.06 325.008C105.369 325.008 104.786 325.246 104.31 325.722C103.834 326.198 103.596 326.791 103.596 327.5C103.596 328.209 103.834 328.802 104.31 329.278C104.786 329.754 105.369 329.992 106.06 329.992ZM112.091 325.89C112.091 326.338 112.553 326.688 113.477 326.94C113.823 327.015 114.112 327.094 114.345 327.178C114.588 327.253 114.849 327.369 115.129 327.528C115.419 327.687 115.638 327.897 115.787 328.158C115.937 328.419 116.011 328.727 116.011 329.082C116.011 329.717 115.764 330.225 115.269 330.608C114.775 330.991 114.149 331.182 113.393 331.182C112.721 331.182 112.138 331.037 111.643 330.748C111.158 330.449 110.813 330.048 110.607 329.544L111.657 328.942C111.769 329.278 111.979 329.544 112.287 329.74C112.595 329.936 112.964 330.034 113.393 330.034C113.813 330.034 114.149 329.955 114.401 329.796C114.653 329.637 114.779 329.399 114.779 329.082C114.779 328.606 114.317 328.261 113.393 328.046C113.085 327.962 112.852 327.897 112.693 327.85C112.535 327.803 112.315 327.719 112.035 327.598C111.765 327.477 111.559 327.351 111.419 327.22C111.279 327.08 111.149 326.898 111.027 326.674C110.915 326.441 110.859 326.184 110.859 325.904C110.859 325.297 111.093 324.798 111.559 324.406C112.035 324.014 112.628 323.818 113.337 323.818C113.907 323.818 114.411 323.949 114.849 324.21C115.297 324.462 115.633 324.817 115.857 325.274L114.835 325.848C114.583 325.251 114.084 324.952 113.337 324.952C112.983 324.952 112.684 325.036 112.441 325.204C112.208 325.372 112.091 325.601 112.091 325.89ZM120.988 324V325.176H119.126V328.97C119.126 329.315 119.191 329.563 119.322 329.712C119.462 329.852 119.672 329.927 119.952 329.936C120.232 329.936 120.577 329.927 120.988 329.908V331C119.915 331.14 119.131 331.051 118.636 330.734C118.151 330.417 117.908 329.829 117.908 328.97V325.176H116.522V324H117.908V322.404L119.126 322.04V324H120.988Z" fill="white"/>
<path d="M481 13.6222C481 14.8519 480.587 15.8519 479.762 16.6222C478.937 17.3926 477.868 17.8593 476.554 18.0222V20H475.11V18.0444C473.873 17.9556 472.811 17.6222 471.925 17.0444C471.039 16.4667 470.397 15.6889 470 14.7111L471.833 13.6889C472.368 15.0667 473.46 15.8444 475.11 16.0222V10.6444C473.858 10.2148 472.865 9.72593 472.131 9.17778C471.23 8.4963 470.779 7.5037 470.779 6.2C470.779 5 471.192 4.02222 472.017 3.26667C472.857 2.4963 473.888 2.05926 475.11 1.95556V0H476.554V1.97778C478.494 2.22963 479.869 3.22222 480.679 4.95556L478.892 5.93333C478.449 4.85185 477.669 4.20741 476.554 4V9.11111C477.242 9.34815 477.799 9.57037 478.227 9.77778C478.685 10 479.136 10.2741 479.579 10.6C480.526 11.2667 481 12.2741 481 13.6222ZM472.887 6.2C472.887 6.74815 473.056 7.20741 473.392 7.57778C473.743 7.93333 474.316 8.26667 475.11 8.57778V3.97778C474.423 4.06667 473.881 4.31111 473.483 4.71111C473.086 5.0963 472.887 5.59259 472.887 6.2ZM476.554 11.1556V15.9778C477.272 15.8741 477.837 15.6148 478.25 15.2C478.662 14.7852 478.869 14.2667 478.869 13.6444C478.869 13.0519 478.685 12.5778 478.319 12.2222C477.967 11.8519 477.379 11.4963 476.554 11.1556Z" fill="#AFB3FF"/>
<defs>
<linearGradient id="paint0_linear_1_2" x1="338" y1="186" x2="338" y2="504" gradientUnits="userSpaceOnUse">
<stop stop-color="#F23535"/>
<stop offset="1" stop-color="#670707"/>
</linearGradient>
</defs>
</svg>
