<svg width="40" height="40" viewBox="0 0 40 40" fill="none" xmlns="http://www.w3.org/2000/svg">
<rect width="40" height="40" rx="6" fill="#BFC9FF" fill-opacity="0.1"/>
<g clip-path="url(#clip0_0_17103)">
<path d="M31.6835 15.0561C31.6272 13.7809 31.4207 12.9042 31.1248 12.1445C30.8196 11.3381 30.3501 10.6162 29.735 10.016C29.1339 9.40652 28.4062 8.93292 27.608 8.63294C26.8428 8.33753 25.9694 8.13131 24.6923 8.07509C23.4057 8.0141 22.9972 8 19.734 8C16.4708 8 16.0624 8.0141 14.7805 8.07033C13.5034 8.12655 12.6254 8.33295 11.8648 8.62817C11.0571 8.93292 10.3341 9.40176 9.73308 10.016C9.12269 10.6162 8.64858 11.3429 8.34797 12.1399C8.05213 12.9042 7.84562 13.7761 7.78931 15.0513C7.72823 16.336 7.71411 16.7439 7.71411 20.0023C7.71411 23.2608 7.72823 23.6686 7.78454 24.9486C7.84085 26.2238 8.04755 27.1005 8.34339 27.8602C8.64858 28.6666 9.12269 29.3885 9.73308 29.9887C10.3341 30.5982 11.0619 31.0718 11.8601 31.3718C12.6254 31.6672 13.4987 31.8734 14.7759 31.9296C16.0576 31.986 16.4662 31.9999 19.7294 31.9999C22.9927 31.9999 23.4011 31.986 24.683 31.9296C25.96 31.8734 26.838 31.6672 27.5986 31.3718C29.2139 30.7482 30.491 29.4729 31.1155 27.8602C31.4111 27.096 31.6178 26.2238 31.6741 24.9486C31.7305 23.6686 31.7446 23.2608 31.7446 20.0023C31.7446 16.7439 31.7398 16.336 31.6835 15.0561ZM29.5191 24.8549C29.4674 26.027 29.2702 26.6599 29.1059 27.0819C28.702 28.1274 27.871 28.9572 26.8239 29.3605C26.4013 29.5246 25.7629 29.7215 24.5936 29.7729C23.3259 29.8293 22.9457 29.8433 19.7388 29.8433C16.5319 29.8433 16.1469 29.8293 14.8838 29.7729C13.7099 29.7215 13.0761 29.5246 12.6535 29.3605C12.1324 29.1682 11.6581 28.8635 11.2732 28.4649C10.8741 28.0758 10.5689 27.6069 10.3763 27.0866C10.212 26.6647 10.0148 26.027 9.96326 24.8596C9.90677 23.5937 9.89283 23.2139 9.89283 20.0117C9.89283 16.8095 9.90677 16.425 9.96326 15.1639C10.0148 13.9918 10.212 13.3589 10.3763 12.9369C10.5689 12.4165 10.8741 11.943 11.2779 11.5584C11.6675 11.1599 12.137 10.8552 12.6583 10.6631C13.0809 10.499 13.7195 10.3021 14.8885 10.2504C16.1563 10.1942 16.5366 10.1801 19.7434 10.1801C22.9551 10.1801 23.3353 10.1942 24.5984 10.2504C25.7722 10.3021 26.4061 10.499 26.8287 10.6631C27.3497 10.8552 27.824 11.1599 28.209 11.5584C28.6081 11.9476 28.9133 12.4165 29.1059 12.9369C29.2702 13.3589 29.4674 13.9964 29.5191 15.1639C29.5754 16.4298 29.5895 16.8095 29.5895 20.0117C29.5895 23.2139 29.5754 23.589 29.5191 24.8549Z" fill="#22292D"/>
<path d="M19.7331 13.8372C16.3245 13.8372 13.5588 16.5986 13.5588 20.0024C13.5588 23.4063 16.3245 26.1677 19.7331 26.1677C23.142 26.1677 25.9074 23.4063 25.9074 20.0024C25.9074 16.5986 23.142 13.8372 19.7331 13.8372ZM19.7331 24.0017C17.5218 24.0017 15.728 22.2107 15.728 20.0024C15.728 17.7941 17.5218 16.0032 19.7331 16.0032C21.9447 16.0032 23.7382 17.7941 23.7382 20.0024C23.7382 22.2107 21.9447 24.0017 19.7331 24.0017V24.0017Z" fill="#22292D"/>
<path d="M27.594 13.5936C27.594 14.3884 26.9485 15.0329 26.1524 15.0329C25.3564 15.0329 24.7109 14.3884 24.7109 13.5936C24.7109 12.7986 25.3564 12.1543 26.1524 12.1543C26.9485 12.1543 27.594 12.7986 27.594 13.5936V13.5936Z" fill="#22292D"/>
</g>
<defs>
<clipPath id="clip0_0_17103">
<rect x="8" y="8" width="24" height="24" rx="4" fill="white"/>
</clipPath>
</defs>
</svg>
