<svg width="40" height="40" viewBox="0 0 40 40" fill="none" xmlns="http://www.w3.org/2000/svg">
<rect width="40" height="40" rx="6" fill="#BFC9FF" fill-opacity="0.1"/>
<path fill-rule="evenodd" clip-rule="evenodd" d="M12.095 10.4741C11.6845 10.5817 11.3939 10.7518 11.0736 11.0721C10.7488 11.3969 10.5823 11.6847 10.474 12.1083C10.4014 12.3921 10.3999 12.5522 10.3999 19.9991C10.3999 27.446 10.4014 27.6061 10.474 27.8899C10.5823 28.3135 10.7488 28.6013 11.0736 28.9261C11.3985 29.251 11.6862 29.4174 12.1098 29.5258C12.3935 29.5984 12.5536 29.5999 19.9999 29.5999C27.4462 29.5999 27.6063 29.5984 27.8901 29.5258C28.3137 29.4174 28.6014 29.251 28.9262 28.9261C29.251 28.6013 29.4175 28.3135 29.5258 27.8899C29.5984 27.6061 29.5999 27.446 29.5999 19.9991C29.5999 12.5522 29.5984 12.3921 29.5258 12.1083C29.4175 11.6847 29.251 11.3969 28.9262 11.0721C28.6014 10.7472 28.3137 10.5808 27.8901 10.4724C27.6061 10.3998 27.4497 10.3983 19.9845 10.4004C12.6095 10.4024 12.36 10.4047 12.095 10.4741ZM27.7368 12.0062C27.8155 12.0551 27.9252 12.1636 27.9805 12.2472L28.0812 12.3992V19.9964V27.5935L27.9922 27.7366C27.9432 27.8154 27.8347 27.9251 27.7512 27.9804L27.5991 28.081H19.9999H12.4007L12.2487 27.9804C12.1651 27.9251 12.0566 27.8154 12.0076 27.7366L11.9187 27.5935L11.9089 20.0795C11.9022 14.8644 11.9114 12.5202 11.939 12.4175C11.9874 12.2379 12.2245 11.9901 12.3953 11.9406C12.472 11.9183 15.3688 11.9072 20.0562 11.911L27.5937 11.9172L27.7368 12.0062ZM14.7193 13.6047C14.4431 13.6824 14.2287 13.8163 14.012 14.0463C13.6753 14.4037 13.5336 14.8607 13.6139 15.3299C13.669 15.6516 13.7867 15.8869 14.012 16.1261C14.3483 16.4831 14.7727 16.6515 15.2374 16.6126C15.6123 16.5813 15.8813 16.4628 16.1513 16.2102C16.6707 15.7243 16.8033 15.0077 16.4889 14.3863C16.3458 14.1035 15.979 13.7666 15.6993 13.6611C15.4173 13.5547 14.9854 13.5299 14.7193 13.6047ZM22.5499 17.676C21.8209 17.7838 21.0809 18.2149 20.7297 18.7365L20.5999 18.9293V18.3579V17.7864H19.3249H18.0499V22.0243V26.2621H19.3229H20.5959L20.6097 23.815C20.6248 21.1543 20.6244 21.16 20.8444 20.6949C21.1137 20.1255 21.6417 19.8489 22.367 19.8973C22.8755 19.9312 23.2169 20.1545 23.4141 20.5822C23.6071 21.0005 23.6099 21.042 23.6263 23.74L23.6417 26.2621H24.936H26.2303L26.2129 23.3838C26.2017 21.5089 26.181 20.4204 26.1537 20.2616C25.8708 18.6189 25.1808 17.8823 23.7312 17.6754C23.4262 17.6318 22.8467 17.6322 22.5499 17.676ZM13.7749 22.0243V26.2621H15.0874H16.3999V22.0243V17.7864H15.0874H13.7749V22.0243Z" fill="#22292D"/>
</svg>
