<svg width="41" height="40" viewBox="0 0 41 40" fill="none" xmlns="http://www.w3.org/2000/svg">
<rect x="0.666748" width="40" height="40" rx="6" fill="#BFC9FF" fill-opacity="0.1"/>
<path fill-rule="evenodd" clip-rule="evenodd" d="M28.387 12.0869C27.1223 12.5573 11.5353 18.6115 11.3057 18.7216C10.5429 19.0871 10.4537 19.57 11.0888 19.8966C11.1501 19.9281 12.2051 20.2692 13.4333 20.6546L15.6663 21.3553L20.7369 18.1484C23.5257 16.3846 25.8636 14.9216 25.9322 14.8975C26.1044 14.8368 26.2526 14.8424 26.3218 14.9124C26.3703 14.9613 26.3723 14.9859 26.3338 15.0579C26.3083 15.1055 24.4564 16.8058 22.2184 18.8365C19.9804 20.8671 18.1433 22.5444 18.1359 22.5639C18.1285 22.5833 18.0528 23.5971 17.9676 24.8168L17.8128 27.0343L17.9811 27.0114C18.0736 26.9988 18.2201 26.9505 18.3067 26.9041C18.3932 26.8577 18.9759 26.3241 19.6015 25.7183C20.227 25.1125 20.7606 24.6084 20.7871 24.5981C20.8135 24.5879 21.8098 25.3013 23.0009 26.1836C24.192 27.0659 25.2599 27.8314 25.374 27.8847C25.6732 28.0245 26.0103 28.0383 26.2292 27.9199C26.4247 27.8141 26.6158 27.5513 26.6962 27.2777C26.7273 27.1718 27.4083 23.9907 28.2095 20.2085C29.5435 13.9114 29.6663 13.3018 29.6667 12.9749C29.6672 12.6661 29.6545 12.5927 29.5726 12.4302C29.5149 12.3156 29.4165 12.1986 29.3204 12.1302C29.1005 11.9738 28.7365 11.957 28.387 12.0869Z" fill="#22292D"/>
</svg>
