<svg width="41" height="40" viewBox="0 0 41 40" fill="none" xmlns="http://www.w3.org/2000/svg">
<rect x="0.333252" width="40" height="40" rx="6" fill="#BFC9FF" fill-opacity="0.1"/>
<g clip-path="url(#clip0_0_17110)">
<path fill-rule="evenodd" clip-rule="evenodd" d="M28.6092 11.4878C26.3498 9.23984 23.3449 8.00132 20.1438 8C13.5474 8 8.17896 13.3348 8.17631 19.8917C8.17543 21.9878 8.72642 24.0339 9.77373 25.8374L8.07593 32L14.4201 30.3462C16.1681 31.2938 18.1361 31.7932 20.1389 31.7938H20.1439C26.7395 31.7938 32.1086 26.4585 32.1111 19.9013C32.1124 16.7234 30.8687 13.7356 28.6092 11.4878ZM20.1438 29.7853H20.1396C18.3549 29.7846 16.6044 29.3079 15.077 28.4075L14.714 28.1932L10.9493 29.1746L11.9541 25.527L11.7175 25.153C10.7218 23.5792 10.196 21.7602 10.1969 19.8925C10.199 14.4425 14.6612 10.0086 20.1477 10.0086C22.8046 10.0095 25.302 11.039 27.18 12.9074C29.0579 14.7758 30.0915 17.2593 30.0906 19.9005C30.0882 25.3509 25.6263 29.7853 20.1438 29.7853ZM25.5998 22.3821C25.3008 22.2333 23.8306 21.5146 23.5565 21.4153C23.2826 21.3162 23.083 21.2668 22.8839 21.5642C22.6844 21.8615 22.1115 22.531 21.9369 22.7292C21.7624 22.9275 21.5882 22.9524 21.2891 22.8036C20.99 22.6549 20.0266 22.341 18.8843 21.3286C17.9955 20.5407 17.3954 19.5676 17.2209 19.2702C17.0467 18.9726 17.2194 18.8272 17.3521 18.6638C17.6758 18.2643 17.9999 17.8455 18.0996 17.6473C18.1994 17.449 18.1494 17.2754 18.0745 17.1267C17.9999 16.978 17.4019 15.5154 17.1528 14.9202C16.9099 14.341 16.6635 14.4192 16.4799 14.4102C16.3057 14.4015 16.1062 14.3998 15.9068 14.3998C15.7075 14.3998 15.3835 14.474 15.1093 14.7717C14.8353 15.0692 14.0629 15.788 14.0629 17.2506C14.0629 18.7133 15.1344 20.1263 15.2838 20.3246C15.4333 20.523 17.3925 23.5244 20.392 24.8114C21.1054 25.1179 21.6623 25.3005 22.0967 25.4375C22.8131 25.6637 23.4648 25.6317 23.9801 25.5553C24.5547 25.4699 25.7491 24.8363 25.9985 24.1423C26.2476 23.4481 26.2476 22.8532 26.1727 22.7292C26.0982 22.6052 25.8987 22.531 25.5998 22.3821Z" fill="#22292D"/>
</g>
<defs>
<clipPath id="clip0_0_17110">
<rect x="8.33325" y="8" width="24" height="24" rx="4" fill="white"/>
</clipPath>
</defs>
</svg>
