<svg width="110" height="48" viewBox="0 0 110 48" fill="none" xmlns="http://www.w3.org/2000/svg">
<path d="M105.94 37.8731H106.75V43.7231H105.94V37.8731ZM106.419 42.9632H107.99C108.403 42.9632 108.704 42.8859 108.892 42.7259C109.082 42.5686 109.175 42.3446 109.175 42.0593V42.046C109.175 41.8487 109.14 41.678 109.074 41.5341C109.006 41.3927 108.9 41.2834 108.752 41.2061C108.604 41.1314 108.418 41.0914 108.188 41.0914H106.416V40.3502H108.188C108.487 40.3502 108.715 40.2782 108.868 40.1369C109.021 39.9929 109.098 39.7849 109.098 39.5049C109.098 39.2116 109.014 38.993 108.842 38.849C108.672 38.705 108.416 38.633 108.075 38.633H106.414V37.8731H108.223C108.598 37.8731 108.913 37.9371 109.164 38.0678C109.418 38.1958 109.606 38.3771 109.733 38.6144C109.857 38.8517 109.921 39.1317 109.921 39.4596C109.921 39.6596 109.884 39.8489 109.804 40.0249C109.728 40.2009 109.609 40.3502 109.453 40.4755C109.294 40.6008 109.098 40.6835 108.863 40.7261C109.098 40.7608 109.299 40.8461 109.468 40.9768C109.638 41.1101 109.77 41.2754 109.86 41.4727C109.952 41.6727 109.997 41.886 109.997 42.118V42.1313C109.997 42.446 109.929 42.7259 109.788 42.9686C109.651 43.2112 109.453 43.3978 109.193 43.5285C108.937 43.6592 108.635 43.7258 108.291 43.7258H106.416V42.9632H106.419ZM94.7131 43.7845C94.2846 43.7845 93.917 43.6991 93.6128 43.5285C93.3087 43.3579 93.0759 43.1099 92.9172 42.7846C92.7559 42.4593 92.6766 42.0673 92.6766 41.6087V37.8731H93.4912V41.6354C93.4912 42.062 93.5996 42.3926 93.8112 42.6246C94.0228 42.8592 94.3243 42.9739 94.7131 42.9739C95.1045 42.9739 95.406 42.8566 95.6202 42.6246C95.8345 42.39 95.9429 42.062 95.9429 41.6354V37.8731H96.7575V41.6087C96.7575 42.0673 96.6782 42.4593 96.5168 42.7846C96.3581 43.1099 96.1254 43.3579 95.8186 43.5285C95.5118 43.6991 95.1442 43.7845 94.7131 43.7845ZM79.8096 40.4515H83.031V41.2328H79.8096V40.4515ZM79.3018 37.8731H80.1164V43.7231H79.3018V37.8731ZM82.5999 37.8731H83.4145V43.7231H82.5999V37.8731ZM64.4671 37.8731H68.5613V38.6544H64.4671V37.8731V37.8731ZM66.1069 38.3531H66.9215V43.7258H66.1069V38.3531ZM55.6017 43.7231H54.7871V37.8731H55.6017V43.7231Z" fill="#B1B2B3"/>
<path d="M101.304 18.5019L106.917 27.0717V18.4193C106.917 17.8567 107.038 17.4381 107.276 17.1581C107.514 16.8781 107.837 16.7341 108.244 16.7341C108.659 16.7341 108.993 16.8728 109.233 17.1528C109.474 17.4327 109.596 17.8567 109.596 18.4193V29.8474C109.596 31.1245 109.072 31.7591 108.025 31.7591C107.763 31.7591 107.528 31.7218 107.316 31.6445C107.107 31.5698 106.909 31.4472 106.729 31.2845C106.544 31.1192 106.377 30.9246 106.218 30.7033C106.06 30.482 105.904 30.2553 105.745 30.026L100.27 21.5656V30.074C100.27 30.6286 100.143 31.0499 99.8867 31.3325C99.6275 31.6178 99.2995 31.7591 98.9002 31.7591C98.4876 31.7591 98.1543 31.6178 97.9057 31.3299C97.6545 31.0419 97.5302 30.6233 97.5302 30.074V18.8672C97.5302 18.39 97.583 18.0167 97.6888 17.7474C97.8131 17.4487 98.0221 17.2061 98.3104 17.0168C98.5987 16.8301 98.9107 16.7368 99.244 16.7368C99.5085 16.7368 99.7333 16.7795 99.9184 16.8648C100.106 16.9528 100.27 17.0674 100.413 17.2141C100.553 17.3607 100.699 17.5447 100.847 17.7794C100.992 18.0087 101.146 18.2486 101.304 18.5019ZM92.0316 24.208C92.0316 23.1441 91.8597 22.2215 91.5212 21.4403C91.18 20.6617 90.6933 20.0724 90.0612 19.6698C89.4291 19.2699 88.7018 19.0699 87.8819 19.0699C87.3001 19.0699 86.7605 19.1819 86.2659 19.4005C85.7687 19.6245 85.3429 19.9445 84.9858 20.3684C84.6288 20.7924 84.3485 21.3336 84.1395 21.9896C83.9359 22.6508 83.8301 23.3867 83.8301 24.2053C83.8301 25.0346 83.9332 25.7785 84.1395 26.4504C84.3485 27.117 84.6394 27.6716 85.0149 28.1115C85.3905 28.5515 85.8243 28.8795 86.3109 29.0954C86.8002 29.3167 87.3344 29.4234 87.9189 29.4234C88.6674 29.4234 89.3524 29.2341 89.9792 28.8581C90.6034 28.4822 91.1006 27.9009 91.4736 27.1117C91.8465 26.3304 92.0316 25.3572 92.0316 24.208ZM87.8819 16.7341C89.3789 16.7341 90.6616 17.0381 91.7327 17.6514C92.8039 18.2593 93.6158 19.1312 94.166 20.2564C94.7161 21.3843 94.9911 22.7068 94.9911 24.2266C94.9911 25.3492 94.8404 26.3731 94.5389 27.2903C94.2374 28.2102 93.7878 29.0048 93.1821 29.6794C92.5791 30.354 91.8385 30.8686 90.9605 31.2259C90.0797 31.5805 89.0774 31.7618 87.9427 31.7618C86.8161 31.7618 85.8031 31.5778 84.9144 31.2099C84.0205 30.8446 83.28 30.3273 82.6822 29.6607C82.0845 28.9941 81.6349 28.1915 81.3281 27.2503C81.0239 26.3117 80.8705 25.2985 80.8705 24.208C80.8705 23.0908 81.0292 22.0696 81.3466 21.1337C81.6666 20.2031 82.1242 19.4112 82.7298 18.7553C83.3302 18.102 84.0655 17.6007 84.933 17.2568C85.7978 16.9075 86.7817 16.7341 87.8819 16.7341ZM77.6042 19.2539H71.0239V22.8268H77.0832C77.5302 22.8268 77.8608 22.9281 78.0803 23.1281C78.3024 23.3281 78.4082 23.5947 78.4082 23.9227C78.4082 24.2506 78.2998 24.5226 78.0856 24.7279C77.8687 24.9332 77.5354 25.0399 77.0805 25.0399H71.0213V29.1834H77.8264C78.2866 29.1834 78.633 29.2928 78.8631 29.5061C79.0985 29.7194 79.2149 30.0073 79.2149 30.362C79.2149 30.7033 79.0985 30.9859 78.8631 31.1992C78.6304 31.4125 78.2866 31.5218 77.8264 31.5218H69.8893C69.2546 31.5218 68.797 31.3805 68.5193 31.0952C68.2416 30.8099 68.0988 30.3513 68.0988 29.7167V18.7846C68.0988 18.3606 68.1623 18.0167 68.2866 17.75C68.4109 17.4834 68.6066 17.2861 68.8711 17.1634C69.1355 17.0408 69.4741 16.9795 69.8893 16.9795H77.6016C78.067 16.9795 78.4135 17.0834 78.6383 17.2914C78.8631 17.5021 78.9769 17.7767 78.9769 18.11C78.9769 18.454 78.8631 18.7339 78.6383 18.9419C78.4162 19.1472 78.0697 19.2539 77.6042 19.2539ZM54.7134 28.1222L62.1215 19.1899H55.7555C55.3085 19.1899 54.9726 19.0912 54.7478 18.8912C54.5204 18.6913 54.4093 18.43 54.4093 18.1073C54.4093 17.7714 54.5204 17.4994 54.7478 17.2888C54.9726 17.0834 55.3085 16.9768 55.7555 16.9768H63.9597C65.0202 16.9768 65.5518 17.4781 65.5518 18.4753C65.5518 18.9526 65.4646 19.3312 65.2874 19.6165C65.1102 19.9018 64.7531 20.3604 64.2162 20.9977L57.2895 29.3034H64.9224C65.372 29.3034 65.7105 29.3994 65.9327 29.5887C66.1575 29.7754 66.2686 30.0393 66.2686 30.378C66.2686 30.7273 66.1575 31.0046 65.9327 31.2099C65.7105 31.4152 65.372 31.5192 64.9224 31.5192H55.5571C54.9224 31.5192 54.4437 31.3725 54.1236 31.0872C53.801 30.7992 53.6396 30.418 53.6396 29.9327C53.6396 29.7674 53.6661 29.6154 53.7163 29.4767C53.7692 29.3381 53.8407 29.2048 53.9279 29.0848C54.0179 28.9621 54.1395 28.8075 54.2982 28.6208C54.4569 28.4288 54.5944 28.2609 54.7134 28.1222Z" fill="#006EA1"/>
<path fill-rule="evenodd" clip-rule="evenodd" d="M21.3412 13.7611C23.4518 15.8889 23.4518 19.3365 21.3412 21.4616C19.2307 23.5894 15.8109 23.5894 13.703 21.4616C11.5925 19.3338 11.5925 15.8862 13.703 13.7611C15.8136 11.6334 19.2333 11.6334 21.3412 13.7611Z" fill="#009EE3"/>
<path fill-rule="evenodd" clip-rule="evenodd" d="M33.8617 26.3811C35.9723 28.5088 35.9723 31.9565 33.8617 34.0815C31.7512 36.2093 28.3314 36.2093 26.2235 34.0815C24.113 31.9538 24.113 28.5062 26.2235 26.3811C28.3314 24.256 31.7512 24.256 33.8617 26.3811Z" fill="#009EE3"/>
<path fill-rule="evenodd" clip-rule="evenodd" d="M33.6664 13.8171C35.777 15.9449 35.777 19.3925 33.6664 21.5176C31.5559 23.6454 28.1361 23.6454 26.0282 21.5176C23.9177 19.3898 23.9177 15.9422 26.0282 13.8171C28.1361 11.692 31.5559 11.692 33.6664 13.8171Z" fill="#006EA1"/>
<path fill-rule="evenodd" clip-rule="evenodd" d="M21.1479 26.4371C23.2584 28.5648 23.2584 32.0124 21.1479 34.1375C19.0373 36.2626 15.6176 36.2653 13.5097 34.1375C11.3991 32.0098 11.3991 28.5622 13.5097 26.4371C15.6176 24.312 19.0373 24.312 21.1479 26.4371Z" fill="#006EA1"/>
<path fill-rule="evenodd" clip-rule="evenodd" d="M8.01698 13.8065C9.789 14.0278 10.9712 16.2542 10.6618 18.7766C10.3497 21.299 8.66231 23.1628 6.89029 22.9414C5.11828 22.7201 3.93605 20.4937 4.24549 17.9713C4.55758 15.4489 6.24496 13.5825 8.01698 13.8065Z" fill="#009EE3"/>
<path fill-rule="evenodd" clip-rule="evenodd" d="M13.6319 39.9289C13.8515 38.1424 16.0599 36.9506 18.5619 37.2625C21.0638 37.5772 22.9126 39.2783 22.693 41.0648C22.4735 42.8512 20.2651 44.0431 17.7631 43.7311C15.2611 43.4192 13.4124 41.7154 13.6319 39.9289Z" fill="#006EA1"/>
<path fill-rule="evenodd" clip-rule="evenodd" d="M6.60664 25.0772C8.36807 24.7759 10.1348 26.5651 10.558 29.0714C10.9785 31.5778 9.89412 33.8522 8.13269 34.1535C6.37125 34.4548 4.60452 32.6657 4.18135 30.1593C3.76083 27.6556 4.8452 25.3785 6.60664 25.0772Z" fill="#009EE3"/>
<path fill-rule="evenodd" clip-rule="evenodd" d="M24.8961 41.2674C24.5973 39.4916 26.3719 37.7105 28.858 37.2839C31.3442 36.8599 33.6002 37.9531 33.899 39.7289C34.1979 41.5047 32.4232 43.2859 29.9371 43.7125C27.4536 44.1364 25.195 43.0432 24.8961 41.2674Z" fill="#006EA1"/>
<path fill-rule="evenodd" clip-rule="evenodd" d="M2.13194 17.0034C2.97035 17.1768 3.41467 18.6166 3.12374 20.2191C2.83282 21.8216 1.92036 22.9814 1.08196 22.8081C0.243555 22.6348 -0.200772 21.195 0.0901559 19.5925C0.381084 17.99 1.29354 16.8301 2.13194 17.0034Z" fill="#009EE3"/>
<path fill-rule="evenodd" clip-rule="evenodd" d="M16.8315 45.8349C17.0034 44.9897 18.4316 44.5417 20.0211 44.835C21.6106 45.1283 22.7611 46.0482 22.5892 46.8935C22.4173 47.7387 20.9891 48.1866 19.3996 47.8933C17.81 47.6 16.6596 46.6801 16.8315 45.8349Z" fill="#009EE3"/>
<path fill-rule="evenodd" clip-rule="evenodd" d="M1.10045 25.2559C1.94414 25.1119 2.87247 26.2931 3.17662 27.8929C3.48077 29.4927 3.04173 30.9059 2.19804 31.0499C1.35435 31.1939 0.426024 30.0127 0.121872 28.4128C-0.182281 26.813 0.256756 25.3998 1.10045 25.2559Z" fill="#009EE3"/>
<path fill-rule="evenodd" clip-rule="evenodd" d="M24.9776 46.9148C24.8348 46.0642 26.0064 45.1283 27.5933 44.8217C29.1802 44.5151 30.5819 44.9577 30.7248 45.8082C30.8676 46.6588 29.6959 47.5947 28.1091 47.9013C26.5222 48.208 25.1204 47.7654 24.9776 46.9148Z" fill="#009EE3"/>
<path fill-rule="evenodd" clip-rule="evenodd" d="M6.21591 37.0199C6.92471 36.2626 8.68351 36.8119 10.1487 38.2438C11.6139 39.6783 12.2275 41.4514 11.5214 42.2086C10.8126 42.9659 9.05378 42.4166 7.58856 40.9848C6.12334 39.5529 5.50974 37.7771 6.21591 37.0199Z" fill="#006EA1"/>
<path fill-rule="evenodd" clip-rule="evenodd" d="M36.1471 42.2913C35.396 41.5767 35.9408 39.8036 37.3611 38.3264C38.784 36.8492 40.5428 36.2306 41.2939 36.9426C42.045 37.6572 41.5002 39.4303 40.0799 40.9075C38.6597 42.3846 36.8982 43.0032 36.1471 42.2913Z" fill="#006EA1"/>
<path fill-rule="evenodd" clip-rule="evenodd" d="M39.5828 34.1402C37.8108 33.9216 36.6233 31.6978 36.9301 29.1754C37.2369 26.653 38.9216 24.7839 40.6937 25.0026C42.4657 25.2212 43.6532 27.4449 43.3464 29.9673C43.0396 32.4897 41.3549 34.3588 39.5828 34.1402Z" fill="#009EE3"/>
<path fill-rule="evenodd" clip-rule="evenodd" d="M33.8749 8.06844C33.6581 9.8549 31.4523 11.0521 28.9503 10.7428C26.4483 10.4335 24.5943 8.73503 24.8112 6.94856C25.0281 5.16209 27.2338 3.96489 29.7358 4.27419C32.2378 4.58349 34.0918 6.28197 33.8749 8.06844Z" fill="#006EA1"/>
<path fill-rule="evenodd" clip-rule="evenodd" d="M40.9077 22.9281C39.1489 23.2321 37.3769 21.4483 36.9511 18.9419C36.5253 16.4355 37.607 14.1584 39.3658 13.8545C41.1246 13.5505 42.8966 15.3343 43.3224 17.8407C43.7482 20.3444 42.6692 22.6242 40.9077 22.9281Z" fill="#009EE3"/>
<path fill-rule="evenodd" clip-rule="evenodd" d="M22.69 6.66859C22.9915 8.44172 21.2221 10.2282 18.736 10.6575C16.2499 11.0868 13.9912 9.99622 13.6897 8.22308C13.3882 6.44994 15.1576 4.66348 17.6437 4.23419C20.1298 3.80491 22.3885 4.89278 22.69 6.66859Z" fill="#006EA1"/>
<path fill-rule="evenodd" clip-rule="evenodd" d="M45.3565 31.0365C44.5181 30.8659 44.0711 29.4261 44.3568 27.8236C44.6424 26.2211 45.5548 25.0585 46.3933 25.2319C47.2317 25.4025 47.6786 26.8423 47.393 28.4448C47.1073 30.0473 46.1949 31.2099 45.3565 31.0365Z" fill="#009EE3"/>
<path fill-rule="evenodd" clip-rule="evenodd" d="M30.6937 2.14109C30.5244 2.98633 29.0962 3.43695 27.5067 3.14898C25.9171 2.86101 24.764 1.94111 24.9359 1.09587C25.1052 0.250633 26.5334 -0.199984 28.1229 0.0879844C29.7124 0.375953 30.8629 1.29585 30.6937 2.14109Z" fill="#009EE3"/>
<path fill-rule="evenodd" clip-rule="evenodd" d="M46.4296 22.7228C45.5859 22.8668 44.655 21.6883 44.3482 20.0884C44.0414 18.4886 44.4778 17.0754 45.3215 16.9288C46.1652 16.7848 47.0961 17.9633 47.4029 19.5632C47.7071 21.1657 47.2733 22.5788 46.4296 22.7228Z" fill="#009EE3"/>
<path fill-rule="evenodd" clip-rule="evenodd" d="M22.5021 1.1172C22.645 1.96777 21.4759 2.90634 19.8891 3.21564C18.3022 3.52494 16.9004 3.08498 16.755 2.23441C16.6122 1.38384 17.7812 0.445276 19.368 0.135977C20.9576 -0.170656 22.3593 0.266629 22.5021 1.1172Z" fill="#009EE3"/>
<path fill-rule="evenodd" clip-rule="evenodd" d="M36.6331 6.35662C37.3419 5.59937 39.1007 6.14864 40.5659 7.58049C42.0311 9.015 42.6447 10.7881 41.9386 11.5454C41.2297 12.3026 39.471 11.7534 38.0057 10.3215C36.5405 8.88701 35.9243 7.11387 36.6331 6.35662Z" fill="#006EA1"/>
<path fill-rule="evenodd" clip-rule="evenodd" d="M5.73207 11.6254C4.98095 10.9108 5.52578 9.13765 6.94604 7.66048C8.36894 6.18331 10.1277 5.56471 10.8789 6.27663C11.63 6.99122 11.0852 8.76436 9.66489 10.2415C8.24199 11.7187 6.48055 12.34 5.73207 11.6254Z" fill="#006EA1"/>
</svg>
