<svg width="511" height="298" viewBox="0 0 511 298" fill="none" xmlns="http://www.w3.org/2000/svg">
<path d="M21.088 28.024C18.848 30.264 16.1067 31.384 12.864 31.384C9.62133 31.384 6.88 30.264 4.64 28.024C2.4 25.7413 1.28 23 1.28 19.8C1.28 16.5787 2.4 13.848 4.64 11.608C6.88 9.34667 9.62133 8.216 12.864 8.216C16.1067 8.216 18.848 9.34667 21.088 11.608C23.328 13.848 24.448 16.5787 24.448 19.8C24.448 23 23.328 25.7413 21.088 28.024ZM3.52 19.8C3.52 22.4453 4.416 24.6747 6.208 26.488C8 28.3013 10.2187 29.208 12.864 29.208C15.5093 29.208 17.728 28.3013 19.52 26.488C21.312 24.6747 22.208 22.4453 22.208 19.8C22.208 17.176 21.312 14.9573 19.52 13.144C17.728 11.3093 15.5093 10.392 12.864 10.392C10.2187 10.392 8 11.3093 6.208 13.144C4.416 14.9573 3.52 17.176 3.52 19.8ZM39.379 23.384V15H41.491V31H39.379V28.504C38.1843 30.424 36.3923 31.384 34.003 31.384C32.083 31.384 30.5577 30.7973 29.427 29.624C28.2963 28.4293 27.731 26.8293 27.731 24.824V15H29.843V24.824C29.843 26.2533 30.2163 27.3627 30.963 28.152C31.731 28.9413 32.8083 29.336 34.195 29.336C35.795 29.336 37.0537 28.8347 37.971 27.832C38.9097 26.8293 39.379 25.3467 39.379 23.384ZM48.0708 15V17.656C49.0521 15.7147 50.7374 14.744 53.1267 14.744V16.792C51.5908 16.792 50.3641 17.24 49.4468 18.136C48.5294 19.0107 48.0708 20.3333 48.0708 22.104V31H45.9588V15H48.0708ZM71.4133 14.616C73.8026 14.616 75.7119 15.4587 77.1413 17.144C78.6133 18.808 79.3493 20.7813 79.3493 23.064C79.3493 23.1707 79.3279 23.5013 79.2853 24.056H65.2373C65.4506 25.656 66.1333 26.936 67.2853 27.896C68.4373 28.856 69.8773 29.336 71.6053 29.336C74.0373 29.336 75.7546 28.4293 76.7573 26.616L78.6133 27.704C77.9093 28.856 76.9386 29.7627 75.7013 30.424C74.4853 31.064 73.1093 31.384 71.5733 31.384C69.0559 31.384 67.0079 30.5947 65.4293 29.016C63.8506 27.4373 63.0613 25.432 63.0613 23C63.0613 20.5893 63.8399 18.5947 65.3973 17.016C66.9546 15.416 68.9599 14.616 71.4133 14.616ZM71.4133 16.664C69.7493 16.664 68.3519 17.1547 67.2213 18.136C66.1119 19.1173 65.4506 20.408 65.2373 22.008H77.1733C76.9386 20.3013 76.2879 18.9893 75.2213 18.072C74.1119 17.1333 72.8426 16.664 71.4133 16.664ZM99.7648 14.616C101.578 14.616 103.029 15.192 104.117 16.344C105.205 17.496 105.749 19.0533 105.749 21.016V31H103.637V21.016C103.637 19.6507 103.285 18.584 102.581 17.816C101.877 17.048 100.927 16.664 99.7328 16.664C98.3461 16.664 97.2581 17.1227 96.4688 18.04C95.6794 18.9573 95.2848 20.3227 95.2848 22.136V31H93.1728V21.016C93.1728 19.6293 92.8421 18.5627 92.1808 17.816C91.5194 17.048 90.6021 16.664 89.4288 16.664C88.0848 16.664 86.9754 17.1333 86.1008 18.072C85.2474 19.0107 84.8208 20.3653 84.8208 22.136V31H82.7088V15H84.8208V17.336C85.9728 15.5227 87.6048 14.616 89.7168 14.616C92.0421 14.616 93.6634 15.5867 94.5808 17.528C95.7328 15.5867 97.4608 14.616 99.7648 14.616ZM118.41 14.616C120.692 14.616 122.634 15.4267 124.234 17.048C125.855 18.6693 126.666 20.6533 126.666 23C126.666 25.3467 125.855 27.3307 124.234 28.952C122.634 30.5733 120.692 31.384 118.41 31.384C115.572 31.384 113.418 30.2107 111.946 27.864V37.4H109.834V15H111.946V18.136C113.418 15.7893 115.572 14.616 118.41 14.616ZM113.77 27.512C114.986 28.728 116.479 29.336 118.25 29.336C120.02 29.336 121.514 28.728 122.73 27.512C123.946 26.2533 124.554 24.7493 124.554 23C124.554 21.2293 123.946 19.736 122.73 18.52C121.514 17.2827 120.02 16.664 118.25 16.664C116.479 16.664 114.986 17.2827 113.77 18.52C112.554 19.736 111.946 21.2293 111.946 23C111.946 24.7493 112.554 26.2533 113.77 27.512ZM132.29 31H130.178V7.64H132.29V31ZM150.179 28.984C148.537 30.584 146.553 31.384 144.227 31.384C141.859 31.384 139.865 30.584 138.243 28.984C136.622 27.3627 135.811 25.368 135.811 23C135.811 20.632 136.622 18.648 138.243 17.048C139.865 15.4267 141.859 14.616 144.227 14.616C146.574 14.616 148.558 15.4267 150.179 17.048C151.822 18.648 152.643 20.632 152.643 23C152.643 25.3467 151.822 27.3413 150.179 28.984ZM139.747 27.512C140.963 28.728 142.457 29.336 144.227 29.336C145.998 29.336 147.491 28.728 148.707 27.512C149.923 26.2533 150.531 24.7493 150.531 23C150.531 21.2293 149.923 19.736 148.707 18.52C147.491 17.2827 145.998 16.664 144.227 16.664C142.457 16.664 140.963 17.2827 139.747 18.52C138.531 19.736 137.923 21.2293 137.923 23C137.923 24.7493 138.531 26.2533 139.747 27.512ZM161.889 28.408L167.073 15H169.312L162.465 32.472C161.825 34.0933 160.929 35.3413 159.777 36.216C158.646 37.112 157.387 37.5067 156.001 37.4V35.416C157.921 35.6507 159.382 34.5413 160.385 32.088L160.801 31.096L153.633 15H155.873L161.889 28.408ZM178.632 14.616C181.021 14.616 182.931 15.4587 184.36 17.144C185.832 18.808 186.568 20.7813 186.568 23.064C186.568 23.1707 186.547 23.5013 186.504 24.056H172.456C172.669 25.656 173.352 26.936 174.504 27.896C175.656 28.856 177.096 29.336 178.824 29.336C181.256 29.336 182.973 28.4293 183.976 26.616L185.832 27.704C185.128 28.856 184.157 29.7627 182.92 30.424C181.704 31.064 180.328 31.384 178.792 31.384C176.275 31.384 174.227 30.5947 172.648 29.016C171.069 27.4373 170.28 25.432 170.28 23C170.28 20.5893 171.059 18.5947 172.616 17.016C174.173 15.416 176.179 14.616 178.632 14.616ZM178.632 16.664C176.968 16.664 175.571 17.1547 174.44 18.136C173.331 19.1173 172.669 20.408 172.456 22.008H184.392C184.157 20.3013 183.507 18.9893 182.44 18.072C181.331 17.1333 180.061 16.664 178.632 16.664ZM192.04 15V17.656C193.021 15.7147 194.706 14.744 197.095 14.744V16.792C195.56 16.792 194.333 17.24 193.416 18.136C192.498 19.0107 192.04 20.3333 192.04 22.104V31H189.928V15H192.04ZM201.029 19.192C201.029 20.4293 202.128 21.336 204.325 21.912C204.944 22.0613 205.349 22.168 205.541 22.232C205.733 22.2747 206.106 22.392 206.661 22.584C207.237 22.7547 207.632 22.904 207.845 23.032C208.08 23.16 208.4 23.3627 208.805 23.64C209.21 23.896 209.498 24.1627 209.669 24.44C209.84 24.696 210 25.0373 210.149 25.464C210.298 25.8693 210.373 26.3067 210.373 26.776C210.373 28.1413 209.829 29.2507 208.741 30.104C207.696 30.9573 206.309 31.384 204.581 31.384C203.088 31.384 201.797 31.0533 200.709 30.392C199.621 29.7093 198.853 28.8133 198.405 27.704L200.197 26.648C200.496 27.48 201.029 28.1413 201.797 28.632C202.586 29.1013 203.514 29.336 204.581 29.336C205.669 29.336 206.554 29.1227 207.237 28.696C207.92 28.2693 208.261 27.6293 208.261 26.776C208.261 25.5387 207.162 24.632 204.965 24.056C204.346 23.9067 203.941 23.8107 203.749 23.768C203.557 23.704 203.173 23.5867 202.597 23.416C202.042 23.224 201.648 23.064 201.413 22.936C201.2 22.808 200.89 22.616 200.485 22.36C200.08 22.0827 199.792 21.816 199.621 21.56C199.45 21.2827 199.29 20.9413 199.141 20.536C198.992 20.1093 198.917 19.6613 198.917 19.192C198.917 17.8907 199.429 16.8027 200.453 15.928C201.52 15.0533 202.832 14.616 204.389 14.616C205.669 14.616 206.8 14.904 207.781 15.48C208.784 16.056 209.52 16.856 209.989 17.88L208.229 18.904C207.632 17.4107 206.352 16.664 204.389 16.664C203.429 16.664 202.629 16.888 201.989 17.336C201.349 17.784 201.029 18.4027 201.029 19.192ZM237.224 28.28L241.16 15H243.336L238.408 31H236.104L231.976 18.104L227.848 31H225.544L220.616 15H222.792L226.728 28.28L230.92 15H233.032L237.224 28.28ZM259.304 28.984C257.662 30.584 255.678 31.384 253.352 31.384C250.984 31.384 248.99 30.584 247.368 28.984C245.747 27.3627 244.936 25.368 244.936 23C244.936 20.632 245.747 18.648 247.368 17.048C248.99 15.4267 250.984 14.616 253.352 14.616C255.699 14.616 257.683 15.4267 259.304 17.048C260.947 18.648 261.768 20.632 261.768 23C261.768 25.3467 260.947 27.3413 259.304 28.984ZM248.872 27.512C250.088 28.728 251.582 29.336 253.352 29.336C255.123 29.336 256.616 28.728 257.832 27.512C259.048 26.2533 259.656 24.7493 259.656 23C259.656 21.2293 259.048 19.736 257.832 18.52C256.616 17.2827 255.123 16.664 253.352 16.664C251.582 16.664 250.088 17.2827 248.872 18.52C247.656 19.736 247.048 21.2293 247.048 23C247.048 24.7493 247.656 26.2533 248.872 27.512ZM267.415 15V17.656C268.396 15.7147 270.081 14.744 272.47 14.744V16.792C270.935 16.792 269.708 17.24 268.791 18.136C267.873 19.0107 267.415 20.3333 267.415 22.104V31H265.303V15H267.415ZM279.717 22.68L288.293 31H285.477L277.477 23.288V31H275.365V8.6H277.477V22.072L285.093 15H287.973L279.717 22.68ZM29.26 92H22.66L20.812 86.456H8.536L6.688 92H0.132L10.912 61.2H18.436L29.26 92ZM14.696 68.196L10.472 80.78H18.92L14.696 68.196ZM37.6626 92H31.9866V59.88H37.6626V92ZM48.5337 92H42.8577V59.88H48.5337V92ZM90.9088 87.996C87.7995 91.076 84.0155 92.616 79.5568 92.616C75.0981 92.616 71.3141 91.076 68.2048 87.996C65.1248 84.8573 63.5848 81.0587 63.5848 76.6C63.5848 72.112 65.1248 68.328 68.2048 65.248C71.3141 62.1387 75.0981 60.584 79.5568 60.584C84.0155 60.584 87.7995 62.1387 90.9088 65.248C94.0181 68.328 95.5728 72.112 95.5728 76.6C95.5728 81.088 94.0181 84.8867 90.9088 87.996ZM72.4728 83.86C74.3501 85.7373 76.7115 86.676 79.5568 86.676C82.4021 86.676 84.7635 85.7373 86.6408 83.86C88.5475 81.9533 89.5008 79.5333 89.5008 76.6C89.5008 73.6667 88.5475 71.2467 86.6408 69.34C84.7341 67.4333 82.3728 66.48 79.5568 66.48C76.7408 66.48 74.3795 67.4333 72.4728 69.34C70.5661 71.2467 69.6128 73.6667 69.6128 76.6C69.6128 79.5333 70.5661 81.9533 72.4728 83.86ZM108.684 85.4L114.052 70H120.3L111.94 92H105.472L97.1125 70H103.36L108.684 85.4ZM143.562 83.332H126.974C127.707 86.0893 129.775 87.468 133.178 87.468C135.349 87.468 136.991 86.7347 138.106 85.268L142.682 87.908C140.511 91.0467 137.314 92.616 133.09 92.616C129.453 92.616 126.534 91.516 124.334 89.316C122.134 87.116 121.034 84.344 121.034 81C121.034 77.7147 122.119 74.9573 124.29 72.728C126.431 70.4987 129.218 69.384 132.65 69.384C135.906 69.384 138.561 70.4987 140.614 72.728C142.726 74.9573 143.782 77.7147 143.782 81C143.782 81.616 143.709 82.3933 143.562 83.332ZM126.886 78.932H138.106C137.783 77.4947 137.123 76.3947 136.126 75.632C135.158 74.8693 133.999 74.488 132.65 74.488C131.125 74.488 129.863 74.884 128.866 75.676C127.869 76.4387 127.209 77.524 126.886 78.932ZM153.42 70V73.784C153.919 72.4053 154.77 71.364 155.972 70.66C157.175 69.9267 158.554 69.56 160.108 69.56V75.896C158.378 75.6613 156.823 76.0133 155.444 76.952C154.095 77.8613 153.42 79.372 153.42 81.484V92H147.744V70H153.42ZM172.404 61.2H195.064V67.008H186.748V92H180.676V67.008H172.404V61.2ZM210.422 69.384C212.856 69.384 214.836 70.1907 216.362 71.804C217.946 73.4467 218.738 75.676 218.738 78.492V92H213.062V79.196C213.062 77.7587 212.666 76.644 211.874 75.852C211.111 75.06 210.055 74.664 208.706 74.664C207.21 74.664 206.022 75.1333 205.142 76.072C204.291 76.9813 203.866 78.3307 203.866 80.12V92H198.19V61.2H203.866V72.464C205.215 70.4107 207.4 69.384 210.422 69.384ZM244.968 83.332H228.38C229.114 86.0893 231.182 87.468 234.584 87.468C236.755 87.468 238.398 86.7347 239.512 85.268L244.088 87.908C241.918 91.0467 238.72 92.616 234.496 92.616C230.859 92.616 227.94 91.516 225.74 89.316C223.54 87.116 222.44 84.344 222.44 81C222.44 77.7147 223.526 74.9573 225.696 72.728C227.838 70.4987 230.624 69.384 234.056 69.384C237.312 69.384 239.967 70.4987 242.02 72.728C244.132 74.9573 245.188 77.7147 245.188 81C245.188 81.616 245.115 82.3933 244.968 83.332ZM228.292 78.932H239.512C239.19 77.4947 238.53 76.3947 237.532 75.632C236.564 74.8693 235.406 74.488 234.056 74.488C232.531 74.488 231.27 74.884 230.272 75.676C229.275 76.4387 228.615 77.524 228.292 78.932ZM273.747 92H266.839L258.215 61.2H264.595L270.491 84.036L276.915 61.2H282.107L288.575 84.036L294.471 61.2H300.851L292.227 92H285.319L279.511 71.672L273.747 92ZM320.231 89.272C318.001 91.5013 315.244 92.616 311.959 92.616C308.673 92.616 305.916 91.5013 303.687 89.272C301.457 87.0427 300.343 84.2853 300.343 81C300.343 77.744 301.457 75.0013 303.687 72.772C305.945 70.5133 308.703 69.384 311.959 69.384C315.215 69.384 317.972 70.5133 320.231 72.772C322.489 75.0307 323.619 77.7733 323.619 81C323.619 84.256 322.489 87.0133 320.231 89.272ZM307.691 85.356C308.835 86.5 310.257 87.072 311.959 87.072C313.66 87.072 315.083 86.5 316.227 85.356C317.371 84.212 317.943 82.76 317.943 81C317.943 79.24 317.371 77.788 316.227 76.644C315.083 75.5 313.66 74.928 311.959 74.928C310.257 74.928 308.835 75.5 307.691 76.644C306.576 77.8173 306.019 79.2693 306.019 81C306.019 82.7307 306.576 84.1827 307.691 85.356ZM333.288 70V73.784C333.786 72.4053 334.637 71.364 335.84 70.66C337.042 69.9267 338.421 69.56 339.976 69.56V75.896C338.245 75.6613 336.69 76.0133 335.312 76.952C333.962 77.8613 333.288 79.372 333.288 81.484V92H327.612V70H333.288ZM348.971 92H343.295V59.88H348.971V92ZM370.842 72.596V61.2H376.518V92H370.842V89.404C369.17 91.5453 366.794 92.616 363.714 92.616C360.752 92.616 358.214 91.5013 356.102 89.272C354.02 87.0133 352.978 84.256 352.978 81C352.978 77.7733 354.02 75.0307 356.102 72.772C358.214 70.5133 360.752 69.384 363.714 69.384C366.794 69.384 369.17 70.4547 370.842 72.596ZM360.37 85.488C361.573 86.632 363.04 87.204 364.77 87.204C366.53 87.204 367.982 86.632 369.126 85.488C370.27 84.3147 370.842 82.8187 370.842 81C370.842 79.1813 370.27 77.7 369.126 76.556C367.982 75.3827 366.53 74.796 364.77 74.796C363.01 74.796 361.544 75.3827 360.37 76.556C359.226 77.7 358.654 79.1813 358.654 81C358.654 82.8187 359.226 84.3147 360.37 85.488Z" fill="white"/>
<path d="M10.624 151.496C9.504 152.616 8.13867 153.176 6.528 153.176C4.91733 153.176 3.552 152.616 2.432 151.496C1.312 150.365 0.752 149 0.752 147.4C0.752 145.8 1.312 144.44 2.432 143.32C3.552 142.189 4.91733 141.624 6.528 141.624C8.13867 141.624 9.504 142.189 10.624 143.32C11.744 144.44 12.304 145.8 12.304 147.4C12.304 149 11.744 150.365 10.624 151.496ZM3.024 150.92C3.984 151.88 5.152 152.36 6.528 152.36C7.91467 152.36 9.07733 151.88 10.016 150.92C10.976 149.939 11.456 148.765 11.456 147.4C11.456 146.024 10.976 144.856 10.016 143.896C9.07733 142.925 7.91467 142.44 6.528 142.44C5.152 142.44 3.984 142.925 3.024 143.896C2.07467 144.867 1.6 146.035 1.6 147.4C1.6 148.765 2.07467 149.939 3.024 150.92ZM20.1014 149.224V145H20.9014V153H20.1014V151.48C19.5254 152.611 18.5707 153.176 17.2374 153.176C16.288 153.176 15.5307 152.888 14.9654 152.312C14.4107 151.725 14.1334 150.947 14.1334 149.976V145H14.9494V149.976C14.9494 150.723 15.1574 151.315 15.5734 151.752C15.9894 152.189 16.5654 152.408 17.3014 152.408C18.144 152.408 18.8214 152.131 19.3334 151.576C19.8454 151.021 20.1014 150.237 20.1014 149.224ZM24.1726 145V146.568C24.6526 145.448 25.5433 144.888 26.8446 144.888V145.656C26.0553 145.656 25.41 145.907 24.9086 146.408C24.418 146.909 24.1726 147.624 24.1726 148.552V153H23.3726V145H24.1726ZM36.332 144.824C37.5053 144.824 38.4547 145.24 39.18 146.072C39.916 146.904 40.284 147.891 40.284 149.032C40.284 149.053 40.2787 149.117 40.268 149.224C40.268 149.331 40.268 149.395 40.268 149.416H33.02C33.116 150.312 33.4733 151.037 34.092 151.592C34.7107 152.136 35.484 152.408 36.412 152.408C37.0413 152.408 37.596 152.28 38.076 152.024C38.556 151.757 38.924 151.4 39.18 150.952L39.884 151.368C39.5533 151.923 39.0787 152.365 38.46 152.696C37.852 153.016 37.164 153.176 36.396 153.176C35.1587 153.176 34.1507 152.787 33.372 152.008C32.5827 151.219 32.188 150.216 32.188 149C32.188 147.805 32.572 146.813 33.34 146.024C34.1293 145.224 35.1267 144.824 36.332 144.824ZM36.332 145.592C35.436 145.592 34.6787 145.875 34.06 146.44C33.452 147.005 33.1053 147.736 33.02 148.632H39.452C39.3667 147.683 39.0253 146.941 38.428 146.408C37.8307 145.864 37.132 145.592 36.332 145.592ZM50.6979 144.824C51.5832 144.824 52.2872 145.101 52.8099 145.656C53.3432 146.2 53.6099 146.957 53.6099 147.928V153H52.8099V147.928C52.8099 147.192 52.6179 146.621 52.2339 146.216C51.8499 145.8 51.3325 145.592 50.6819 145.592C49.9459 145.592 49.3592 145.843 48.9219 146.344C48.4952 146.845 48.2819 147.576 48.2819 148.536V153H47.4819V147.928C47.4819 147.192 47.3005 146.621 46.9379 146.216C46.5752 145.8 46.0739 145.592 45.4339 145.592C44.6979 145.592 44.1005 145.848 43.6419 146.36C43.1832 146.872 42.9539 147.597 42.9539 148.536V153H42.1539V145H42.9539V146.376C43.5085 145.341 44.3672 144.824 45.5299 144.824C46.1165 144.824 46.6285 144.968 47.0659 145.256C47.5032 145.533 47.8232 145.933 48.0259 146.456C48.3032 145.923 48.6765 145.517 49.1459 145.24C49.6152 144.963 50.1325 144.824 50.6979 144.824ZM60.1126 144.824C61.2646 144.824 62.2406 145.229 63.0406 146.04C63.8513 146.84 64.2566 147.827 64.2566 149C64.2566 150.173 63.8513 151.165 63.0406 151.976C62.2406 152.776 61.2646 153.176 60.1126 153.176C59.3553 153.176 58.6726 153 58.0646 152.648C57.4673 152.285 57.0033 151.784 56.6726 151.144V156.2H55.8726V145H56.6726V146.856C57.0033 146.216 57.4673 145.72 58.0646 145.368C58.6726 145.005 59.3553 144.824 60.1126 144.824ZM57.6486 151.416C58.31 152.077 59.1153 152.408 60.0646 152.408C61.0033 152.408 61.8033 152.077 62.4646 151.416C63.126 150.755 63.4566 149.949 63.4566 149C63.4566 148.051 63.126 147.245 62.4646 146.584C61.8033 145.923 61.0033 145.592 60.0646 145.592C59.1153 145.592 58.31 145.923 57.6486 146.584C56.998 147.235 56.6726 148.04 56.6726 149C56.6726 149.96 56.998 150.765 57.6486 151.416ZM66.9851 153H66.1851V141.32H66.9851V153ZM73.1148 153.176C71.9414 153.176 70.9441 152.776 70.1228 151.976C69.3121 151.165 68.9068 150.173 68.9068 149C68.9068 147.827 69.3121 146.84 70.1228 146.04C70.9334 145.229 71.9308 144.824 73.1148 144.824C74.2774 144.824 75.2641 145.229 76.0748 146.04C76.8961 146.84 77.3068 147.827 77.3068 149C77.3068 150.163 76.8961 151.155 76.0748 151.976C75.2534 152.776 74.2668 153.176 73.1148 153.176ZM70.6988 151.416C71.3601 152.077 72.1654 152.408 73.1148 152.408C74.0534 152.408 74.8534 152.077 75.5148 151.416C76.1654 150.765 76.4908 149.96 76.4908 149C76.4908 148.04 76.1654 147.235 75.5148 146.584C74.8534 145.923 74.0534 145.592 73.1148 145.592C72.1654 145.592 71.3601 145.923 70.6988 146.584C70.0481 147.235 69.7228 148.04 69.7228 149C69.7228 149.96 70.0481 150.765 70.6988 151.416ZM81.9915 152.12L84.7755 145H85.6395L82.1835 153.736C81.8635 154.536 81.4208 155.16 80.8555 155.608C80.2902 156.056 79.6768 156.253 79.0155 156.2V155.448C79.5168 155.491 79.9755 155.347 80.3915 155.016C80.8075 154.685 81.1435 154.205 81.3995 153.576L81.5755 153.144L77.8955 145H78.7595L81.9915 152.12ZM90.3633 144.824C91.5366 144.824 92.4859 145.24 93.2113 146.072C93.9473 146.904 94.3153 147.891 94.3153 149.032C94.3153 149.053 94.3099 149.117 94.2993 149.224C94.2993 149.331 94.2993 149.395 94.2993 149.416H87.0513C87.1473 150.312 87.5046 151.037 88.1233 151.592C88.7419 152.136 89.5153 152.408 90.4433 152.408C91.0726 152.408 91.6273 152.28 92.1073 152.024C92.5873 151.757 92.9553 151.4 93.2113 150.952L93.9153 151.368C93.5846 151.923 93.1099 152.365 92.4913 152.696C91.8833 153.016 91.1953 153.176 90.4273 153.176C89.1899 153.176 88.1819 152.787 87.4033 152.008C86.6139 151.219 86.2193 150.216 86.2193 149C86.2193 147.805 86.6033 146.813 87.3713 146.024C88.1606 145.224 89.1579 144.824 90.3633 144.824ZM90.3633 145.592C89.4673 145.592 88.7099 145.875 88.0913 146.44C87.4833 147.005 87.1366 147.736 87.0513 148.632H93.4833C93.3979 147.683 93.0566 146.941 92.4593 146.408C91.8619 145.864 91.1633 145.592 90.3633 145.592ZM99.7851 144.824C100.958 144.824 101.908 145.24 102.633 146.072C103.369 146.904 103.737 147.891 103.737 149.032C103.737 149.053 103.732 149.117 103.721 149.224C103.721 149.331 103.721 149.395 103.721 149.416H96.4731C96.5691 150.312 96.9265 151.037 97.5451 151.592C98.1638 152.136 98.9371 152.408 99.8651 152.408C100.494 152.408 101.049 152.28 101.529 152.024C102.009 151.757 102.377 151.4 102.633 150.952L103.337 151.368C103.006 151.923 102.532 152.365 101.913 152.696C101.305 153.016 100.617 153.176 99.8491 153.176C98.6118 153.176 97.6038 152.787 96.8251 152.008C96.0358 151.219 95.6411 150.216 95.6411 149C95.6411 147.805 96.0251 146.813 96.7931 146.024C97.5825 145.224 98.5798 144.824 99.7851 144.824ZM99.7851 145.592C98.8891 145.592 98.1318 145.875 97.5131 146.44C96.9051 147.005 96.5585 147.736 96.4731 148.632H102.905C102.82 147.683 102.478 146.941 101.881 146.408C101.284 145.864 100.585 145.592 99.7851 145.592ZM105.839 147.096C105.839 147.768 106.409 148.248 107.551 148.536C107.881 148.611 108.121 148.669 108.271 148.712C108.431 148.744 108.66 148.808 108.959 148.904C109.268 148.989 109.497 149.085 109.647 149.192C109.807 149.299 109.977 149.432 110.159 149.592C110.351 149.752 110.484 149.944 110.559 150.168C110.644 150.381 110.687 150.627 110.687 150.904C110.687 151.576 110.42 152.125 109.887 152.552C109.364 152.968 108.676 153.176 107.823 153.176C107.065 153.176 106.42 153.016 105.887 152.696C105.353 152.376 104.985 151.944 104.783 151.4L105.471 151C105.62 151.448 105.897 151.795 106.303 152.04C106.719 152.285 107.225 152.408 107.823 152.408C108.441 152.408 108.937 152.275 109.311 152.008C109.695 151.741 109.887 151.373 109.887 150.904C109.887 150.179 109.316 149.693 108.174 149.448C107.108 149.192 106.393 148.957 106.031 148.744C105.369 148.36 105.039 147.811 105.039 147.096C105.039 146.456 105.289 145.917 105.791 145.48C106.313 145.043 106.969 144.824 107.759 144.824C108.388 144.824 108.943 144.968 109.423 145.256C109.903 145.544 110.255 145.933 110.479 146.424L109.807 146.808C109.647 146.424 109.38 146.125 109.007 145.912C108.644 145.699 108.228 145.592 107.759 145.592C107.204 145.592 106.745 145.731 106.383 146.008C106.02 146.285 105.839 146.648 105.839 147.096ZM117.432 147.096C117.432 147.768 118.003 148.248 119.144 148.536C119.475 148.611 119.715 148.669 119.864 148.712C120.024 148.744 120.254 148.808 120.552 148.904C120.862 148.989 121.091 149.085 121.24 149.192C121.4 149.299 121.571 149.432 121.752 149.592C121.944 149.752 122.078 149.944 122.152 150.168C122.238 150.381 122.28 150.627 122.28 150.904C122.28 151.576 122.014 152.125 121.48 152.552C120.958 152.968 120.27 153.176 119.416 153.176C118.659 153.176 118.014 153.016 117.48 152.696C116.947 152.376 116.579 151.944 116.376 151.4L117.064 151C117.214 151.448 117.491 151.795 117.896 152.04C118.312 152.285 118.819 152.408 119.416 152.408C120.035 152.408 120.531 152.275 120.904 152.008C121.288 151.741 121.48 151.373 121.48 150.904C121.48 150.179 120.91 149.693 119.768 149.448C118.702 149.192 117.987 148.957 117.624 148.744C116.963 148.36 116.632 147.811 116.632 147.096C116.632 146.456 116.883 145.917 117.384 145.48C117.907 145.043 118.563 144.824 119.352 144.824C119.982 144.824 120.536 144.968 121.016 145.256C121.496 145.544 121.848 145.933 122.072 146.424L121.4 146.808C121.24 146.424 120.974 146.125 120.6 145.912C120.238 145.699 119.822 145.592 119.352 145.592C118.798 145.592 118.339 145.731 117.976 146.008C117.614 146.285 117.432 146.648 117.432 147.096ZM128 145V145.784H125.616V150.984C125.616 151.635 125.787 152.035 126.128 152.184C126.48 152.333 127.104 152.365 128 152.28V153C126.901 153.16 126.091 153.085 125.568 152.776C125.056 152.456 124.8 151.859 124.8 150.984V145.784H123.04V145H124.8V143L125.616 142.76V145H128ZM130.72 145V146.568C131.2 145.448 132.09 144.888 133.391 144.888V145.656C132.602 145.656 131.957 145.907 131.456 146.408C130.965 146.909 130.72 147.624 130.72 148.552V153H129.92V145H130.72ZM134.773 142.424C134.763 142.168 134.864 141.992 135.077 141.896C135.301 141.789 135.52 141.789 135.733 141.896C135.957 141.992 136.064 142.168 136.053 142.424C136.064 142.691 135.957 142.877 135.733 142.984C135.52 143.091 135.301 143.091 135.077 142.984C134.864 142.877 134.763 142.691 134.773 142.424ZM135.813 153H135.013V145H135.813V153ZM141.127 152.168L144.151 145H144.999L141.623 153H140.647L137.255 145H138.119L141.127 152.168ZM149.738 144.824C150.912 144.824 151.861 145.24 152.586 146.072C153.322 146.904 153.69 147.891 153.69 149.032C153.69 149.053 153.685 149.117 153.674 149.224C153.674 149.331 153.674 149.395 153.674 149.416H146.426C146.522 150.312 146.88 151.037 147.498 151.592C148.117 152.136 148.89 152.408 149.818 152.408C150.448 152.408 151.002 152.28 151.482 152.024C151.962 151.757 152.33 151.4 152.586 150.952L153.29 151.368C152.96 151.923 152.485 152.365 151.866 152.696C151.258 153.016 150.57 153.176 149.802 153.176C148.565 153.176 147.557 152.787 146.778 152.008C145.989 151.219 145.594 150.216 145.594 149C145.594 147.805 145.978 146.813 146.746 146.024C147.536 145.224 148.533 144.824 149.738 144.824ZM149.738 145.592C148.842 145.592 148.085 145.875 147.466 146.44C146.858 147.005 146.512 147.736 146.426 148.632H152.858C152.773 147.683 152.432 146.941 151.834 146.408C151.237 145.864 150.538 145.592 149.738 145.592ZM163.602 141.624V142.392C162.012 142.264 161.218 142.989 161.218 144.568V145H163.602V145.784H161.218V153H160.402V145.784H159.026V145H160.402V144.568C160.402 143.565 160.679 142.808 161.234 142.296C161.788 141.773 162.578 141.549 163.602 141.624ZM167.974 153.176C166.801 153.176 165.803 152.776 164.982 151.976C164.171 151.165 163.766 150.173 163.766 149C163.766 147.827 164.171 146.84 164.982 146.04C165.793 145.229 166.79 144.824 167.974 144.824C169.137 144.824 170.123 145.229 170.934 146.04C171.755 146.84 172.166 147.827 172.166 149C172.166 150.163 171.755 151.155 170.934 151.976C170.113 152.776 169.126 153.176 167.974 153.176ZM165.558 151.416C166.219 152.077 167.025 152.408 167.974 152.408C168.913 152.408 169.713 152.077 170.374 151.416C171.025 150.765 171.35 149.96 171.35 149C171.35 148.04 171.025 147.235 170.374 146.584C169.713 145.923 168.913 145.592 167.974 145.592C167.025 145.592 166.219 145.923 165.558 146.584C164.907 147.235 164.582 148.04 164.582 149C164.582 149.96 164.907 150.765 165.558 151.416ZM174.891 145V146.568C175.371 145.448 176.262 144.888 177.563 144.888V145.656C176.774 145.656 176.129 145.907 175.627 146.408C175.137 146.909 174.891 147.624 174.891 148.552V153H174.091V145H174.891ZM187.547 145V145.784H185.163V150.984C185.163 151.635 185.333 152.035 185.675 152.184C186.027 152.333 186.651 152.365 187.547 152.28V153C186.448 153.16 185.637 153.085 185.115 152.776C184.603 152.456 184.347 151.859 184.347 150.984V145.784H182.587V145H184.347V143L185.163 142.76V145H187.547ZM193.13 144.824C194.08 144.824 194.832 145.117 195.386 145.704C195.952 146.28 196.234 147.053 196.234 148.024V153H195.418V148.024C195.418 147.277 195.21 146.685 194.794 146.248C194.378 145.811 193.802 145.592 193.066 145.592C192.224 145.592 191.546 145.869 191.034 146.424C190.522 146.979 190.266 147.763 190.266 148.776V153H189.466V141.8H190.266V146.52C190.842 145.389 191.797 144.824 193.13 144.824ZM202.098 144.824C203.271 144.824 204.22 145.24 204.946 146.072C205.682 146.904 206.05 147.891 206.05 149.032C206.05 149.053 206.044 149.117 206.034 149.224C206.034 149.331 206.034 149.395 206.034 149.416H198.786C198.882 150.312 199.239 151.037 199.858 151.592C200.476 152.136 201.25 152.408 202.178 152.408C202.807 152.408 203.362 152.28 203.842 152.024C204.322 151.757 204.69 151.4 204.946 150.952L205.65 151.368C205.319 151.923 204.844 152.365 204.226 152.696C203.618 153.016 202.93 153.176 202.162 153.176C200.924 153.176 199.916 152.787 199.138 152.008C198.348 151.219 197.954 150.216 197.954 149C197.954 147.805 198.338 146.813 199.106 146.024C199.895 145.224 200.892 144.824 202.098 144.824ZM202.098 145.592C201.202 145.592 200.444 145.875 199.826 146.44C199.218 147.005 198.871 147.736 198.786 148.632H205.218C205.132 147.683 204.791 146.941 204.194 146.408C203.596 145.864 202.898 145.592 202.098 145.592ZM216.425 144.824C217.577 144.824 218.553 145.229 219.353 146.04C220.164 146.84 220.569 147.827 220.569 149C220.569 150.173 220.164 151.165 219.353 151.976C218.553 152.776 217.577 153.176 216.425 153.176C215.668 153.176 214.985 153 214.377 152.648C213.78 152.285 213.316 151.784 212.985 151.144V153H212.185V141.8H212.985V146.856C213.316 146.216 213.78 145.72 214.377 145.368C214.985 145.005 215.668 144.824 216.425 144.824ZM213.961 151.416C214.622 152.077 215.428 152.408 216.377 152.408C217.316 152.408 218.116 152.077 218.777 151.416C219.438 150.755 219.769 149.949 219.769 149C219.769 148.051 219.438 147.245 218.777 146.584C218.116 145.923 217.316 145.592 216.377 145.592C215.428 145.592 214.622 145.923 213.961 146.584C213.31 147.235 212.985 148.04 212.985 149C212.985 149.96 213.31 150.765 213.961 151.416ZM226.098 144.824C227.271 144.824 228.22 145.24 228.946 146.072C229.682 146.904 230.05 147.891 230.05 149.032C230.05 149.053 230.044 149.117 230.034 149.224C230.034 149.331 230.034 149.395 230.034 149.416H222.786C222.882 150.312 223.239 151.037 223.858 151.592C224.476 152.136 225.25 152.408 226.178 152.408C226.807 152.408 227.362 152.28 227.842 152.024C228.322 151.757 228.69 151.4 228.946 150.952L229.65 151.368C229.319 151.923 228.844 152.365 228.226 152.696C227.618 153.016 226.93 153.176 226.162 153.176C224.924 153.176 223.916 152.787 223.138 152.008C222.348 151.219 221.954 150.216 221.954 149C221.954 147.805 222.338 146.813 223.106 146.024C223.895 145.224 224.892 144.824 226.098 144.824ZM226.098 145.592C225.202 145.592 224.444 145.875 223.826 146.44C223.218 147.005 222.871 147.736 222.786 148.632H229.218C229.132 147.683 228.791 146.941 228.194 146.408C227.596 145.864 226.898 145.592 226.098 145.592ZM232.151 147.096C232.151 147.768 232.722 148.248 233.863 148.536C234.194 148.611 234.434 148.669 234.583 148.712C234.743 148.744 234.972 148.808 235.271 148.904C235.58 148.989 235.81 149.085 235.959 149.192C236.119 149.299 236.29 149.432 236.471 149.592C236.663 149.752 236.796 149.944 236.871 150.168C236.956 150.381 236.999 150.627 236.999 150.904C236.999 151.576 236.732 152.125 236.199 152.552C235.676 152.968 234.988 153.176 234.135 153.176C233.378 153.176 232.732 153.016 232.199 152.696C231.666 152.376 231.298 151.944 231.095 151.4L231.783 151C231.932 151.448 232.21 151.795 232.615 152.04C233.031 152.285 233.538 152.408 234.135 152.408C234.754 152.408 235.25 152.275 235.623 152.008C236.007 151.741 236.199 151.373 236.199 150.904C236.199 150.179 235.628 149.693 234.487 149.448C233.42 149.192 232.706 148.957 232.343 148.744C231.682 148.36 231.351 147.811 231.351 147.096C231.351 146.456 231.602 145.917 232.103 145.48C232.626 145.043 233.282 144.824 234.071 144.824C234.7 144.824 235.255 144.968 235.735 145.256C236.215 145.544 236.567 145.933 236.791 146.424L236.119 146.808C235.959 146.424 235.692 146.125 235.319 145.912C234.956 145.699 234.54 145.592 234.071 145.592C233.516 145.592 233.058 145.731 232.695 146.008C232.332 146.285 232.151 146.648 232.151 147.096ZM242.719 145V145.784H240.335V150.984C240.335 151.635 240.505 152.035 240.847 152.184C241.199 152.333 241.823 152.365 242.719 152.28V153C241.62 153.16 240.809 153.085 240.287 152.776C239.775 152.456 239.519 151.859 239.519 150.984V145.784H237.759V145H239.519V143L240.335 142.76V145H242.719ZM255.96 146.856V145H256.76V156.2H255.96V151.144C255.629 151.784 255.16 152.285 254.552 152.648C253.955 153 253.277 153.176 252.52 153.176C251.379 153.176 250.397 152.776 249.576 151.976C248.776 151.165 248.376 150.173 248.376 149C248.376 147.827 248.776 146.84 249.576 146.04C250.387 145.229 251.368 144.824 252.52 144.824C253.277 144.824 253.955 145.005 254.552 145.368C255.16 145.72 255.629 146.216 255.96 146.856ZM250.152 151.416C250.813 152.077 251.619 152.408 252.568 152.408C253.507 152.408 254.307 152.077 254.968 151.416C255.629 150.755 255.96 149.949 255.96 149C255.96 148.051 255.629 147.245 254.968 146.584C254.307 145.923 253.507 145.592 252.568 145.592C251.619 145.592 250.813 145.923 250.152 146.584C249.501 147.235 249.176 148.04 249.176 149C249.176 149.96 249.501 150.765 250.152 151.416ZM264.976 149.224V145H265.776V153H264.976V151.48C264.4 152.611 263.446 153.176 262.112 153.176C261.163 153.176 260.406 152.888 259.84 152.312C259.286 151.725 259.008 150.947 259.008 149.976V145H259.824V149.976C259.824 150.723 260.032 151.315 260.448 151.752C260.864 152.189 261.44 152.408 262.176 152.408C263.019 152.408 263.696 152.131 264.208 151.576C264.72 151.021 264.976 150.237 264.976 149.224ZM275.288 146.808V145H276.104V153H275.288V151.192C274.936 151.811 274.461 152.296 273.864 152.648C273.266 153 272.594 153.176 271.848 153.176C270.717 153.176 269.741 152.776 268.92 151.976C268.109 151.165 267.704 150.173 267.704 149C267.704 147.827 268.109 146.84 268.92 146.04C269.73 145.229 270.706 144.824 271.848 144.824C272.594 144.824 273.266 145 273.864 145.352C274.461 145.704 274.936 146.189 275.288 146.808ZM269.496 151.416C270.157 152.077 270.962 152.408 271.912 152.408C272.85 152.408 273.65 152.077 274.312 151.416C274.962 150.765 275.288 149.96 275.288 149C275.288 148.04 274.962 147.235 274.312 146.584C273.65 145.923 272.85 145.592 271.912 145.592C270.962 145.592 270.157 145.923 269.496 146.584C268.845 147.235 268.52 148.04 268.52 149C268.52 149.96 268.845 150.765 269.496 151.416ZM279.36 153H278.56V141.32H279.36V153ZM281.586 142.424C281.575 142.168 281.676 141.992 281.89 141.896C282.114 141.789 282.332 141.789 282.546 141.896C282.77 141.992 282.876 142.168 282.866 142.424C282.876 142.691 282.77 142.877 282.546 142.984C282.332 143.091 282.114 143.091 281.89 142.984C281.676 142.877 281.575 142.691 281.586 142.424ZM282.626 153H281.826V145H282.626V153ZM289.187 145V145.784H286.803V150.984C286.803 151.635 286.974 152.035 287.315 152.184C287.667 152.333 288.291 152.365 289.187 152.28V153C288.089 153.16 287.278 153.085 286.755 152.776C286.243 152.456 285.987 151.859 285.987 150.984V145.784H284.227V145H285.987V143L286.803 142.76V145H289.187ZM294.335 152.12L297.119 145H297.983L294.527 153.736C294.207 154.536 293.765 155.16 293.199 155.608C292.634 156.056 292.021 156.253 291.359 156.2V155.448C291.861 155.491 292.319 155.347 292.735 155.016C293.151 154.685 293.487 154.205 293.743 153.576L293.919 153.144L290.239 145H291.103L294.335 152.12ZM310.741 146.856V141.8H311.541V153H310.741V151.144C310.41 151.784 309.941 152.285 309.333 152.648C308.736 153 308.058 153.176 307.301 153.176C306.16 153.176 305.178 152.776 304.357 151.976C303.557 151.165 303.157 150.173 303.157 149C303.157 147.827 303.557 146.84 304.357 146.04C305.168 145.229 306.149 144.824 307.301 144.824C308.058 144.824 308.736 145.005 309.333 145.368C309.941 145.72 310.41 146.216 310.741 146.856ZM304.933 151.416C305.594 152.077 306.4 152.408 307.349 152.408C308.288 152.408 309.088 152.077 309.749 151.416C310.41 150.755 310.741 149.949 310.741 149C310.741 148.051 310.41 147.245 309.749 146.584C309.088 145.923 308.288 145.592 307.349 145.592C306.4 145.592 305.594 145.923 304.933 146.584C304.282 147.235 303.957 148.04 303.957 149C303.957 149.96 304.282 150.765 304.933 151.416ZM317.598 144.824C318.771 144.824 319.72 145.24 320.446 146.072C321.182 146.904 321.55 147.891 321.55 149.032C321.55 149.053 321.544 149.117 321.534 149.224C321.534 149.331 321.534 149.395 321.534 149.416H314.286C314.382 150.312 314.739 151.037 315.358 151.592C315.976 152.136 316.75 152.408 317.678 152.408C318.307 152.408 318.862 152.28 319.342 152.024C319.822 151.757 320.19 151.4 320.446 150.952L321.15 151.368C320.819 151.923 320.344 152.365 319.726 152.696C319.118 153.016 318.43 153.176 317.662 153.176C316.424 153.176 315.416 152.787 314.638 152.008C313.848 151.219 313.454 150.216 313.454 149C313.454 147.805 313.838 146.813 314.606 146.024C315.395 145.224 316.392 144.824 317.598 144.824ZM317.598 145.592C316.702 145.592 315.944 145.875 315.326 146.44C314.718 147.005 314.371 147.736 314.286 148.632H320.718C320.632 147.683 320.291 146.941 319.694 146.408C319.096 145.864 318.398 145.592 317.598 145.592ZM325.955 152.168L328.979 145H329.827L326.451 153H325.475L322.083 145H322.947L325.955 152.168ZM334.566 144.824C335.74 144.824 336.689 145.24 337.414 146.072C338.15 146.904 338.518 147.891 338.518 149.032C338.518 149.053 338.513 149.117 338.502 149.224C338.502 149.331 338.502 149.395 338.502 149.416H331.254C331.35 150.312 331.708 151.037 332.326 151.592C332.945 152.136 333.718 152.408 334.646 152.408C335.276 152.408 335.83 152.28 336.31 152.024C336.79 151.757 337.158 151.4 337.414 150.952L338.118 151.368C337.788 151.923 337.313 152.365 336.694 152.696C336.086 153.016 335.398 153.176 334.63 153.176C333.393 153.176 332.385 152.787 331.606 152.008C330.817 151.219 330.422 150.216 330.422 149C330.422 147.805 330.806 146.813 331.574 146.024C332.364 145.224 333.361 144.824 334.566 144.824ZM334.566 145.592C333.67 145.592 332.913 145.875 332.294 146.44C331.686 147.005 331.34 147.736 331.254 148.632H337.686C337.601 147.683 337.26 146.941 336.662 146.408C336.065 145.864 335.366 145.592 334.566 145.592ZM341.188 153H340.388V141.32H341.188V153ZM347.318 153.176C346.145 153.176 345.147 152.776 344.326 151.976C343.515 151.165 343.11 150.173 343.11 149C343.11 147.827 343.515 146.84 344.326 146.04C345.137 145.229 346.134 144.824 347.318 144.824C348.481 144.824 349.467 145.229 350.278 146.04C351.099 146.84 351.51 147.827 351.51 149C351.51 150.163 351.099 151.155 350.278 151.976C349.457 152.776 348.47 153.176 347.318 153.176ZM344.902 151.416C345.563 152.077 346.369 152.408 347.318 152.408C348.257 152.408 349.057 152.077 349.718 151.416C350.369 150.765 350.694 149.96 350.694 149C350.694 148.04 350.369 147.235 349.718 146.584C349.057 145.923 348.257 145.592 347.318 145.592C346.369 145.592 345.563 145.923 344.902 146.584C344.251 147.235 343.926 148.04 343.926 149C343.926 149.96 344.251 150.765 344.902 151.416ZM357.675 144.824C358.827 144.824 359.803 145.229 360.603 146.04C361.414 146.84 361.819 147.827 361.819 149C361.819 150.173 361.414 151.165 360.603 151.976C359.803 152.776 358.827 153.176 357.675 153.176C356.918 153.176 356.235 153 355.627 152.648C355.03 152.285 354.566 151.784 354.235 151.144V156.2H353.435V145H354.235V146.856C354.566 146.216 355.03 145.72 355.627 145.368C356.235 145.005 356.918 144.824 357.675 144.824ZM355.211 151.416C355.872 152.077 356.678 152.408 357.627 152.408C358.566 152.408 359.366 152.077 360.027 151.416C360.688 150.755 361.019 149.949 361.019 149C361.019 148.051 360.688 147.245 360.027 146.584C359.366 145.923 358.566 145.592 357.627 145.592C356.678 145.592 355.872 145.923 355.211 146.584C354.56 147.235 354.235 148.04 354.235 149C354.235 149.96 354.56 150.765 355.211 151.416ZM372.292 144.824C373.177 144.824 373.881 145.101 374.404 145.656C374.937 146.2 375.204 146.957 375.204 147.928V153H374.404V147.928C374.404 147.192 374.212 146.621 373.828 146.216C373.444 145.8 372.926 145.592 372.276 145.592C371.54 145.592 370.953 145.843 370.516 146.344C370.089 146.845 369.876 147.576 369.876 148.536V153H369.076V147.928C369.076 147.192 368.894 146.621 368.532 146.216C368.169 145.8 367.668 145.592 367.028 145.592C366.292 145.592 365.694 145.848 365.236 146.36C364.777 146.872 364.548 147.597 364.548 148.536V153H363.748V145H364.548V146.376C365.102 145.341 365.961 144.824 367.124 144.824C367.71 144.824 368.222 144.968 368.66 145.256C369.097 145.533 369.417 145.933 369.62 146.456C369.897 145.923 370.27 145.517 370.74 145.24C371.209 144.963 371.726 144.824 372.292 144.824ZM381.066 144.824C382.24 144.824 383.189 145.24 383.914 146.072C384.65 146.904 385.018 147.891 385.018 149.032C385.018 149.053 385.013 149.117 385.002 149.224C385.002 149.331 385.002 149.395 385.002 149.416H377.754C377.85 150.312 378.208 151.037 378.826 151.592C379.445 152.136 380.218 152.408 381.146 152.408C381.776 152.408 382.33 152.28 382.81 152.024C383.29 151.757 383.658 151.4 383.914 150.952L384.618 151.368C384.288 151.923 383.813 152.365 383.194 152.696C382.586 153.016 381.898 153.176 381.13 153.176C379.893 153.176 378.885 152.787 378.106 152.008C377.317 151.219 376.922 150.216 376.922 149C376.922 147.805 377.306 146.813 378.074 146.024C378.864 145.224 379.861 144.824 381.066 144.824ZM381.066 145.592C380.17 145.592 379.413 145.875 378.794 146.44C378.186 147.005 377.84 147.736 377.754 148.632H384.186C384.101 147.683 383.76 146.941 383.162 146.408C382.565 145.864 381.866 145.592 381.066 145.592ZM390.552 144.824C391.502 144.824 392.254 145.117 392.808 145.704C393.374 146.28 393.656 147.053 393.656 148.024V153H392.84V148.024C392.84 147.277 392.632 146.685 392.216 146.248C391.8 145.811 391.224 145.592 390.488 145.592C389.646 145.592 388.968 145.869 388.456 146.424C387.944 146.979 387.688 147.763 387.688 148.776V153H386.888V145H387.688V146.52C388.264 145.389 389.219 144.824 390.552 144.824ZM400.016 145V145.784H397.632V150.984C397.632 151.635 397.802 152.035 398.144 152.184C398.496 152.333 399.12 152.365 400.016 152.28V153C398.917 153.16 398.106 153.085 397.584 152.776C397.072 152.456 396.816 151.859 396.816 150.984V145.784H395.056V145H396.816V143L397.632 142.76V145H400.016ZM8.272 174.808V173H9.088V181H8.272V179.192C7.92 179.811 7.44533 180.296 6.848 180.648C6.25067 181 5.57867 181.176 4.832 181.176C3.70133 181.176 2.72533 180.776 1.904 179.976C1.09333 179.165 0.688 178.173 0.688 177C0.688 175.827 1.09333 174.84 1.904 174.04C2.71467 173.229 3.69067 172.824 4.832 172.824C5.57867 172.824 6.25067 173 6.848 173.352C7.44533 173.704 7.92 174.189 8.272 174.808ZM2.48 179.416C3.14133 180.077 3.94667 180.408 4.896 180.408C5.83467 180.408 6.63467 180.077 7.296 179.416C7.94667 178.765 8.272 177.96 8.272 177C8.272 176.04 7.94667 175.235 7.296 174.584C6.63467 173.923 5.83467 173.592 4.896 173.592C3.94667 173.592 3.14133 173.923 2.48 174.584C1.82933 175.235 1.504 176.04 1.504 177C1.504 177.96 1.82933 178.765 2.48 179.416ZM15.2085 172.824C16.1578 172.824 16.9098 173.117 17.4645 173.704C18.0298 174.28 18.3125 175.053 18.3125 176.024V181H17.4965V176.024C17.4965 175.277 17.2885 174.685 16.8725 174.248C16.4565 173.811 15.8805 173.592 15.1445 173.592C14.3018 173.592 13.6245 173.869 13.1125 174.424C12.6005 174.979 12.3445 175.763 12.3445 176.776V181H11.5445V173H12.3445V174.52C12.9205 173.389 13.8752 172.824 15.2085 172.824ZM27.6318 174.856V169.8H28.4318V181H27.6318V179.144C27.3011 179.784 26.8318 180.285 26.2238 180.648C25.6264 181 24.9491 181.176 24.1918 181.176C23.0504 181.176 22.0691 180.776 21.2478 179.976C20.4478 179.165 20.0478 178.173 20.0478 177C20.0478 175.827 20.4478 174.84 21.2478 174.04C22.0584 173.229 23.0398 172.824 24.1918 172.824C24.9491 172.824 25.6264 173.005 26.2238 173.368C26.8318 173.72 27.3011 174.216 27.6318 174.856ZM21.8238 179.416C22.4851 180.077 23.2904 180.408 24.2398 180.408C25.1784 180.408 25.9784 180.077 26.6398 179.416C27.3011 178.755 27.6318 177.949 27.6318 177C27.6318 176.051 27.3011 175.245 26.6398 174.584C25.9784 173.923 25.1784 173.592 24.2398 173.592C23.2904 173.592 22.4851 173.923 21.8238 174.584C21.1731 175.235 20.8478 176.04 20.8478 177C20.8478 177.96 21.1731 178.765 21.8238 179.416ZM34.9139 170.424C34.9032 170.168 35.0045 169.992 35.2179 169.896C35.4419 169.789 35.6605 169.789 35.8739 169.896C36.0979 169.992 36.2045 170.168 36.1939 170.424C36.2045 170.691 36.0979 170.877 35.8739 170.984C35.6605 171.091 35.4419 171.091 35.2179 170.984C35.0045 170.877 34.9032 170.691 34.9139 170.424ZM35.9539 181H35.1539V173H35.9539V181ZM42.0835 172.824C43.0328 172.824 43.7848 173.117 44.3395 173.704C44.9048 174.28 45.1875 175.053 45.1875 176.024V181H44.3715V176.024C44.3715 175.277 44.1635 174.685 43.7475 174.248C43.3315 173.811 42.7555 173.592 42.0195 173.592C41.1768 173.592 40.4995 173.869 39.9875 174.424C39.4755 174.979 39.2195 175.763 39.2195 176.776V181H38.4195V173H39.2195V174.52C39.7955 173.389 40.7502 172.824 42.0835 172.824ZM59.3004 179.96L61.4284 173H62.2764L59.7484 181H58.8684L56.6444 174.184L54.4204 181H53.5404L51.0124 173H51.8604L53.9884 179.96L56.2284 173H57.0604L59.3004 179.96ZM67.3804 181.176C66.207 181.176 65.2097 180.776 64.3884 179.976C63.5777 179.165 63.1724 178.173 63.1724 177C63.1724 175.827 63.5777 174.84 64.3884 174.04C65.199 173.229 66.1964 172.824 67.3804 172.824C68.543 172.824 69.5297 173.229 70.3404 174.04C71.1617 174.84 71.5724 175.827 71.5724 177C71.5724 178.163 71.1617 179.155 70.3404 179.976C69.519 180.776 68.5324 181.176 67.3804 181.176ZM64.9644 179.416C65.6257 180.077 66.431 180.408 67.3804 180.408C68.319 180.408 69.119 180.077 69.7804 179.416C70.431 178.765 70.7564 177.96 70.7564 177C70.7564 176.04 70.431 175.235 69.7804 174.584C69.119 173.923 68.319 173.592 67.3804 173.592C66.431 173.592 65.6257 173.923 64.9644 174.584C64.3137 175.235 63.9884 176.04 63.9884 177C63.9884 177.96 64.3137 178.765 64.9644 179.416ZM74.2976 173V174.568C74.7776 173.448 75.6683 172.888 76.9696 172.888V173.656C76.1803 173.656 75.535 173.907 75.0336 174.408C74.543 174.909 74.2976 175.624 74.2976 176.552V181H73.4976V173H74.2976ZM80.2554 176.84L84.7194 181H83.6314L79.3914 177.064V181H78.5914V169.8H79.3914V176.632L83.4394 173H84.5594L80.2554 176.84ZM86.0858 170.424C86.0751 170.168 86.1764 169.992 86.3898 169.896C86.6138 169.789 86.8324 169.789 87.0458 169.896C87.2698 169.992 87.3764 170.168 87.3658 170.424C87.3764 170.691 87.2698 170.877 87.0458 170.984C86.8324 171.091 86.6138 171.091 86.3898 170.984C86.1764 170.877 86.0751 170.691 86.0858 170.424ZM87.1258 181H86.3258V173H87.1258V181ZM93.2554 172.824C94.2047 172.824 94.9567 173.117 95.5114 173.704C96.0767 174.28 96.3594 175.053 96.3594 176.024V181H95.5434V176.024C95.5434 175.277 95.3354 174.685 94.9194 174.248C94.5034 173.811 93.9274 173.592 93.1914 173.592C92.3487 173.592 91.6714 173.869 91.1594 174.424C90.6474 174.979 90.3914 175.763 90.3914 176.776V181H89.5914V173H90.3914V174.52C90.9674 173.389 91.922 172.824 93.2554 172.824ZM105.727 174.856V173H106.527V180.616C106.527 181.779 106.148 182.696 105.391 183.368C104.633 184.04 103.684 184.376 102.543 184.376C101.636 184.376 100.852 184.205 100.191 183.864C99.54 183.533 99.0653 183.064 98.7666 182.456L99.4706 182.056C99.9826 183.091 101.007 183.608 102.543 183.608C103.535 183.608 104.313 183.341 104.879 182.808C105.444 182.275 105.727 181.544 105.727 180.616V179.144C105.396 179.784 104.927 180.285 104.319 180.648C103.721 181 103.044 181.176 102.287 181.176C101.145 181.176 100.164 180.776 99.3426 179.976C98.5426 179.165 98.1426 178.173 98.1426 177C98.1426 175.827 98.5426 174.84 99.3426 174.04C100.153 173.229 101.135 172.824 102.287 172.824C103.044 172.824 103.721 173.005 104.319 173.368C104.927 173.72 105.396 174.216 105.727 174.856ZM99.9186 179.416C100.58 180.077 101.385 180.408 102.335 180.408C103.273 180.408 104.073 180.077 104.735 179.416C105.396 178.755 105.727 177.949 105.727 177C105.727 176.051 105.396 175.245 104.735 174.584C104.073 173.923 103.273 173.592 102.335 173.592C101.385 173.592 100.58 173.923 99.9186 174.584C99.268 175.235 98.9426 176.04 98.9426 177C98.9426 177.96 99.268 178.765 99.9186 179.416ZM116.927 181.176C115.754 181.176 114.757 180.776 113.935 179.976C113.125 179.165 112.719 178.173 112.719 177C112.719 175.827 113.125 174.84 113.935 174.04C114.746 173.229 115.743 172.824 116.927 172.824C118.09 172.824 119.077 173.229 119.887 174.04C120.709 174.84 121.119 175.827 121.119 177C121.119 178.163 120.709 179.155 119.887 179.976C119.066 180.776 118.079 181.176 116.927 181.176ZM114.511 179.416C115.173 180.077 115.978 180.408 116.927 180.408C117.866 180.408 118.666 180.077 119.327 179.416C119.978 178.765 120.303 177.96 120.303 177C120.303 176.04 119.978 175.235 119.327 174.584C118.666 173.923 117.866 173.592 116.927 173.592C115.978 173.592 115.173 173.923 114.511 174.584C113.861 175.235 113.535 176.04 113.535 177C113.535 177.96 113.861 178.765 114.511 179.416ZM126.709 172.824C127.658 172.824 128.41 173.117 128.965 173.704C129.53 174.28 129.812 175.053 129.812 176.024V181H128.997V176.024C128.997 175.277 128.789 174.685 128.373 174.248C127.957 173.811 127.381 173.592 126.645 173.592C125.802 173.592 125.125 173.869 124.613 174.424C124.101 174.979 123.845 175.763 123.845 176.776V181H123.045V173H123.845V174.52C124.421 173.389 125.375 172.824 126.709 172.824ZM136.101 170.424C136.091 170.168 136.192 169.992 136.405 169.896C136.629 169.789 136.848 169.789 137.061 169.896C137.285 169.992 137.392 170.168 137.381 170.424C137.392 170.691 137.285 170.877 137.061 170.984C136.848 171.091 136.629 171.091 136.405 170.984C136.192 170.877 136.091 170.691 136.101 170.424ZM137.141 181H136.341V173H137.141V181ZM143.271 172.824C144.22 172.824 144.972 173.117 145.527 173.704C146.092 174.28 146.375 175.053 146.375 176.024V181H145.559V176.024C145.559 175.277 145.351 174.685 144.935 174.248C144.519 173.811 143.943 173.592 143.207 173.592C142.364 173.592 141.687 173.869 141.175 174.424C140.663 174.979 140.407 175.763 140.407 176.776V181H139.607V173H140.407V174.52C140.983 173.389 141.938 172.824 143.271 172.824ZM152.734 173V173.784H150.35V178.984C150.35 179.635 150.521 180.035 150.862 180.184C151.214 180.333 151.838 180.365 152.734 180.28V181C151.636 181.16 150.825 181.085 150.302 180.776C149.79 180.456 149.534 179.859 149.534 178.984V173.784H147.774V173H149.534V171L150.35 170.76V173H152.734ZM157.77 172.824C158.943 172.824 159.892 173.24 160.618 174.072C161.354 174.904 161.722 175.891 161.722 177.032C161.722 177.053 161.716 177.117 161.706 177.224C161.706 177.331 161.706 177.395 161.706 177.416H154.458C154.554 178.312 154.911 179.037 155.53 179.592C156.148 180.136 156.922 180.408 157.85 180.408C158.479 180.408 159.034 180.28 159.514 180.024C159.994 179.757 160.362 179.4 160.618 178.952L161.322 179.368C160.991 179.923 160.516 180.365 159.898 180.696C159.29 181.016 158.602 181.176 157.834 181.176C156.596 181.176 155.588 180.787 154.81 180.008C154.02 179.219 153.626 178.216 153.626 177C153.626 175.805 154.01 174.813 154.778 174.024C155.567 173.224 156.564 172.824 157.77 172.824ZM157.77 173.592C156.874 173.592 156.116 173.875 155.498 174.44C154.89 175.005 154.543 175.736 154.458 176.632H160.89C160.804 175.683 160.463 174.941 159.866 174.408C159.268 173.864 158.57 173.592 157.77 173.592ZM164.391 173V174.568C164.871 173.448 165.762 172.888 167.063 172.888V173.656C166.274 173.656 165.629 173.907 165.127 174.408C164.637 174.909 164.391 175.624 164.391 176.552V181H163.591V173H164.391ZM171.801 172.824C172.974 172.824 173.923 173.24 174.649 174.072C175.385 174.904 175.753 175.891 175.753 177.032C175.753 177.053 175.747 177.117 175.737 177.224C175.737 177.331 175.737 177.395 175.737 177.416H168.489C168.585 178.312 168.942 179.037 169.561 179.592C170.179 180.136 170.953 180.408 171.881 180.408C172.51 180.408 173.065 180.28 173.545 180.024C174.025 179.757 174.393 179.4 174.649 178.952L175.353 179.368C175.022 179.923 174.547 180.365 173.929 180.696C173.321 181.016 172.633 181.176 171.865 181.176C170.627 181.176 169.619 180.787 168.841 180.008C168.051 179.219 167.657 178.216 167.657 177C167.657 175.805 168.041 174.813 168.809 174.024C169.598 173.224 170.595 172.824 171.801 172.824ZM171.801 173.592C170.905 173.592 170.147 173.875 169.529 174.44C168.921 175.005 168.574 175.736 168.489 176.632H174.921C174.835 175.683 174.494 174.941 173.897 174.408C173.299 173.864 172.601 173.592 171.801 173.592ZM177.854 175.096C177.854 175.768 178.425 176.248 179.566 176.536C179.897 176.611 180.137 176.669 180.286 176.712C180.446 176.744 180.675 176.808 180.974 176.904C181.283 176.989 181.513 177.085 181.662 177.192C181.822 177.299 181.993 177.432 182.174 177.592C182.366 177.752 182.499 177.944 182.574 178.168C182.659 178.381 182.702 178.627 182.702 178.904C182.702 179.576 182.435 180.125 181.902 180.552C181.379 180.968 180.691 181.176 179.838 181.176C179.081 181.176 178.435 181.016 177.902 180.696C177.369 180.376 177.001 179.944 176.798 179.4L177.486 179C177.635 179.448 177.913 179.795 178.318 180.04C178.734 180.285 179.241 180.408 179.838 180.408C180.457 180.408 180.953 180.275 181.326 180.008C181.71 179.741 181.902 179.373 181.902 178.904C181.902 178.179 181.331 177.693 180.19 177.448C179.123 177.192 178.409 176.957 178.046 176.744C177.385 176.36 177.054 175.811 177.054 175.096C177.054 174.456 177.305 173.917 177.806 173.48C178.329 173.043 178.985 172.824 179.774 172.824C180.403 172.824 180.958 172.968 181.438 173.256C181.918 173.544 182.27 173.933 182.494 174.424L181.822 174.808C181.662 174.424 181.395 174.125 181.022 173.912C180.659 173.699 180.243 173.592 179.774 173.592C179.219 173.592 178.761 173.731 178.398 174.008C178.035 174.285 177.854 174.648 177.854 175.096ZM188.422 173V173.784H186.038V178.984C186.038 179.635 186.208 180.035 186.55 180.184C186.902 180.333 187.526 180.365 188.422 180.28V181C187.323 181.16 186.512 181.085 185.99 180.776C185.478 180.456 185.222 179.859 185.222 178.984V173.784H183.462V173H185.222V171L186.038 170.76V173H188.422ZM190.101 170.424C190.091 170.168 190.192 169.992 190.405 169.896C190.629 169.789 190.848 169.789 191.061 169.896C191.285 169.992 191.392 170.168 191.381 170.424C191.392 170.691 191.285 170.877 191.061 170.984C190.848 171.091 190.629 171.091 190.405 170.984C190.192 170.877 190.091 170.691 190.101 170.424ZM191.141 181H190.341V173H191.141V181ZM197.271 172.824C198.22 172.824 198.972 173.117 199.527 173.704C200.092 174.28 200.375 175.053 200.375 176.024V181H199.559V176.024C199.559 175.277 199.351 174.685 198.935 174.248C198.519 173.811 197.943 173.592 197.207 173.592C196.364 173.592 195.687 173.869 195.175 174.424C194.663 174.979 194.407 175.763 194.407 176.776V181H193.607V173H194.407V174.52C194.983 173.389 195.938 172.824 197.271 172.824ZM209.742 174.856V173H210.542V180.616C210.542 181.779 210.164 182.696 209.406 183.368C208.649 184.04 207.7 184.376 206.558 184.376C205.652 184.376 204.868 184.205 204.206 183.864C203.556 183.533 203.081 183.064 202.782 182.456L203.486 182.056C203.998 183.091 205.022 183.608 206.558 183.608C207.55 183.608 208.329 183.341 208.894 182.808C209.46 182.275 209.742 181.544 209.742 180.616V179.144C209.412 179.784 208.942 180.285 208.334 180.648C207.737 181 207.06 181.176 206.302 181.176C205.161 181.176 204.18 180.776 203.358 179.976C202.558 179.165 202.158 178.173 202.158 177C202.158 175.827 202.558 174.84 203.358 174.04C204.169 173.229 205.15 172.824 206.302 172.824C207.06 172.824 207.737 173.005 208.334 173.368C208.942 173.72 209.412 174.216 209.742 174.856ZM203.934 179.416C204.596 180.077 205.401 180.408 206.35 180.408C207.289 180.408 208.089 180.077 208.75 179.416C209.412 178.755 209.742 177.949 209.742 177C209.742 176.051 209.412 175.245 208.75 174.584C208.089 173.923 207.289 173.592 206.35 173.592C205.401 173.592 204.596 173.923 203.934 174.584C203.284 175.235 202.958 176.04 202.958 177C202.958 177.96 203.284 178.765 203.934 179.416ZM221.519 172.824C222.671 172.824 223.647 173.229 224.447 174.04C225.258 174.84 225.663 175.827 225.663 177C225.663 178.173 225.258 179.165 224.447 179.976C223.647 180.776 222.671 181.176 221.519 181.176C220.762 181.176 220.079 181 219.471 180.648C218.874 180.285 218.41 179.784 218.079 179.144V184.2H217.279V173H218.079V174.856C218.41 174.216 218.874 173.72 219.471 173.368C220.079 173.005 220.762 172.824 221.519 172.824ZM219.055 179.416C219.716 180.077 220.522 180.408 221.471 180.408C222.41 180.408 223.21 180.077 223.871 179.416C224.532 178.755 224.863 177.949 224.863 177C224.863 176.051 224.532 175.245 223.871 174.584C223.21 173.923 222.41 173.592 221.471 173.592C220.522 173.592 219.716 173.923 219.055 174.584C218.404 175.235 218.079 176.04 218.079 177C218.079 177.96 218.404 178.765 219.055 179.416ZM228.391 173V174.568C228.871 173.448 229.762 172.888 231.063 172.888V173.656C230.274 173.656 229.629 173.907 229.127 174.408C228.637 174.909 228.391 175.624 228.391 176.552V181H227.591V173H228.391ZM235.865 181.176C234.691 181.176 233.694 180.776 232.873 179.976C232.062 179.165 231.657 178.173 231.657 177C231.657 175.827 232.062 174.84 232.873 174.04C233.683 173.229 234.681 172.824 235.865 172.824C237.027 172.824 238.014 173.229 238.825 174.04C239.646 174.84 240.057 175.827 240.057 177C240.057 178.163 239.646 179.155 238.825 179.976C238.003 180.776 237.017 181.176 235.865 181.176ZM233.449 179.416C234.11 180.077 234.915 180.408 235.865 180.408C236.803 180.408 237.603 180.077 238.265 179.416C238.915 178.765 239.241 177.96 239.241 177C239.241 176.04 238.915 175.235 238.265 174.584C237.603 173.923 236.803 173.592 235.865 173.592C234.915 173.592 234.11 173.923 233.449 174.584C232.798 175.235 232.473 176.04 232.473 177C232.473 177.96 232.798 178.765 233.449 179.416ZM249.038 174.856V169.8H249.838V181H249.038V179.144C248.707 179.784 248.238 180.285 247.63 180.648C247.033 181 246.355 181.176 245.598 181.176C244.457 181.176 243.475 180.776 242.654 179.976C241.854 179.165 241.454 178.173 241.454 177C241.454 175.827 241.854 174.84 242.654 174.04C243.465 173.229 244.446 172.824 245.598 172.824C246.355 172.824 247.033 173.005 247.63 173.368C248.238 173.72 248.707 174.216 249.038 174.856ZM243.23 179.416C243.891 180.077 244.697 180.408 245.646 180.408C246.585 180.408 247.385 180.077 248.046 179.416C248.707 178.755 249.038 177.949 249.038 177C249.038 176.051 248.707 175.245 248.046 174.584C247.385 173.923 246.585 173.592 245.646 173.592C244.697 173.592 243.891 173.923 243.23 174.584C242.579 175.235 242.254 176.04 242.254 177C242.254 177.96 242.579 178.765 243.23 179.416ZM258.055 177.224V173H258.855V181H258.055V179.48C257.479 180.611 256.524 181.176 255.191 181.176C254.241 181.176 253.484 180.888 252.919 180.312C252.364 179.725 252.087 178.947 252.087 177.976V173H252.903V177.976C252.903 178.723 253.111 179.315 253.527 179.752C253.943 180.189 254.519 180.408 255.255 180.408C256.097 180.408 256.775 180.131 257.287 179.576C257.799 179.021 258.055 178.237 258.055 177.224ZM264.99 181.176C263.784 181.176 262.782 180.776 261.982 179.976C261.182 179.176 260.782 178.184 260.782 177C260.782 175.816 261.182 174.824 261.982 174.024C262.782 173.224 263.784 172.824 264.99 172.824C265.768 172.824 266.472 173.011 267.102 173.384C267.731 173.747 268.19 174.243 268.478 174.872L267.822 175.256C267.587 174.744 267.214 174.339 266.702 174.04C266.2 173.741 265.63 173.592 264.99 173.592C264.04 173.592 263.235 173.923 262.574 174.584C261.923 175.235 261.598 176.04 261.598 177C261.598 177.971 261.923 178.781 262.574 179.432C263.224 180.083 264.03 180.408 264.99 180.408C265.63 180.408 266.2 180.259 266.702 179.96C267.214 179.661 267.603 179.256 267.87 178.744L268.542 179.144C268.222 179.763 267.742 180.259 267.102 180.632C266.462 180.995 265.758 181.176 264.99 181.176ZM274.391 173V173.784H272.007V178.984C272.007 179.635 272.177 180.035 272.519 180.184C272.871 180.333 273.495 180.365 274.391 180.28V181C273.292 181.16 272.481 181.085 271.959 180.776C271.447 180.456 271.191 179.859 271.191 178.984V173.784H269.431V173H271.191V171L272.007 170.76V173H274.391ZM276.37 175.096C276.37 175.768 276.94 176.248 278.082 176.536C278.412 176.611 278.652 176.669 278.802 176.712C278.962 176.744 279.191 176.808 279.49 176.904C279.799 176.989 280.028 177.085 280.178 177.192C280.338 177.299 280.508 177.432 280.69 177.592C280.882 177.752 281.015 177.944 281.09 178.168C281.175 178.381 281.218 178.627 281.218 178.904C281.218 179.576 280.951 180.125 280.418 180.552C279.895 180.968 279.207 181.176 278.354 181.176C277.596 181.176 276.951 181.016 276.418 180.696C275.884 180.376 275.516 179.944 275.314 179.4L276.002 179C276.151 179.448 276.428 179.795 276.834 180.04C277.25 180.285 277.756 180.408 278.354 180.408C278.972 180.408 279.468 180.275 279.842 180.008C280.226 179.741 280.418 179.373 280.418 178.904C280.418 178.179 279.847 177.693 278.706 177.448C277.639 177.192 276.924 176.957 276.562 176.744C275.9 176.36 275.57 175.811 275.57 175.096C275.57 174.456 275.82 173.917 276.322 173.48C276.844 173.043 277.5 172.824 278.29 172.824C278.919 172.824 279.474 172.968 279.954 173.256C280.434 173.544 280.786 173.933 281.01 174.424L280.338 174.808C280.178 174.424 279.911 174.125 279.538 173.912C279.175 173.699 278.759 173.592 278.29 173.592C277.735 173.592 277.276 173.731 276.914 174.008C276.551 174.285 276.37 174.648 276.37 175.096Z" fill="white"/>
<path d="M8.97017 271.727V244.455H10.7173V271.727H8.97017ZM14.0092 253.18C13.9098 252.249 13.4908 251.525 12.7521 251.006C12.0206 250.488 11.0689 250.229 9.89702 250.229C9.07315 250.229 8.36648 250.353 7.77699 250.602C7.1875 250.85 6.73651 251.187 6.42401 251.614C6.11151 252.04 5.9517 252.526 5.9446 253.073C5.9446 253.528 6.04759 253.922 6.25355 254.256C6.46662 254.589 6.75426 254.874 7.11648 255.108C7.47869 255.335 7.87997 255.527 8.32031 255.683C8.76065 255.839 9.20455 255.971 9.65199 256.077L11.6974 256.589C12.5213 256.781 13.3132 257.04 14.0732 257.366C14.8402 257.693 15.5256 258.105 16.1293 258.602C16.7401 259.099 17.223 259.7 17.5781 260.403C17.9332 261.106 18.1108 261.93 18.1108 262.874C18.1108 264.153 17.7841 265.278 17.1307 266.251C16.4773 267.217 15.5327 267.974 14.2969 268.521C13.0682 269.06 11.5803 269.33 9.8331 269.33C8.13565 269.33 6.66193 269.067 5.41193 268.542C4.16903 268.016 3.19602 267.249 2.4929 266.241C1.79688 265.232 1.42045 264.004 1.36364 262.555H5.25213C5.30895 263.315 5.54332 263.947 5.95526 264.451C6.36719 264.955 6.90341 265.332 7.56392 265.58C8.23153 265.829 8.97727 265.953 9.80114 265.953C10.6605 265.953 11.4134 265.825 12.0597 265.57C12.7131 265.307 13.2244 264.945 13.5938 264.483C13.9631 264.014 14.1513 263.467 14.1584 262.842C14.1513 262.274 13.9844 261.805 13.6577 261.436C13.331 261.06 12.8729 260.747 12.2834 260.499C11.701 260.243 11.0192 260.016 10.2379 259.817L7.75568 259.178C5.95881 258.716 4.53835 258.016 3.49432 257.079C2.45739 256.134 1.93892 254.881 1.93892 253.318C1.93892 252.033 2.28693 250.907 2.98295 249.941C3.68608 248.975 4.64134 248.226 5.84872 247.693C7.05611 247.153 8.4233 246.884 9.95028 246.884C11.4986 246.884 12.8551 247.153 14.0199 247.693C15.1918 248.226 16.1115 248.968 16.7791 249.92C17.4467 250.864 17.7912 251.951 17.8125 253.18H14.0092Z" fill="#009EE3"/>
<path d="M30.2956 247.182V269H26.3432V251.028H26.2154L21.1124 254.288V250.665L26.535 247.182H30.2956ZM43.4206 269.298C42.0002 269.298 40.7289 269.032 39.6067 268.499C38.4846 267.96 37.5932 267.221 36.9327 266.283C36.2793 265.346 35.9313 264.273 35.8887 263.066H39.7239C39.7949 263.961 40.182 264.692 40.8851 265.261C41.5882 265.822 42.4334 266.102 43.4206 266.102C44.1948 266.102 44.8837 265.925 45.4874 265.57C46.0911 265.214 46.5669 264.721 46.915 264.089C47.263 263.457 47.4334 262.736 47.4263 261.926C47.4334 261.102 47.2594 260.371 46.9043 259.732C46.5492 259.092 46.0627 258.592 45.4448 258.229C44.8269 257.86 44.1167 257.675 43.3141 257.675C42.6607 257.668 42.0179 257.789 41.3858 258.038C40.7537 258.286 40.253 258.613 39.8837 259.018L36.3148 258.432L37.4547 247.182H50.111V250.484H40.7253L40.0968 256.269H40.2246C40.6294 255.793 41.2012 255.399 41.9398 255.087C42.6784 254.767 43.4881 254.607 44.3688 254.607C45.6898 254.607 46.8688 254.92 47.9057 255.545C48.9426 256.163 49.7594 257.015 50.356 258.102C50.9526 259.188 51.2509 260.431 51.2509 261.83C51.2509 263.272 50.9171 264.558 50.2495 265.687C49.589 266.809 48.6692 267.693 47.4902 268.339C46.3184 268.979 44.9618 269.298 43.4206 269.298ZM62.8844 269.415C61.1301 269.415 59.6245 268.972 58.3674 268.084C57.1174 267.189 56.155 265.9 55.4803 264.217C54.8127 262.526 54.4789 260.491 54.4789 258.112C54.486 255.733 54.8233 253.709 55.4909 252.04C56.1657 250.364 57.128 249.085 58.378 248.205C59.6351 247.324 61.1373 246.884 62.8844 246.884C64.6316 246.884 66.1337 247.324 67.3908 248.205C68.6479 249.085 69.6103 250.364 70.2779 252.04C70.9526 253.716 71.29 255.74 71.29 258.112C71.29 260.499 70.9526 262.537 70.2779 264.227C69.6103 265.911 68.6479 267.196 67.3908 268.084C66.1408 268.972 64.6387 269.415 62.8844 269.415ZM62.8844 266.081C64.248 266.081 65.324 265.41 66.1124 264.067C66.9078 262.718 67.3056 260.733 67.3056 258.112C67.3056 256.379 67.1245 254.923 66.7623 253.744C66.4 252.565 65.8887 251.678 65.2282 251.081C64.5676 250.477 63.7864 250.175 62.8844 250.175C61.5279 250.175 60.4554 250.85 59.6671 252.2C58.8787 253.542 58.481 255.513 58.4739 258.112C58.4668 259.852 58.6408 261.315 58.9959 262.501C59.3581 263.687 59.8695 264.582 60.53 265.186C61.1905 265.783 61.9753 266.081 62.8844 266.081ZM82.8942 269.415C81.1399 269.415 79.6342 268.972 78.3771 268.084C77.1271 267.189 76.1648 265.9 75.4901 264.217C74.8224 262.526 74.4886 260.491 74.4886 258.112C74.4957 255.733 74.8331 253.709 75.5007 252.04C76.1754 250.364 77.1378 249.085 78.3878 248.205C79.6449 247.324 81.147 246.884 82.8942 246.884C84.6413 246.884 86.1435 247.324 87.4006 248.205C88.6577 249.085 89.62 250.364 90.2876 252.04C90.9624 253.716 91.2997 255.74 91.2997 258.112C91.2997 260.499 90.9624 262.537 90.2876 264.227C89.62 265.911 88.6577 267.196 87.4006 268.084C86.1506 268.972 84.6484 269.415 82.8942 269.415ZM82.8942 266.081C84.2578 266.081 85.3338 265.41 86.1222 264.067C86.9176 262.718 87.3153 260.733 87.3153 258.112C87.3153 256.379 87.1342 254.923 86.772 253.744C86.4098 252.565 85.8984 251.678 85.2379 251.081C84.5774 250.477 83.7962 250.175 82.8942 250.175C81.5376 250.175 80.4652 250.85 79.6768 252.2C78.8885 253.542 78.4908 255.513 78.4837 258.112C78.4766 259.852 78.6506 261.315 79.0057 262.501C79.3679 263.687 79.8793 264.582 80.5398 265.186C81.2003 265.783 81.9851 266.081 82.8942 266.081Z" fill="white"/>
<path d="M1.69602 292H0.298295L3.43892 283.273H4.96023L8.10085 292H6.70312L4.2358 284.858H4.16761L1.69602 292ZM1.9304 288.582H6.46449V289.69H1.9304V288.582ZM14.038 285.455L11.6644 292H10.3008L7.92294 285.455H9.29084L10.9485 290.491H11.0167L12.6701 285.455H14.038ZM17.8338 292.132C17.1889 292.132 16.6335 291.994 16.1676 291.719C15.7045 291.44 15.3466 291.05 15.0938 290.547C14.8438 290.041 14.7188 289.449 14.7188 288.77C14.7188 288.099 14.8438 287.509 15.0938 286.997C15.3466 286.486 15.6989 286.087 16.1506 285.8C16.6051 285.513 17.1364 285.369 17.7443 285.369C18.1136 285.369 18.4716 285.43 18.8182 285.553C19.1648 285.675 19.4759 285.866 19.7514 286.128C20.027 286.389 20.2443 286.729 20.4034 287.146C20.5625 287.561 20.642 288.065 20.642 288.659V289.111H15.4389V288.156H19.3935C19.3935 287.821 19.3253 287.524 19.1889 287.266C19.0526 287.004 18.8608 286.798 18.6136 286.648C18.3693 286.497 18.0824 286.422 17.7528 286.422C17.3949 286.422 17.0824 286.51 16.8153 286.686C16.5511 286.859 16.3466 287.087 16.2017 287.368C16.0597 287.646 15.9886 287.949 15.9886 288.276V289.021C15.9886 289.459 16.0653 289.831 16.2188 290.138C16.375 290.445 16.5923 290.679 16.8707 290.841C17.1491 291 17.4744 291.08 17.8466 291.08C18.0881 291.08 18.3082 291.045 18.5071 290.977C18.706 290.906 18.8778 290.801 19.0227 290.662C19.1676 290.523 19.2784 290.351 19.3551 290.146L20.5611 290.364C20.4645 290.719 20.2912 291.03 20.0412 291.297C19.794 291.561 19.483 291.767 19.108 291.915C18.7358 292.06 18.3111 292.132 17.8338 292.132ZM22.0558 292V285.455H23.2873V286.494H23.3555C23.4748 286.142 23.685 285.865 23.9862 285.663C24.2901 285.459 24.6339 285.357 25.0174 285.357C25.0969 285.357 25.1907 285.359 25.2987 285.365C25.4094 285.371 25.4961 285.378 25.5586 285.386V286.605C25.5075 286.591 25.4165 286.575 25.2859 286.558C25.1552 286.538 25.0245 286.528 24.8938 286.528C24.5927 286.528 24.3242 286.592 24.0884 286.72C23.8555 286.845 23.6708 287.02 23.5344 287.244C23.3981 287.466 23.3299 287.719 23.3299 288.003V292H22.0558ZM28.5075 292.145C28.0927 292.145 27.7177 292.068 27.3825 291.915C27.0472 291.759 26.7816 291.533 26.5856 291.237C26.3924 290.942 26.2958 290.58 26.2958 290.151C26.2958 289.781 26.3668 289.477 26.5089 289.239C26.6509 289 26.8427 288.811 27.0842 288.672C27.3256 288.533 27.5955 288.428 27.8938 288.357C28.1921 288.286 28.4961 288.232 28.8058 288.195C29.1978 288.149 29.516 288.112 29.7603 288.084C30.0046 288.053 30.1822 288.003 30.293 287.935C30.4038 287.866 30.4592 287.756 30.4592 287.602V287.572C30.4592 287.2 30.354 286.912 30.1438 286.707C29.9364 286.503 29.6268 286.401 29.2148 286.401C28.7859 286.401 28.4478 286.496 28.2006 286.686C27.9563 286.874 27.7873 287.082 27.6935 287.312L26.4961 287.04C26.6381 286.642 26.8455 286.321 27.1183 286.077C27.3938 285.83 27.7106 285.651 28.0685 285.54C28.4265 285.426 28.8029 285.369 29.1978 285.369C29.4592 285.369 29.7362 285.401 30.0288 285.463C30.3242 285.523 30.5998 285.634 30.8555 285.795C31.114 285.957 31.3256 286.189 31.4904 286.49C31.6552 286.788 31.7376 287.176 31.7376 287.653V292H30.4933V291.105H30.4421C30.3597 291.27 30.2362 291.432 30.0714 291.591C29.9066 291.75 29.695 291.882 29.4364 291.987C29.1779 292.092 28.8683 292.145 28.5075 292.145ZM28.7844 291.122C29.1367 291.122 29.4379 291.053 29.6879 290.913C29.9407 290.774 30.1325 290.592 30.2631 290.368C30.3967 290.141 30.4634 289.898 30.4634 289.639V288.795C30.418 288.841 30.3299 288.884 30.1992 288.923C30.0714 288.96 29.9251 288.993 29.7603 289.021C29.5955 289.047 29.435 289.071 29.2788 289.094C29.1225 289.114 28.9918 289.131 28.8867 289.145C28.6396 289.176 28.4137 289.229 28.2092 289.303C28.0075 289.376 27.8455 289.483 27.7234 289.622C27.604 289.759 27.5444 289.94 27.5444 290.168C27.5444 290.483 27.6609 290.722 27.8938 290.884C28.1268 291.043 28.4237 291.122 28.7844 291.122ZM36.179 294.591C35.6591 294.591 35.2116 294.523 34.8366 294.386C34.4645 294.25 34.1605 294.07 33.9247 293.845C33.6889 293.621 33.5128 293.375 33.3963 293.108L34.4915 292.656C34.5682 292.781 34.6705 292.913 34.7983 293.053C34.929 293.195 35.1051 293.315 35.3267 293.415C35.5511 293.514 35.8395 293.564 36.1918 293.564C36.6747 293.564 37.0739 293.446 37.3892 293.21C37.7045 292.977 37.8622 292.605 37.8622 292.094V290.807H37.7812C37.7045 290.946 37.5938 291.101 37.4489 291.271C37.3068 291.442 37.1108 291.589 36.8608 291.714C36.6108 291.839 36.2855 291.902 35.8849 291.902C35.3679 291.902 34.902 291.781 34.4872 291.54C34.0753 291.295 33.7486 290.936 33.5071 290.462C33.2685 289.984 33.1491 289.398 33.1491 288.702C33.1491 288.006 33.267 287.409 33.5028 286.912C33.7415 286.415 34.0682 286.034 34.483 285.77C34.8977 285.503 35.3679 285.369 35.8935 285.369C36.2997 285.369 36.6278 285.438 36.8778 285.574C37.1278 285.707 37.3224 285.864 37.4616 286.043C37.6037 286.222 37.7131 286.379 37.7898 286.516H37.8835V285.455H39.1321V292.145C39.1321 292.707 39.0014 293.169 38.7401 293.53C38.4787 293.891 38.125 294.158 37.679 294.331C37.2358 294.504 36.7358 294.591 36.179 294.591ZM36.1662 290.845C36.5327 290.845 36.8423 290.76 37.0952 290.589C37.3509 290.416 37.544 290.169 37.6747 289.848C37.8082 289.524 37.875 289.136 37.875 288.685C37.875 288.244 37.8097 287.857 37.679 287.521C37.5483 287.186 37.3565 286.925 37.1037 286.737C36.8509 286.547 36.5384 286.452 36.1662 286.452C35.7827 286.452 35.4631 286.551 35.2074 286.75C34.9517 286.946 34.7585 287.213 34.6278 287.551C34.5 287.889 34.4361 288.267 34.4361 288.685C34.4361 289.114 34.5014 289.49 34.6321 289.814C34.7628 290.138 34.956 290.391 35.2116 290.572C35.4702 290.754 35.7884 290.845 36.1662 290.845ZM43.6619 292.132C43.017 292.132 42.4616 291.994 41.9957 291.719C41.5327 291.44 41.1747 291.05 40.9219 290.547C40.6719 290.041 40.5469 289.449 40.5469 288.77C40.5469 288.099 40.6719 287.509 40.9219 286.997C41.1747 286.486 41.527 286.087 41.9787 285.8C42.4332 285.513 42.9645 285.369 43.5724 285.369C43.9418 285.369 44.2997 285.43 44.6463 285.553C44.9929 285.675 45.304 285.866 45.5795 286.128C45.8551 286.389 46.0724 286.729 46.2315 287.146C46.3906 287.561 46.4702 288.065 46.4702 288.659V289.111H41.267V288.156H45.2216C45.2216 287.821 45.1534 287.524 45.017 287.266C44.8807 287.004 44.6889 286.798 44.4418 286.648C44.1974 286.497 43.9105 286.422 43.581 286.422C43.223 286.422 42.9105 286.51 42.6435 286.686C42.3793 286.859 42.1747 287.087 42.0298 287.368C41.8878 287.646 41.8168 287.949 41.8168 288.276V289.021C41.8168 289.459 41.8935 289.831 42.0469 290.138C42.2031 290.445 42.4205 290.679 42.6989 290.841C42.9773 291 43.3026 291.08 43.6747 291.08C43.9162 291.08 44.1364 291.045 44.3352 290.977C44.5341 290.906 44.706 290.801 44.8509 290.662C44.9957 290.523 45.1065 290.351 45.1832 290.146L46.3892 290.364C46.2926 290.719 46.1193 291.03 45.8693 291.297C45.6222 291.561 45.3111 291.767 44.9361 291.915C44.5639 292.06 44.1392 292.132 43.6619 292.132ZM55.9645 287.053L54.8097 287.257C54.7614 287.109 54.6847 286.969 54.5795 286.835C54.4773 286.702 54.3381 286.592 54.1619 286.507C53.9858 286.422 53.7656 286.379 53.5014 286.379C53.1406 286.379 52.8395 286.46 52.598 286.622C52.3565 286.781 52.2358 286.987 52.2358 287.24C52.2358 287.459 52.3168 287.635 52.4787 287.768C52.6406 287.902 52.902 288.011 53.2628 288.097L54.3026 288.335C54.9048 288.474 55.3537 288.689 55.6491 288.979C55.9446 289.268 56.0923 289.645 56.0923 290.108C56.0923 290.5 55.9787 290.849 55.7514 291.156C55.527 291.46 55.2131 291.699 54.8097 291.872C54.4091 292.045 53.9446 292.132 53.4162 292.132C52.6832 292.132 52.0852 291.976 51.6222 291.663C51.1591 291.348 50.875 290.901 50.7699 290.321L52.0014 290.134C52.0781 290.455 52.2358 290.697 52.4744 290.862C52.7131 291.024 53.0241 291.105 53.4077 291.105C53.8253 291.105 54.1591 291.018 54.4091 290.845C54.6591 290.669 54.7841 290.455 54.7841 290.202C54.7841 289.997 54.7074 289.825 54.554 289.686C54.4034 289.547 54.1719 289.442 53.8594 289.371L52.7514 289.128C52.1406 288.989 51.6889 288.767 51.3963 288.463C51.1065 288.159 50.9616 287.774 50.9616 287.308C50.9616 286.922 51.0696 286.584 51.2855 286.294C51.5014 286.004 51.7997 285.778 52.1804 285.616C52.5611 285.452 52.9972 285.369 53.4886 285.369C54.196 285.369 54.7528 285.523 55.1591 285.83C55.5653 286.134 55.8338 286.541 55.9645 287.053ZM59.3981 292.145C58.9833 292.145 58.6083 292.068 58.2731 291.915C57.9379 291.759 57.6722 291.533 57.4762 291.237C57.283 290.942 57.1864 290.58 57.1864 290.151C57.1864 289.781 57.2575 289.477 57.3995 289.239C57.5415 289 57.7333 288.811 57.9748 288.672C58.2163 288.533 58.4862 288.428 58.7844 288.357C59.0827 288.286 59.3867 288.232 59.6964 288.195C60.0884 288.149 60.4066 288.112 60.6509 288.084C60.8952 288.053 61.0728 288.003 61.1836 287.935C61.2944 287.866 61.3498 287.756 61.3498 287.602V287.572C61.3498 287.2 61.2447 286.912 61.0344 286.707C60.8271 286.503 60.5174 286.401 60.1055 286.401C59.6765 286.401 59.3384 286.496 59.0913 286.686C58.8469 286.874 58.6779 287.082 58.5842 287.312L57.3867 287.04C57.5288 286.642 57.7362 286.321 58.0089 286.077C58.2844 285.83 58.6012 285.651 58.9592 285.54C59.3171 285.426 59.6935 285.369 60.0884 285.369C60.3498 285.369 60.6268 285.401 60.9194 285.463C61.2148 285.523 61.4904 285.634 61.7461 285.795C62.0046 285.957 62.2163 286.189 62.381 286.49C62.5458 286.788 62.6282 287.176 62.6282 287.653V292H61.3839V291.105H61.3327C61.2504 291.27 61.1268 291.432 60.962 291.591C60.7972 291.75 60.5856 291.882 60.3271 291.987C60.0685 292.092 59.7589 292.145 59.3981 292.145ZM59.6751 291.122C60.0273 291.122 60.3285 291.053 60.5785 290.913C60.8313 290.774 61.0231 290.592 61.1538 290.368C61.2873 290.141 61.354 289.898 61.354 289.639V288.795C61.3086 288.841 61.2205 288.884 61.0898 288.923C60.962 288.96 60.8157 288.993 60.6509 289.021C60.4862 289.047 60.3256 289.071 60.1694 289.094C60.0131 289.114 59.8825 289.131 59.7773 289.145C59.5302 289.176 59.3043 289.229 59.0998 289.303C58.8981 289.376 58.7362 289.483 58.614 289.622C58.4947 289.759 58.435 289.94 58.435 290.168C58.435 290.483 58.5515 290.722 58.7844 290.884C59.0174 291.043 59.3143 291.122 59.6751 291.122ZM65.5994 283.273V292H64.3253V283.273H65.5994ZM69.2184 292.145C68.8036 292.145 68.4286 292.068 68.0934 291.915C67.7582 291.759 67.4925 291.533 67.2965 291.237C67.1033 290.942 67.0067 290.58 67.0067 290.151C67.0067 289.781 67.0778 289.477 67.2198 289.239C67.3619 289 67.5536 288.811 67.7951 288.672C68.0366 288.533 68.3065 288.428 68.6048 288.357C68.9031 288.286 69.207 288.232 69.5167 288.195C69.9087 288.149 70.2269 288.112 70.4712 288.084C70.7156 288.053 70.8931 288.003 71.0039 287.935C71.1147 287.866 71.1701 287.756 71.1701 287.602V287.572C71.1701 287.2 71.065 286.912 70.8548 286.707C70.6474 286.503 70.3377 286.401 69.9258 286.401C69.4968 286.401 69.1587 286.496 68.9116 286.686C68.6673 286.874 68.4982 287.082 68.4045 287.312L67.207 287.04C67.3491 286.642 67.5565 286.321 67.8292 286.077C68.1048 285.83 68.4215 285.651 68.7795 285.54C69.1374 285.426 69.5138 285.369 69.9087 285.369C70.1701 285.369 70.4471 285.401 70.7397 285.463C71.0352 285.523 71.3107 285.634 71.5664 285.795C71.8249 285.957 72.0366 286.189 72.2013 286.49C72.3661 286.788 72.4485 287.176 72.4485 287.653V292H71.2042V291.105H71.1531C71.0707 291.27 70.9471 291.432 70.7823 291.591C70.6175 291.75 70.4059 291.882 70.1474 291.987C69.8888 292.092 69.5792 292.145 69.2184 292.145ZM69.4954 291.122C69.8477 291.122 70.1488 291.053 70.3988 290.913C70.6516 290.774 70.8434 290.592 70.9741 290.368C71.1076 290.141 71.1744 289.898 71.1744 289.639V288.795C71.1289 288.841 71.0408 288.884 70.9102 288.923C70.7823 288.96 70.636 288.993 70.4712 289.021C70.3065 289.047 70.146 289.071 69.9897 289.094C69.8335 289.114 69.7028 289.131 69.5977 289.145C69.3505 289.176 69.1246 289.229 68.9201 289.303C68.7184 289.376 68.5565 289.483 68.4343 289.622C68.315 289.759 68.2553 289.94 68.2553 290.168C68.2553 290.483 68.3718 290.722 68.6048 290.884C68.8377 291.043 69.1346 291.122 69.4954 291.122ZM74.1456 292V285.455H75.3771V286.494H75.4453C75.5646 286.142 75.7749 285.865 76.076 285.663C76.38 285.459 76.7237 285.357 77.1072 285.357C77.1868 285.357 77.2805 285.359 77.3885 285.365C77.4993 285.371 77.5859 285.378 77.6484 285.386V286.605C77.5973 286.591 77.5064 286.575 77.3757 286.558C77.245 286.538 77.1143 286.528 76.9837 286.528C76.6825 286.528 76.4141 286.592 76.1783 286.72C75.9453 286.845 75.7607 287.02 75.6243 287.244C75.4879 287.466 75.4197 287.719 75.4197 288.003V292H74.1456ZM79.7557 294.455C79.5653 294.455 79.392 294.439 79.2358 294.408C79.0795 294.379 78.9631 294.348 78.8864 294.314L79.1932 293.27C79.4261 293.332 79.6335 293.359 79.8153 293.351C79.9972 293.342 80.1577 293.274 80.2969 293.146C80.4389 293.018 80.5639 292.81 80.6719 292.52L80.8295 292.085L78.4347 285.455H79.7983L81.456 290.534H81.5241L83.1818 285.455H84.5497L81.8523 292.874C81.7273 293.214 81.5682 293.503 81.375 293.739C81.1818 293.977 80.9517 294.156 80.6847 294.276C80.4176 294.395 80.108 294.455 79.7557 294.455Z" fill="#7B81A4"/>
<path d="M171.439 269V266.145L179.013 258.719C179.738 257.988 180.342 257.338 180.825 256.77C181.308 256.202 181.67 255.651 181.911 255.119C182.153 254.586 182.273 254.018 182.273 253.414C182.273 252.725 182.117 252.136 181.805 251.646C181.492 251.148 181.062 250.765 180.516 250.495C179.969 250.225 179.347 250.09 178.651 250.09C177.934 250.09 177.305 250.239 176.766 250.538C176.226 250.829 175.807 251.244 175.509 251.784C175.217 252.324 175.072 252.967 175.072 253.712H171.311C171.311 252.327 171.627 251.124 172.259 250.101C172.891 249.078 173.761 248.286 174.869 247.725C175.984 247.164 177.263 246.884 178.705 246.884C180.168 246.884 181.453 247.157 182.561 247.704C183.669 248.251 184.528 249 185.139 249.952C185.757 250.903 186.066 251.99 186.066 253.212C186.066 254.028 185.91 254.831 185.597 255.619C185.285 256.408 184.734 257.281 183.946 258.24C183.165 259.199 182.067 260.36 180.654 261.724L176.893 265.548V265.697H186.396V269H171.439ZM198.136 269.415C196.382 269.415 194.876 268.972 193.619 268.084C192.369 267.189 191.407 265.9 190.732 264.217C190.065 262.526 189.731 260.491 189.731 258.112C189.738 255.733 190.075 253.709 190.743 252.04C191.418 250.364 192.38 249.085 193.63 248.205C194.887 247.324 196.389 246.884 198.136 246.884C199.884 246.884 201.386 247.324 202.643 248.205C203.9 249.085 204.862 250.364 205.53 252.04C206.205 253.716 206.542 255.74 206.542 258.112C206.542 260.499 206.205 262.537 205.53 264.227C204.862 265.911 203.9 267.196 202.643 268.084C201.393 268.972 199.891 269.415 198.136 269.415ZM198.136 266.081C199.5 266.081 200.576 265.41 201.364 264.067C202.16 262.718 202.558 260.733 202.558 258.112C202.558 256.379 202.376 254.923 202.014 253.744C201.652 252.565 201.141 251.678 200.48 251.081C199.82 250.477 199.038 250.175 198.136 250.175C196.78 250.175 195.707 250.85 194.919 252.2C194.131 253.542 193.733 255.513 193.726 258.112C193.719 259.852 193.893 261.315 194.248 262.501C194.61 263.687 195.121 264.582 195.782 265.186C196.442 265.783 197.227 266.081 198.136 266.081Z" fill="white"/>
<path d="M177.707 286.111H176.378C176.327 285.827 176.232 285.577 176.092 285.361C175.953 285.145 175.783 284.962 175.581 284.811C175.379 284.661 175.153 284.547 174.903 284.47C174.656 284.393 174.393 284.355 174.115 284.355C173.612 284.355 173.162 284.482 172.764 284.734C172.369 284.987 172.057 285.358 171.827 285.847C171.599 286.335 171.486 286.932 171.486 287.636C171.486 288.347 171.599 288.946 171.827 289.435C172.057 289.923 172.371 290.293 172.768 290.543C173.166 290.793 173.614 290.918 174.111 290.918C174.386 290.918 174.648 290.881 174.895 290.807C175.145 290.73 175.371 290.618 175.572 290.47C175.774 290.322 175.945 290.142 176.084 289.929C176.226 289.713 176.324 289.466 176.378 289.188L177.707 289.192C177.636 289.621 177.499 290.016 177.294 290.376C177.092 290.734 176.832 291.044 176.514 291.305C176.199 291.564 175.838 291.764 175.432 291.906C175.026 292.048 174.582 292.119 174.102 292.119C173.347 292.119 172.673 291.94 172.082 291.582C171.491 291.222 171.026 290.706 170.685 290.036C170.347 289.365 170.178 288.565 170.178 287.636C170.178 286.705 170.348 285.905 170.689 285.237C171.03 284.567 171.496 284.053 172.087 283.695C172.678 283.334 173.349 283.153 174.102 283.153C174.565 283.153 174.997 283.22 175.398 283.354C175.801 283.484 176.163 283.678 176.484 283.933C176.805 284.186 177.071 284.496 177.281 284.862C177.491 285.226 177.634 285.642 177.707 286.111ZM181.938 292.132C181.324 292.132 180.789 291.991 180.331 291.71C179.874 291.429 179.519 291.036 179.266 290.53C179.013 290.024 178.887 289.433 178.887 288.757C178.887 288.078 179.013 287.484 179.266 286.976C179.519 286.467 179.874 286.072 180.331 285.791C180.789 285.51 181.324 285.369 181.938 285.369C182.551 285.369 183.087 285.51 183.544 285.791C184.002 286.072 184.357 286.467 184.61 286.976C184.863 287.484 184.989 288.078 184.989 288.757C184.989 289.433 184.863 290.024 184.61 290.53C184.357 291.036 184.002 291.429 183.544 291.71C183.087 291.991 182.551 292.132 181.938 292.132ZM181.942 291.062C182.34 291.062 182.669 290.957 182.931 290.747C183.192 290.537 183.385 290.257 183.51 289.908C183.638 289.558 183.702 289.173 183.702 288.753C183.702 288.335 183.638 287.952 183.51 287.602C183.385 287.25 183.192 286.967 182.931 286.754C182.669 286.541 182.34 286.435 181.942 286.435C181.542 286.435 181.209 286.541 180.945 286.754C180.684 286.967 180.489 287.25 180.361 287.602C180.236 287.952 180.174 288.335 180.174 288.753C180.174 289.173 180.236 289.558 180.361 289.908C180.489 290.257 180.684 290.537 180.945 290.747C181.209 290.957 181.542 291.062 181.942 291.062ZM190.558 289.286V285.455H191.836V292H190.583V290.866H190.515C190.364 291.216 190.123 291.507 189.79 291.74C189.461 291.97 189.05 292.085 188.559 292.085C188.138 292.085 187.766 291.993 187.442 291.808C187.121 291.621 186.869 291.344 186.684 290.977C186.502 290.611 186.411 290.158 186.411 289.618V285.455H187.685V289.464C187.685 289.911 187.809 290.266 188.056 290.53C188.303 290.794 188.624 290.926 189.019 290.926C189.258 290.926 189.495 290.866 189.731 290.747C189.969 290.628 190.167 290.447 190.323 290.206C190.482 289.964 190.56 289.658 190.558 289.286ZM194.822 288.114V292H193.548V285.455H194.771V286.52H194.852C195.002 286.173 195.238 285.895 195.559 285.685C195.883 285.474 196.291 285.369 196.782 285.369C197.228 285.369 197.619 285.463 197.954 285.651C198.289 285.835 198.549 286.111 198.734 286.477C198.919 286.844 199.011 287.297 199.011 287.837V292H197.737V287.99C197.737 287.516 197.613 287.145 197.366 286.878C197.119 286.608 196.779 286.473 196.348 286.473C196.052 286.473 195.789 286.537 195.559 286.665C195.332 286.793 195.152 286.98 195.018 287.227C194.887 287.472 194.822 287.767 194.822 288.114ZM203.775 285.455V286.477H200.2V285.455H203.775ZM201.159 283.886H202.433V290.078C202.433 290.325 202.47 290.511 202.544 290.636C202.618 290.759 202.713 290.842 202.829 290.888C202.949 290.93 203.078 290.952 203.217 290.952C203.319 290.952 203.409 290.945 203.485 290.93C203.562 290.916 203.622 290.905 203.664 290.896L203.895 291.949C203.821 291.977 203.716 292.006 203.579 292.034C203.443 292.065 203.272 292.082 203.068 292.085C202.733 292.091 202.42 292.031 202.13 291.906C201.841 291.781 201.606 291.588 201.427 291.327C201.248 291.065 201.159 290.737 201.159 290.342V283.886ZM205.185 292V285.455H206.416V286.494H206.484C206.604 286.142 206.814 285.865 207.115 285.663C207.419 285.459 207.763 285.357 208.146 285.357C208.226 285.357 208.32 285.359 208.428 285.365C208.538 285.371 208.625 285.378 208.688 285.386V286.605C208.636 286.591 208.545 286.575 208.415 286.558C208.284 286.538 208.153 286.528 208.023 286.528C207.722 286.528 207.453 286.592 207.217 286.72C206.984 286.845 206.8 287.02 206.663 287.244C206.527 287.466 206.459 287.719 206.459 288.003V292H205.185ZM209.79 292V285.455H211.064V292H209.79ZM210.434 284.445C210.212 284.445 210.022 284.371 209.863 284.223C209.706 284.072 209.628 283.893 209.628 283.686C209.628 283.476 209.706 283.297 209.863 283.149C210.022 282.999 210.212 282.923 210.434 282.923C210.655 282.923 210.844 282.999 211 283.149C211.159 283.297 211.239 283.476 211.239 283.686C211.239 283.893 211.159 284.072 211 284.223C210.844 284.371 210.655 284.445 210.434 284.445ZM215.599 292.132C214.955 292.132 214.399 291.994 213.933 291.719C213.47 291.44 213.112 291.05 212.859 290.547C212.609 290.041 212.484 289.449 212.484 288.77C212.484 288.099 212.609 287.509 212.859 286.997C213.112 286.486 213.464 286.087 213.916 285.8C214.371 285.513 214.902 285.369 215.51 285.369C215.879 285.369 216.237 285.43 216.584 285.553C216.93 285.675 217.241 285.866 217.517 286.128C217.793 286.389 218.01 286.729 218.169 287.146C218.328 287.561 218.408 288.065 218.408 288.659V289.111H213.205V288.156H217.159C217.159 287.821 217.091 287.524 216.955 287.266C216.818 287.004 216.626 286.798 216.379 286.648C216.135 286.497 215.848 286.422 215.518 286.422C215.161 286.422 214.848 286.51 214.581 286.686C214.317 286.859 214.112 287.087 213.967 287.368C213.825 287.646 213.754 287.949 213.754 288.276V289.021C213.754 289.459 213.831 289.831 213.984 290.138C214.141 290.445 214.358 290.679 214.636 290.841C214.915 291 215.24 291.08 215.612 291.08C215.854 291.08 216.074 291.045 216.273 290.977C216.472 290.906 216.643 290.801 216.788 290.662C216.933 290.523 217.044 290.351 217.121 290.146L218.327 290.364C218.23 290.719 218.057 291.03 217.807 291.297C217.56 291.561 217.249 291.767 216.874 291.915C216.501 292.06 216.077 292.132 215.599 292.132ZM224.726 287.053L223.571 287.257C223.523 287.109 223.446 286.969 223.341 286.835C223.239 286.702 223.1 286.592 222.924 286.507C222.748 286.422 222.527 286.379 222.263 286.379C221.902 286.379 221.601 286.46 221.36 286.622C221.118 286.781 220.998 286.987 220.998 287.24C220.998 287.459 221.078 287.635 221.24 287.768C221.402 287.902 221.664 288.011 222.025 288.097L223.064 288.335C223.667 288.474 224.115 288.689 224.411 288.979C224.706 289.268 224.854 289.645 224.854 290.108C224.854 290.5 224.74 290.849 224.513 291.156C224.289 291.46 223.975 291.699 223.571 291.872C223.171 292.045 222.706 292.132 222.178 292.132C221.445 292.132 220.847 291.976 220.384 291.663C219.921 291.348 219.637 290.901 219.532 290.321L220.763 290.134C220.84 290.455 220.998 290.697 221.236 290.862C221.475 291.024 221.786 291.105 222.169 291.105C222.587 291.105 222.921 291.018 223.171 290.845C223.421 290.669 223.546 290.455 223.546 290.202C223.546 289.997 223.469 289.825 223.316 289.686C223.165 289.547 222.934 289.442 222.621 289.371L221.513 289.128C220.902 288.989 220.451 288.767 220.158 288.463C219.868 288.159 219.723 287.774 219.723 287.308C219.723 286.922 219.831 286.584 220.047 286.294C220.263 286.004 220.561 285.778 220.942 285.616C221.323 285.452 221.759 285.369 222.25 285.369C222.958 285.369 223.515 285.523 223.921 285.83C224.327 286.134 224.596 286.541 224.726 287.053Z" fill="#7B81A4"/>
<path d="M312.813 247.182V269H308.861V251.028H308.733L303.63 254.288V250.665L309.053 247.182H312.813ZM317.959 264.952V261.809L327.217 247.182H329.837V251.656H328.239L322.007 261.532V261.702H334.93V264.952H317.959ZM328.367 269V263.993L328.41 262.587V247.182H332.138V269H328.367ZM345.919 269.298C344.498 269.298 343.227 269.032 342.105 268.499C340.983 267.96 340.091 267.221 339.431 266.283C338.777 265.346 338.429 264.273 338.387 263.066H342.222C342.293 263.961 342.68 264.692 343.383 265.261C344.086 265.822 344.931 266.102 345.919 266.102C346.693 266.102 347.382 265.925 347.985 265.57C348.589 265.214 349.065 264.721 349.413 264.089C349.761 263.457 349.931 262.736 349.924 261.926C349.931 261.102 349.757 260.371 349.402 259.732C349.047 259.092 348.561 258.592 347.943 258.229C347.325 257.86 346.615 257.675 345.812 257.675C345.159 257.668 344.516 257.789 343.884 258.038C343.252 258.286 342.751 258.613 342.382 259.018L338.813 258.432L339.953 247.182H352.609V250.484H343.223L342.595 256.269H342.723C343.127 255.793 343.699 255.399 344.438 255.087C345.176 254.767 345.986 254.607 346.867 254.607C348.188 254.607 349.367 254.92 350.404 255.545C351.441 256.163 352.257 257.015 352.854 258.102C353.451 259.188 353.749 260.431 353.749 261.83C353.749 263.272 353.415 264.558 352.748 265.687C352.087 266.809 351.167 267.693 349.988 268.339C348.816 268.979 347.46 269.298 345.919 269.298Z" fill="white"/>
<path d="M363.795 267.711V252.967H367.14V267.711H363.795ZM358.096 262.011V258.666H372.84V262.011H358.096Z" fill="#009EE3"/>
<path d="M302.959 292V283.273H308.43V284.406H304.276V287.065H308.145V288.195H304.276V290.866H308.482V292H302.959ZM310.087 292V285.455H311.31V286.52H311.391C311.527 286.159 311.75 285.878 312.06 285.676C312.37 285.472 312.74 285.369 313.172 285.369C313.61 285.369 313.976 285.472 314.272 285.676C314.57 285.881 314.79 286.162 314.932 286.52H315C315.157 286.17 315.405 285.892 315.746 285.685C316.087 285.474 316.493 285.369 316.965 285.369C317.559 285.369 318.043 285.555 318.418 285.928C318.796 286.3 318.985 286.861 318.985 287.611V292H317.711V287.73C317.711 287.287 317.59 286.966 317.348 286.767C317.107 286.568 316.819 286.469 316.483 286.469C316.069 286.469 315.746 286.597 315.516 286.852C315.286 287.105 315.171 287.43 315.171 287.828V292H313.901V287.649C313.901 287.294 313.79 287.009 313.569 286.793C313.347 286.577 313.059 286.469 312.703 286.469C312.462 286.469 312.239 286.533 312.034 286.661C311.833 286.786 311.669 286.96 311.544 287.185C311.422 287.409 311.361 287.669 311.361 287.964V292H310.087ZM320.692 294.455V285.455H321.937V286.516H322.043C322.117 286.379 322.224 286.222 322.363 286.043C322.502 285.864 322.695 285.707 322.942 285.574C323.19 285.438 323.516 285.369 323.923 285.369C324.451 285.369 324.923 285.503 325.337 285.77C325.752 286.037 326.077 286.422 326.313 286.925C326.552 287.428 326.671 288.033 326.671 288.74C326.671 289.447 326.553 290.054 326.317 290.56C326.082 291.062 325.758 291.45 325.346 291.723C324.934 291.993 324.464 292.128 323.935 292.128C323.538 292.128 323.212 292.061 322.96 291.928C322.71 291.794 322.513 291.638 322.371 291.459C322.229 291.28 322.12 291.121 322.043 290.982H321.967V294.455H320.692ZM321.941 288.727C321.941 289.187 322.008 289.591 322.141 289.938C322.275 290.284 322.468 290.555 322.721 290.751C322.974 290.945 323.283 291.041 323.65 291.041C324.031 291.041 324.349 290.94 324.604 290.739C324.86 290.534 325.053 290.257 325.184 289.908C325.317 289.558 325.384 289.165 325.384 288.727C325.384 288.295 325.319 287.908 325.188 287.564C325.06 287.22 324.867 286.949 324.609 286.75C324.353 286.551 324.033 286.452 323.65 286.452C323.281 286.452 322.968 286.547 322.712 286.737C322.46 286.928 322.268 287.193 322.137 287.534C322.006 287.875 321.941 288.273 321.941 288.727ZM329.373 283.273V292H328.099V283.273H329.373ZM333.844 292.132C333.23 292.132 332.695 291.991 332.238 291.71C331.78 291.429 331.425 291.036 331.172 290.53C330.919 290.024 330.793 289.433 330.793 288.757C330.793 288.078 330.919 287.484 331.172 286.976C331.425 286.467 331.78 286.072 332.238 285.791C332.695 285.51 333.23 285.369 333.844 285.369C334.458 285.369 334.993 285.51 335.451 285.791C335.908 286.072 336.263 286.467 336.516 286.976C336.769 287.484 336.895 288.078 336.895 288.757C336.895 289.433 336.769 290.024 336.516 290.53C336.263 291.036 335.908 291.429 335.451 291.71C334.993 291.991 334.458 292.132 333.844 292.132ZM333.848 291.062C334.246 291.062 334.576 290.957 334.837 290.747C335.098 290.537 335.292 290.257 335.417 289.908C335.544 289.558 335.608 289.173 335.608 288.753C335.608 288.335 335.544 287.952 335.417 287.602C335.292 287.25 335.098 286.967 334.837 286.754C334.576 286.541 334.246 286.435 333.848 286.435C333.448 286.435 333.115 286.541 332.851 286.754C332.59 286.967 332.395 287.25 332.267 287.602C332.142 287.952 332.08 288.335 332.08 288.753C332.08 289.173 332.142 289.558 332.267 289.908C332.395 290.257 332.59 290.537 332.851 290.747C333.115 290.957 333.448 291.062 333.848 291.062ZM338.9 294.455C338.71 294.455 338.537 294.439 338.38 294.408C338.224 294.379 338.108 294.348 338.031 294.314L338.338 293.27C338.571 293.332 338.778 293.359 338.96 293.351C339.142 293.342 339.302 293.274 339.441 293.146C339.583 293.018 339.708 292.81 339.816 292.52L339.974 292.085L337.579 285.455H338.943L340.6 290.534H340.669L342.326 285.455H343.694L340.997 292.874C340.872 293.214 340.713 293.503 340.52 293.739C340.326 293.977 340.096 294.156 339.829 294.276C339.562 294.395 339.252 294.455 338.9 294.455ZM347.49 292.132C346.845 292.132 346.29 291.994 345.824 291.719C345.361 291.44 345.003 291.05 344.75 290.547C344.5 290.041 344.375 289.449 344.375 288.77C344.375 288.099 344.5 287.509 344.75 286.997C345.003 286.486 345.355 286.087 345.807 285.8C346.261 285.513 346.793 285.369 347.401 285.369C347.77 285.369 348.128 285.43 348.474 285.553C348.821 285.675 349.132 285.866 349.408 286.128C349.683 286.389 349.901 286.729 350.06 287.146C350.219 287.561 350.298 288.065 350.298 288.659V289.111H345.095V288.156H349.05C349.05 287.821 348.982 287.524 348.845 287.266C348.709 287.004 348.517 286.798 348.27 286.648C348.026 286.497 347.739 286.422 347.409 286.422C347.051 286.422 346.739 286.51 346.472 286.686C346.207 286.859 346.003 287.087 345.858 287.368C345.716 287.646 345.645 287.949 345.645 288.276V289.021C345.645 289.459 345.722 289.831 345.875 290.138C346.031 290.445 346.249 290.679 346.527 290.841C346.805 291 347.131 291.08 347.503 291.08C347.744 291.08 347.964 291.045 348.163 290.977C348.362 290.906 348.534 290.801 348.679 290.662C348.824 290.523 348.935 290.351 349.011 290.146L350.217 290.364C350.121 290.719 349.947 291.03 349.697 291.297C349.45 291.561 349.139 291.767 348.764 291.915C348.392 292.06 347.967 292.132 347.49 292.132ZM354.533 292.132C353.888 292.132 353.333 291.994 352.867 291.719C352.404 291.44 352.046 291.05 351.793 290.547C351.543 290.041 351.418 289.449 351.418 288.77C351.418 288.099 351.543 287.509 351.793 286.997C352.046 286.486 352.398 286.087 352.85 285.8C353.304 285.513 353.836 285.369 354.444 285.369C354.813 285.369 355.171 285.43 355.517 285.553C355.864 285.675 356.175 285.866 356.451 286.128C356.726 286.389 356.944 286.729 357.103 287.146C357.262 287.561 357.341 288.065 357.341 288.659V289.111H352.138V288.156H356.093C356.093 287.821 356.025 287.524 355.888 287.266C355.752 287.004 355.56 286.798 355.313 286.648C355.069 286.497 354.782 286.422 354.452 286.422C354.094 286.422 353.782 286.51 353.515 286.686C353.25 286.859 353.046 287.087 352.901 287.368C352.759 287.646 352.688 287.949 352.688 288.276V289.021C352.688 289.459 352.765 289.831 352.918 290.138C353.074 290.445 353.292 290.679 353.57 290.841C353.848 291 354.174 291.08 354.546 291.08C354.787 291.08 355.007 291.045 355.206 290.977C355.405 290.906 355.577 290.801 355.722 290.662C355.867 290.523 355.978 290.351 356.054 290.146L357.26 290.364C357.164 290.719 356.99 291.03 356.74 291.297C356.493 291.561 356.182 291.767 355.807 291.915C355.435 292.06 355.01 292.132 354.533 292.132ZM363.66 287.053L362.505 287.257C362.457 287.109 362.38 286.969 362.275 286.835C362.173 286.702 362.033 286.592 361.857 286.507C361.681 286.422 361.461 286.379 361.197 286.379C360.836 286.379 360.535 286.46 360.293 286.622C360.052 286.781 359.931 286.987 359.931 287.24C359.931 287.459 360.012 287.635 360.174 287.768C360.336 287.902 360.597 288.011 360.958 288.097L361.998 288.335C362.6 288.474 363.049 288.689 363.344 288.979C363.64 289.268 363.788 289.645 363.788 290.108C363.788 290.5 363.674 290.849 363.447 291.156C363.222 291.46 362.908 291.699 362.505 291.872C362.104 292.045 361.64 292.132 361.112 292.132C360.379 292.132 359.781 291.976 359.317 291.663C358.854 291.348 358.57 290.901 358.465 290.321L359.697 290.134C359.773 290.455 359.931 290.697 360.17 290.862C360.408 291.024 360.719 291.105 361.103 291.105C361.521 291.105 361.854 291.018 362.104 290.845C362.354 290.669 362.479 290.455 362.479 290.202C362.479 289.997 362.403 289.825 362.249 289.686C362.099 289.547 361.867 289.442 361.555 289.371L360.447 289.128C359.836 288.989 359.384 288.767 359.092 288.463C358.802 288.159 358.657 287.774 358.657 287.308C358.657 286.922 358.765 286.584 358.981 286.294C359.197 286.004 359.495 285.778 359.876 285.616C360.256 285.452 360.692 285.369 361.184 285.369C361.891 285.369 362.448 285.523 362.854 285.83C363.261 286.134 363.529 286.541 363.66 287.053Z" fill="#7B81A4"/>
</svg>
