<svg width="64" height="64" viewBox="0 0 64 64" fill="none" xmlns="http://www.w3.org/2000/svg">
<circle cx="32" cy="32" r="32" fill="white"/>
<path fill-rule="evenodd" clip-rule="evenodd" d="M26.4445 22.0247C26.1664 22.0835 25.8536 22.2578 25.6372 22.4744C25.3045 22.8075 25.1064 23.2929 25.0393 23.94C24.9869 24.444 24.9869 39.549 25.0393 40.053C25.1064 40.7001 25.3045 41.1855 25.6372 41.5186C26.2192 42.1012 27.0932 42.1574 28.0536 41.674C28.3487 41.5255 41.5387 33.9482 41.8862 33.7276C42.0072 33.6507 42.238 33.4542 42.399 33.2908C43.0185 32.6625 43.1619 31.9619 42.816 31.2534C42.6704 30.9551 42.2219 30.4786 41.8862 30.2655C41.5387 30.0448 28.3487 22.4675 28.0536 22.319C27.9079 22.2457 27.6746 22.1487 27.5351 22.1036C27.245 22.0097 26.7015 21.9704 26.4445 22.0247Z" fill="#0B0C1C"/>
</svg>
