<svg width="26" height="22" viewBox="0 0 26 22" fill="none" xmlns="http://www.w3.org/2000/svg">
<path d="M7.16667 12.5714C8.5 12.5714 9.55556 13.0125 10.3333 13.8947C11.1667 14.7218 11.5833 15.8246 11.5833 17.203C11.5833 18.6917 11.0833 19.8772 10.0833 20.7594C9.13889 21.5865 7.83333 22 6.16667 22C4.22222 22 2.69444 21.2556 1.58333 19.7669C0.527778 18.2782 0 16.1554 0 13.3985C0 10.9173 0.555556 8.62907 1.66667 6.53383C2.77778 4.38346 4.44444 2.23308 6.66667 0.0827057C6.72222 0.0275686 6.80556 0 6.91667 0C7.08333 0 7.22222 0.0827057 7.33333 0.248117C7.44444 0.413532 7.44444 0.551376 7.33333 0.661651C4.61111 3.41854 3.25 6.67168 3.25 10.4211C3.25 11.9649 3.52778 13.0952 4.08333 13.812C4.58333 12.985 5.61111 12.5714 7.16667 12.5714ZM21.5833 12.5714C22.9167 12.5714 23.9722 13.0125 24.75 13.8947C25.5833 14.7218 26 15.8246 26 17.203C26 18.6917 25.5 19.8772 24.5 20.7594C23.5556 21.5865 22.25 22 20.5833 22C18.6389 22 17.1111 21.2556 16 19.7669C14.9444 18.2782 14.4167 16.1554 14.4167 13.3985C14.4167 10.9173 14.9722 8.62907 16.0833 6.53383C17.1944 4.38346 18.8611 2.23308 21.0833 0.0827057C21.1389 0.0275686 21.2222 0 21.3333 0C21.5 0 21.6389 0.0827057 21.75 0.248117C21.8611 0.413532 21.8611 0.551376 21.75 0.661651C19.0278 3.41854 17.6667 6.67168 17.6667 10.4211C17.6667 11.9649 17.9444 13.0952 18.5 13.812C19 12.985 20.0278 12.5714 21.5833 12.5714Z" fill="white"/>
</svg>
