<svg width="71" height="23" viewBox="0 0 71 23" fill="none" xmlns="http://www.w3.org/2000/svg">
<g clip-path="url(#clip0_0_215)">
<path d="M20.7661 15.6606C20.6552 15.3925 20.5512 15.1106 20.4403 14.87L19.9274 13.722L19.9066 13.7014C18.3815 10.4017 16.7525 7.04708 15.0264 3.74741L14.9571 3.60993C14.7838 3.28683 14.6105 2.92937 14.4302 2.5994C14.2084 2.20757 13.9935 1.78824 13.64 1.38953C13.2954 0.972348 12.8617 0.636234 12.3702 0.405441C11.8787 0.174648 11.3416 0.0549316 10.7978 0.0549316C10.254 0.0549316 9.71698 0.174648 9.22549 0.405441C8.73399 0.636234 8.30029 0.972348 7.95568 1.38953C7.62987 1.78824 7.38725 2.20757 7.16543 2.5994C6.99212 2.95687 6.81882 3.30746 6.63859 3.63055L6.56927 3.76804C4.87091 7.0677 3.21415 10.4224 1.68909 13.722L1.6475 13.7633C1.495 14.1207 1.31476 14.4919 1.14146 14.8906C1.03055 15.1313 0.919635 15.3925 0.808722 15.6812C0.509279 16.4372 0.413658 17.2576 0.531281 18.0614C0.648905 18.8652 0.975714 19.6248 1.4795 20.2653C1.98328 20.9057 2.64666 21.4049 3.40424 21.7137C4.16183 22.0225 4.98747 22.1302 5.79981 22.0262C6.57861 21.9245 7.32852 21.6673 8.00421 21.27C8.90537 20.7682 9.77188 20.0395 10.7424 18.9877C11.7129 20.0395 12.6002 20.7682 13.4805 21.2769C14.3272 21.7697 15.2859 22.0416 16.2672 22.0674C17.4036 22.0721 18.5034 21.6689 19.3634 20.9323C20.2235 20.1956 20.7857 19.1753 20.9464 18.0597C21.132 17.258 21.0692 16.4194 20.7661 15.6537V15.6606ZM10.8117 16.8017C9.61938 15.2894 8.84299 13.9008 8.57957 12.7115C8.47043 12.2708 8.44691 11.8135 8.51025 11.3641C8.55877 11.0135 8.69048 10.7042 8.87071 10.443C9.28664 9.84492 10.0145 9.4737 10.8117 9.4737C11.1903 9.46223 11.5658 9.54416 11.9046 9.71214C12.2434 9.88011 12.5348 10.1289 12.7527 10.4361C12.9329 10.7111 13.0646 11.0135 13.1062 11.3641C13.1755 11.7628 13.1478 12.2234 13.0369 12.7115C12.7735 13.8801 11.9971 15.2825 10.8117 16.8017ZM19.6431 17.8191C19.5644 18.3855 19.3373 18.9216 18.9846 19.3739C18.6319 19.8262 18.1658 20.1789 17.6328 20.397C17.106 20.6169 16.5237 20.6788 15.9553 20.6169C15.4007 20.5482 14.8462 20.3695 14.2777 20.0395C13.3339 19.461 12.4853 18.7423 11.7614 17.9085C13.2171 16.1212 14.0975 14.4919 14.4302 13.0415C14.5897 12.354 14.6105 11.7353 14.5411 11.1648C14.4546 10.624 14.2512 10.1081 13.945 9.65243C13.5953 9.15835 13.1286 8.75702 12.5859 8.48372C12.0432 8.21043 11.4411 8.07354 10.8325 8.08509C9.55006 8.08509 8.40627 8.67628 7.71306 9.64556C7.40101 10.1001 7.19933 10.6201 7.12383 11.1648C7.03372 11.7422 7.05451 12.3815 7.23475 13.0415C7.56749 14.4919 8.46865 16.1418 9.90359 17.9222C9.192 18.772 8.34136 19.497 7.38725 20.067C6.81189 20.397 6.26426 20.5688 5.70969 20.6376C4.84726 20.7471 3.97609 20.5147 3.28552 19.9908C2.59496 19.4669 2.14082 18.6938 2.02183 17.8397C1.95251 17.2898 2.00104 16.7398 2.22286 16.1211C2.29218 15.9012 2.39616 15.6812 2.50708 15.42C2.65958 15.0625 2.83982 14.6913 3.01312 14.3201L3.04085 14.272C4.53817 10.9929 6.17414 7.64514 7.8725 4.3661L7.94182 4.22861C8.11512 3.89865 8.28842 3.54806 8.46865 3.21809C8.64889 2.8675 8.84299 2.53066 9.09254 2.25569C9.30855 1.99998 9.57846 1.79434 9.88327 1.65324C10.1881 1.51214 10.5204 1.43901 10.8568 1.43901C11.1931 1.43901 11.5254 1.51214 11.8302 1.65324C12.135 1.79434 12.405 1.99998 12.621 2.25569C12.8636 2.53066 13.0646 2.8675 13.2448 3.21809C13.4181 3.54806 13.5915 3.90552 13.7717 4.22861L13.841 4.3661C15.5324 7.64514 17.1684 10.9929 18.6935 14.272L18.7142 14.2926C18.8945 14.6501 19.047 15.0488 19.2203 15.3925C19.3312 15.6606 19.4421 15.8737 19.5114 16.1005C19.6431 16.7192 19.7125 17.2692 19.6431 17.8191ZM29.2926 16.6505C28.7702 16.6581 28.2528 16.5489 27.7788 16.3311C27.3048 16.1133 26.8863 15.7925 26.5544 15.3925C25.8086 14.54 25.4127 13.4409 25.4453 12.3128C25.4339 11.1601 25.8425 10.0421 26.596 9.16436C26.9445 8.7592 27.3784 8.43474 27.8671 8.21383C28.3557 7.99292 28.8873 7.88093 29.4243 7.88574C29.9296 7.87203 30.4301 7.98597 30.8788 8.21685C31.3275 8.44774 31.7096 8.78799 31.9892 9.20561L32.0585 8.12634H34.0826V16.4305H32.0515L31.9822 15.2206C31.694 15.6665 31.2955 16.032 30.8248 16.2822C30.3541 16.5325 29.8266 16.6592 29.2926 16.6505ZM29.8194 14.6707C30.2215 14.6707 30.575 14.5607 30.9077 14.3613C31.2128 14.1414 31.4623 13.8526 31.6564 13.502C31.8297 13.1515 31.9198 12.7321 31.9198 12.2647C31.9469 11.8587 31.8672 11.4527 31.6885 11.0864C31.5099 10.7201 31.2385 10.406 30.9008 10.1749C30.5763 9.9744 30.2017 9.86813 29.8194 9.86813C29.4371 9.86813 29.0625 9.9744 28.738 10.1749C28.433 10.3949 28.1834 10.6836 27.9893 11.0342C27.806 11.4208 27.7159 11.8444 27.7259 12.2715C27.6989 12.6775 27.7786 13.0835 27.9572 13.4499C28.1358 13.8162 28.4073 14.1302 28.7449 14.3613C29.0708 14.5607 29.4243 14.6707 29.8194 14.6707ZM37.5487 5.88532C37.5487 6.12592 37.5071 6.3459 37.3962 6.52463C37.2852 6.69649 37.1327 6.8546 36.9317 6.96458C36.7307 7.07457 36.5158 7.11582 36.294 7.11582C36.0721 7.11582 35.8503 7.07457 35.6493 6.96458C35.4592 6.85962 35.2993 6.70817 35.1848 6.52463C35.0775 6.3288 35.0248 6.10809 35.0323 5.88532C35.0323 5.63784 35.0809 5.41787 35.1848 5.24601C35.2957 5.03978 35.4552 4.91604 35.6493 4.80605C35.8503 4.69607 36.0652 4.64795 36.294 4.64795C36.5146 4.6429 36.7328 4.69473 36.9272 4.79835C37.1216 4.90198 37.2856 5.05385 37.4031 5.23914C37.504 5.43955 37.554 5.66138 37.5487 5.88532ZM35.1918 16.403V8.11259H37.3962V16.4167H35.1848L35.1918 16.403ZM43.2884 10.2849V10.3124C43.1844 10.2642 43.0458 10.2436 42.9418 10.223C42.8032 10.1955 42.6923 10.1955 42.5606 10.1955C41.9436 10.1955 41.4791 10.3742 41.1741 10.7454C40.8414 11.1235 40.6889 11.6529 40.6889 12.3334V16.4099H38.4776V8.10572H40.5087L40.578 9.36371C40.7998 8.92376 41.0632 8.59379 41.4376 8.34632C41.8099 8.10587 42.2482 7.98578 42.6923 8.0026C42.8517 8.0026 43.0042 8.01635 43.1359 8.04385C43.2052 8.06447 43.2468 8.06447 43.2884 8.08509V10.2849ZM44.1757 16.403V4.70294H46.3801V9.17123C46.6921 8.77252 47.0456 8.46318 47.4893 8.22258C48.1916 7.88109 48.9895 7.78422 49.7542 7.9476C50.5189 8.11099 51.2057 8.5251 51.7039 9.12311C52.4514 9.97732 52.8474 11.0792 52.8131 12.2097C52.8245 13.3623 52.4159 14.4804 51.6624 15.3581C51.3138 15.7633 50.8799 16.0877 50.3913 16.3086C49.9026 16.5295 49.3711 16.6415 48.8341 16.6367C48.3288 16.6504 47.8283 16.5365 47.3796 16.3056C46.9309 16.0747 46.5488 15.7345 46.2692 15.3169L46.1999 16.3961L44.1757 16.4167V16.403ZM48.4389 14.6707C48.8341 14.6707 49.1876 14.5607 49.5203 14.3613C49.8254 14.1414 50.0749 13.8526 50.269 13.502C50.4492 13.1515 50.5324 12.7321 50.5324 12.2647C50.5324 11.8041 50.4492 11.3848 50.269 11.0342C50.087 10.6961 49.8312 10.4026 49.5203 10.1749C49.1959 9.9744 48.8212 9.86813 48.4389 9.86813C48.0567 9.86813 47.682 9.9744 47.3575 10.1749C47.0456 10.3949 46.803 10.6836 46.602 11.0342C46.4186 11.4208 46.3285 11.8444 46.3385 12.2715C46.3115 12.6775 46.3912 13.0835 46.5698 13.4499C46.7484 13.8162 47.0199 14.1302 47.3575 14.3613C47.6833 14.5607 48.0369 14.6707 48.4389 14.6707ZM53.6449 16.4099V8.10572H55.676L55.7453 9.18498C56.0006 8.77128 56.3626 8.4327 56.7941 8.20428C57.2255 7.97586 57.7106 7.86589 58.1993 7.88574C58.7581 7.87617 59.3073 8.03018 59.7783 8.32852C60.2493 8.62685 60.6211 9.05627 60.8473 9.56307C61.09 10.0855 61.2217 10.7317 61.2217 11.4535V16.4305H59.0103V11.7422C59.0103 11.1648 58.8786 10.7111 58.6152 10.3742C58.3518 10.0443 57.9913 9.86554 57.5338 9.86554C57.2011 9.86554 56.9099 9.93428 56.6534 10.0855C56.4108 10.2436 56.2098 10.443 56.0573 10.7248C55.9031 11.0097 55.8266 11.3296 55.8355 11.6529V16.4099H53.6449ZM62.3239 16.4099V4.69607H64.5352V9.16436C64.8347 8.76343 65.2244 8.43725 65.6732 8.21172C66.122 7.98619 66.6177 7.86751 67.1209 7.86512C67.6432 7.85754 68.1606 7.96669 68.6346 8.18446C69.1086 8.40224 69.5271 8.72305 69.859 9.12311C70.6012 9.97726 70.9943 11.0758 70.9612 12.2028C70.9733 13.3556 70.5646 14.4738 69.8105 15.3512C69.462 15.7564 69.0281 16.0808 68.5394 16.3018C68.0508 16.5227 67.5192 16.6347 66.9822 16.6298C66.4769 16.6436 65.9764 16.5296 65.5277 16.2987C65.079 16.0678 64.697 15.7276 64.4174 15.31L64.355 16.3892L62.3239 16.4099ZM66.6079 14.6707C67.0099 14.6707 67.3635 14.5607 67.6893 14.3613C68.0012 14.1414 68.2439 13.8526 68.4449 13.502C68.6182 13.1515 68.7083 12.7321 68.7083 12.2647C68.7353 11.8587 68.6556 11.4527 68.477 11.0864C68.2984 10.7201 68.027 10.406 67.6893 10.1749C67.3648 9.9744 66.9902 9.86813 66.6079 9.86813C66.2256 9.86813 65.851 9.9744 65.5265 10.1749C65.2215 10.3949 64.9719 10.6836 64.7778 11.0342C64.5843 11.4174 64.4936 11.8435 64.5144 12.2715C64.4874 12.6775 64.5671 13.0835 64.7457 13.4499C64.9243 13.8162 65.1957 14.1302 65.5334 14.3613C65.8592 14.5607 66.192 14.6707 66.6079 14.6707Z" fill="#858897"/>
</g>
<defs>
<clipPath id="clip0_0_215">
<rect width="71" height="22" fill="white" transform="translate(0 0.5)"/>
</clipPath>
</defs>
</svg>
