<svg width="63" height="19" viewBox="0 0 63 19" fill="none" xmlns="http://www.w3.org/2000/svg">
<g clip-path="url(#clip0_0_244)">
<path d="M47.0146 18.4324L52.2561 12.6271L47.0146 6.82104H52.545L55.141 9.64125L57.6408 6.82104H62.9782L57.7616 12.6031L63.0498 18.4324H57.4968L54.9243 15.589L52.3761 18.4324H47.0146Z" fill="#858897"/>
<path d="M47.0144 4.21813H41.0781V6.82095H47.0144V10.7436H41.0781V14.3442H47.0144V18.4323H36.7148V0.141357H47.0144V4.21813Z" fill="#858897"/>
<path d="M32.3701 0.141357V7.62688H32.3223C31.3604 6.53705 30.1586 6.15833 28.7641 6.15833C25.9077 6.15833 23.756 8.0724 23.0007 10.603C22.1394 7.81462 19.918 6.10607 16.6241 6.10607C13.9491 6.10607 11.8368 7.28964 10.7345 9.21826V6.82122H5.20523V4.21866H11.2392V0.141357H0.276367V18.4325H5.20523V10.7436H10.118C9.9715 11.3085 9.89335 11.9132 9.89335 12.5513C9.89335 16.3668 12.8503 19.044 16.6241 19.044C19.7975 19.044 21.8888 17.5754 22.995 14.898H18.7712C18.1998 15.7023 17.7664 15.9412 16.6241 15.9412C15.2996 15.9412 14.1576 14.8021 14.1576 13.4518H22.7583C23.1314 16.4824 25.5262 19.096 28.8128 19.096C30.2305 19.096 31.5285 18.4086 32.3223 17.2479H32.3701V18.432H36.715V0.141357H32.3701ZM14.2948 10.7983C14.5689 9.63657 15.483 8.87725 16.6241 8.87725C17.8803 8.87725 18.7479 9.61314 18.9761 10.7983C19.0723 10.7983 14.2948 10.7983 14.2948 10.7983ZM29.7334 15.6473C28.1318 15.6473 27.1366 14.1764 27.1366 12.6405C27.1366 10.9987 28.0023 9.42001 29.7334 9.42001C31.5285 9.42001 32.2436 10.9987 32.2436 12.6405C32.2433 14.1974 31.4856 15.6473 29.7334 15.6473Z" fill="#858897"/>
</g>
<defs>
<clipPath id="clip0_0_244">
<rect width="63" height="19" fill="white"/>
</clipPath>
</defs>
</svg>
