<svg width="65" height="23" viewBox="0 0 65 23" fill="none" xmlns="http://www.w3.org/2000/svg">
<g clip-path="url(#clip0_0_228)">
<path d="M27.9949 11.3512C27.9949 14.4046 25.5711 16.6546 22.5966 16.6546C19.622 16.6546 17.1982 14.4046 17.1982 11.3512C17.1982 8.27632 19.622 6.04785 22.5966 6.04785C25.5711 6.04785 27.9949 8.27632 27.9949 11.3512ZM25.6318 11.3512C25.6318 9.44316 24.227 8.13764 22.5966 8.13764C20.9662 8.13764 19.5614 9.44316 19.5614 11.3512C19.5614 13.2402 20.9662 14.5648 22.5966 14.5648C24.227 14.5648 25.6318 13.2378 25.6318 11.3512Z" fill="#858897"/>
<path d="M39.6404 11.3512C39.6404 14.4046 37.2166 16.6546 34.2421 16.6546C31.2675 16.6546 28.8438 14.4046 28.8438 11.3512C28.8438 8.27871 31.2675 6.04785 34.2421 6.04785C37.2166 6.04785 39.6404 8.27632 39.6404 11.3512ZM37.2773 11.3512C37.2773 9.44316 35.8725 8.13764 34.2421 8.13764C32.6117 8.13764 31.2069 9.44316 31.2069 11.3512C31.2069 13.2402 32.6117 14.5648 34.2421 14.5648C35.8725 14.5648 37.2773 13.2378 37.2773 11.3512Z" fill="#858897"/>
<path d="M50.8017 6.36825V15.8895C50.8017 19.806 48.4579 21.4056 45.6872 21.4056C43.079 21.4056 41.5092 19.6865 40.9172 18.2805L42.9747 17.4365C43.341 18.2996 44.2387 19.3182 45.6848 19.3182C47.4583 19.3182 48.5574 18.2399 48.5574 16.2099V15.4471H48.4749C47.946 16.0903 46.927 16.6522 45.6411 16.6522C42.9504 16.6522 40.4854 14.3424 40.4854 11.3704C40.4854 8.37674 42.9504 6.04785 45.6411 6.04785C46.9246 6.04785 47.9436 6.60975 48.4749 7.23382H48.5574V6.37064H50.8017V6.36825ZM48.7248 11.3704C48.7248 9.50293 47.4608 8.13764 45.8522 8.13764C44.2217 8.13764 42.8558 9.50293 42.8558 11.3704C42.8558 13.2186 44.2217 14.5648 45.8522 14.5648C47.4608 14.5648 48.7248 13.2186 48.7248 11.3704Z" fill="#858897"/>
<path d="M54.5012 0.787598V16.3295H52.1963V0.787598H54.5012Z" fill="#858897"/>
<path d="M63.4837 13.0966L65.3179 14.3017C64.7259 15.1649 63.2993 16.6522 60.8343 16.6522C57.7772 16.6522 55.4941 14.3233 55.4941 11.3488C55.4941 8.19497 57.7966 6.04541 60.5698 6.04541C63.3624 6.04541 64.7283 8.23562 65.1748 9.4192L65.4198 10.0217L58.2261 12.958C58.7768 14.022 59.6333 14.5648 60.8343 14.5648C62.0377 14.5648 62.8723 13.9813 63.4837 13.0966ZM57.8379 11.1886L62.6466 9.22074C62.3822 8.55841 61.5864 8.09694 60.6499 8.09694C59.4489 8.09694 57.7772 9.14183 57.8379 11.1886Z" fill="#858897"/>
<path d="M8.47382 9.97162V7.72163H16.1674C16.2426 8.11376 16.2814 8.57763 16.2814 9.07975C16.2814 10.7678 15.8131 12.8552 14.304 14.3425C12.8362 15.8488 10.9607 16.6522 8.47625 16.6522C3.87128 16.6522 -0.000976562 12.9557 -0.000976562 8.41743C-0.000976562 3.8792 3.87128 0.182617 8.47625 0.182617C11.0238 0.182617 12.8386 1.16773 14.2021 2.45173L12.5911 4.0394C11.6134 3.13558 10.2886 2.43261 8.47382 2.43261C5.11108 2.43261 2.48105 5.10342 2.48105 8.41743C2.48105 11.7314 5.11108 14.4023 8.47382 14.4023C10.655 14.4023 11.8972 13.5391 12.693 12.7548C13.3384 12.1188 13.763 11.2102 13.9304 9.96923L8.47382 9.97162Z" fill="#858897"/>
</g>
<defs>
<clipPath id="clip0_0_228">
<rect width="65" height="22" fill="white" transform="translate(0 0.5)"/>
</clipPath>
</defs>
</svg>
