<svg width="66" height="19" viewBox="0 0 66 19" fill="none" xmlns="http://www.w3.org/2000/svg">
<path d="M7.13402 3.26245V8.581H2.28801V3.26245H-0.0126953V15.9583H2.28801V10.8125H7.13402V15.9583H9.43472V3.26245H7.13402Z" fill="#858897"/>
<path d="M16.7976 11.8544C16.7976 12.3632 16.5971 12.8511 16.2402 13.2109C15.8832 13.5707 15.3991 13.7728 14.8943 13.7728C14.3895 13.7728 13.9054 13.5707 13.5484 13.2109C13.1915 12.8511 12.9909 12.3632 12.9909 11.8544V6.4165H10.8086V11.8544C10.8086 12.9455 11.2386 13.992 12.0041 14.7635C12.7696 15.5351 13.8078 15.9685 14.8903 15.9685C15.9729 15.9685 17.0111 15.5351 17.7766 14.7635C18.542 13.992 18.9721 12.9455 18.9721 11.8544V6.4165H16.7976V11.8544Z" fill="#858897"/>
<path d="M32.9666 6.97669C32.9666 5.86207 33.6982 5.50872 34.4997 5.50872C35.1456 5.50872 35.9989 6.0041 36.5569 6.60515L37.9862 4.90767C37.2727 3.93508 35.8253 3.26245 34.6406 3.26245C32.2734 3.26245 30.5611 4.65998 30.5611 6.97669C30.5611 11.2749 35.7734 9.91149 35.7734 12.3168C35.7734 13.0588 35.0588 13.7143 34.2404 13.7143C32.9497 13.7143 32.5315 13.0781 31.9386 12.4054L30.3525 14.0677C31.3671 15.3232 32.6183 15.9606 34.1175 15.9606C36.3664 15.9606 38.1756 14.546 38.1756 12.335C38.1756 7.56296 32.9632 9.0457 32.9632 6.97669" fill="#858897"/>
<path d="M65.2124 13.9302C63.9229 13.9302 63.5565 13.3678 63.5565 12.5066V8.69463H65.5608V6.76309H63.5565V4.2146L61.3438 5.21559V12.9804C61.3438 14.9664 62.7032 15.9674 64.5677 15.9674C64.8601 15.9728 65.1523 15.9492 65.4401 15.897L65.9801 13.8939C65.7366 13.9109 65.4571 13.928 65.2124 13.928" fill="#858897"/>
<path d="M25.1047 6.48021C24.0237 6.48021 23.2695 6.79608 22.5402 7.51756V3.33862H20.3545V11.0841C20.3545 13.9837 22.4343 15.9697 24.771 15.9697C27.3637 15.9697 29.6441 13.9484 29.6441 11.2261C29.6441 8.53787 27.5452 6.48135 25.1047 6.48135V6.48021ZM25.0912 13.753C24.6007 13.753 24.1212 13.6064 23.7134 13.3318C23.3056 13.0571 22.9877 12.6667 22.8 12.21C22.6123 11.7532 22.5632 11.2506 22.6589 10.7657C22.7546 10.2808 22.9908 9.83545 23.3376 9.48587C23.6844 9.13629 24.1263 8.89822 24.6074 8.80178C25.0884 8.70533 25.587 8.75483 26.0402 8.94402C26.4933 9.13321 26.8807 9.4536 27.1532 9.86466C27.4257 10.2757 27.5711 10.759 27.5711 11.2534C27.5711 11.9163 27.3098 12.5521 26.8447 13.0209C26.3797 13.4897 25.7489 13.753 25.0912 13.753Z" fill="#858897"/>
<path d="M48.8374 11.1101C48.8374 8.38321 46.5615 6.36646 43.9644 6.36646C41.6276 6.36646 39.5479 8.35253 39.5479 11.2521V19.0021H41.7336V14.8175C42.4618 15.5378 43.217 15.8548 44.2969 15.8548C46.7374 15.8548 48.8363 13.7995 48.8363 11.1101H48.8374ZM46.7678 11.0828C46.7678 11.5772 46.6224 12.0605 46.3499 12.4715C46.0774 12.8826 45.6901 13.203 45.2369 13.3922C44.7838 13.5814 44.2851 13.6309 43.8041 13.5344C43.323 13.438 42.8812 13.1999 42.5343 12.8503C42.1875 12.5007 41.9513 12.0553 41.8556 11.5705C41.7599 11.0856 41.809 10.583 41.9967 10.1262C42.1844 9.6695 42.5023 9.27911 42.9101 9.00444C43.3179 8.72978 43.7974 8.58318 44.2879 8.58318C44.9456 8.58318 45.5764 8.84653 46.0415 9.3153C46.5066 9.78408 46.7678 10.4199 46.7678 11.0828Z" fill="#858897"/>
<path d="M55.8985 6.2597V4.04639C56.1887 3.90972 56.4344 3.69278 56.607 3.42083C56.7797 3.14887 56.8721 2.83309 56.8736 2.51025V2.45912C56.8736 2.00711 56.6954 1.57361 56.3783 1.254C56.0612 0.934379 55.6312 0.75482 55.1827 0.75482H55.132C54.6835 0.75482 54.2535 0.934379 53.9364 1.254C53.6193 1.57361 53.4411 2.00711 53.4411 2.45912V2.51025C53.4426 2.83309 53.5351 3.14887 53.7077 3.42083C53.8803 3.69278 54.126 3.90972 54.4162 4.04639V6.2597C53.5822 6.38831 52.7966 6.73677 52.1392 7.26978L46.1174 2.54206C46.1601 2.38616 46.1828 2.22542 46.1851 2.06372C46.1857 1.6839 46.0746 1.31241 45.8658 0.996238C45.657 0.680068 45.3598 0.433423 45.0119 0.2875C44.664 0.141577 44.281 0.102933 43.9113 0.176454C43.5416 0.249975 43.2018 0.432359 42.935 0.700536C42.6681 0.968714 42.4862 1.31064 42.4121 1.68306C42.3381 2.05548 42.3753 2.44166 42.519 2.79277C42.6628 3.14387 42.9066 3.44412 43.2197 3.65554C43.5327 3.86695 43.901 3.98004 44.2778 3.98049C44.6073 3.979 44.9307 3.89047 45.2156 3.72371L51.1461 8.37417C50.6132 9.18539 50.3352 10.1396 50.3482 11.1124C50.3613 12.0853 50.6649 13.0315 51.2193 13.8279L49.4157 15.6458C49.2699 15.5989 49.1179 15.574 48.9649 15.572C48.6555 15.5722 48.3532 15.6649 48.096 15.8382C47.8389 16.0116 47.6385 16.2579 47.5203 16.546C47.402 16.8342 47.3711 17.1512 47.4315 17.457C47.4919 17.7628 47.6409 18.0437 47.8596 18.2642C48.0784 18.4847 48.3571 18.6348 48.6605 18.6957C48.9639 18.7566 49.2784 18.7255 49.5642 18.6062C49.8501 18.487 50.0944 18.2851 50.2664 18.0259C50.4384 17.7667 50.5304 17.462 50.5306 17.1502C50.5287 16.9959 50.504 16.8427 50.4573 16.6957L52.2417 14.8971C52.8236 15.3484 53.5002 15.6595 54.2198 15.8066C54.9393 15.9536 55.6828 15.9327 56.3931 15.7455C57.1034 15.5583 57.7618 15.2096 58.3178 14.7264C58.8738 14.2431 59.3127 13.6379 59.6008 12.9573C59.889 12.2766 60.0188 11.5385 59.9803 10.7995C59.9417 10.0605 59.7359 9.34016 59.3786 8.6937C59.0212 8.04724 58.5218 7.49179 57.9186 7.0699C57.3154 6.64801 56.6244 6.37087 55.8985 6.2597ZM55.159 13.5382C54.6709 13.5377 54.1939 13.3915 53.7883 13.1178C53.3826 12.8442 53.0666 12.4555 52.88 12.0008C52.6935 11.5462 52.6449 11.046 52.7403 10.5635C52.8357 10.081 53.0709 9.63785 53.4161 9.29004C53.7613 8.94223 54.2011 8.70538 54.6798 8.60943C55.1586 8.51347 55.6548 8.56272 56.1058 8.75094C56.5567 8.93917 56.9422 9.25792 57.2135 9.66692C57.4848 10.0759 57.6297 10.5568 57.63 11.0488C57.63 11.7087 57.3699 12.3416 56.9069 12.8083C56.4439 13.2749 55.816 13.5371 55.1613 13.5371" fill="#858897"/>
</svg>
