<svg width="96" height="21" viewBox="0 0 96 21" fill="none" xmlns="http://www.w3.org/2000/svg">
<g clip-path="url(#clip0_0_235)">
<path d="M33.5203 12.1209L32.9491 13.736H32.9015C32.8062 13.3718 32.6317 12.8176 32.346 12.1525L29.2834 4.47281H26.2842V16.7129H28.2678V9.15982C28.2678 8.68478 28.2678 8.14641 28.2519 7.48136C28.236 7.14884 28.2043 6.89548 28.1884 6.70547H28.236C28.3312 7.18051 28.4423 7.52886 28.5217 7.75055L32.2032 16.6812H33.5997L37.2495 7.67137C37.3288 7.46553 37.4082 7.05383 37.4875 6.70547H37.5351C37.4875 7.60804 37.4558 8.4156 37.4399 8.90647V16.6654H39.5505V4.44114H36.6624L33.5203 12.1209ZM41.5499 7.89306H43.6129V16.6654H41.5499V7.89306ZM42.5973 4.18779C42.2482 4.18779 41.9625 4.31446 41.7245 4.53615C41.4865 4.75783 41.3595 5.04285 41.3595 5.39121C41.3595 5.72373 41.4865 6.00875 41.7245 6.23044C41.9625 6.45212 42.2482 6.56296 42.5973 6.56296C42.9464 6.56296 43.2479 6.43628 43.4701 6.23044C43.7081 6.00875 43.835 5.72373 43.835 5.39121C43.835 5.05868 43.7081 4.77366 43.4701 4.53615C43.2638 4.31446 42.9623 4.18779 42.5973 4.18779ZM50.9284 7.81388C50.5475 7.73471 50.1508 7.68721 49.77 7.68721C48.8337 7.68721 47.9768 7.89306 47.2627 8.30475C46.5486 8.71645 45.9773 9.28649 45.6123 9.99904C45.2315 10.7274 45.0411 11.5667 45.0411 12.5326C45.0411 13.3718 45.2315 14.116 45.5965 14.7969C45.9614 15.4619 46.4693 16.0003 47.1516 16.3645C47.8022 16.7287 48.5639 16.9187 49.4208 16.9187C50.4047 16.9187 51.2458 16.7129 51.9122 16.3328L51.9281 16.317V14.4169L51.8488 14.4802C51.5473 14.7019 51.1981 14.8919 50.849 15.0027C50.484 15.1294 50.1508 15.1928 49.8652 15.1928C49.04 15.1928 48.3894 14.9552 47.9292 14.4327C47.4531 13.926 47.2151 13.2293 47.2151 12.3584C47.2151 11.4558 47.4531 10.7433 47.945 10.2207C48.437 9.69819 49.0876 9.429 49.881 9.429C50.5475 9.429 51.2299 9.65069 51.8488 10.0941L51.9281 10.1574V8.14641L51.9122 8.13057C51.6425 8.01973 51.341 7.89306 50.9284 7.81388ZM57.7361 7.75055C57.2283 7.75055 56.7522 7.90889 56.3396 8.24142C55.9905 8.52644 55.7525 8.93813 55.5462 9.429H55.5303V7.89306H53.4674V16.6654H55.5303V12.1842C55.5303 11.4241 55.689 10.7908 56.0381 10.3316C56.3872 9.85653 56.8316 9.61902 57.3711 9.61902C57.5615 9.61902 57.7519 9.66652 57.99 9.69819C58.2121 9.76153 58.3708 9.82486 58.4819 9.90404L58.5613 9.96737V7.90889L58.5136 7.89306C58.3708 7.79805 58.0852 7.75055 57.7361 7.75055ZM63.3536 7.70304C61.9096 7.70304 60.7511 8.13058 59.9418 8.9698C59.1167 9.80903 58.7199 10.9649 58.7199 12.4217C58.7199 13.7835 59.1325 14.8919 59.926 15.6995C60.7194 16.4912 61.7985 16.9029 63.1473 16.9029C64.5596 16.9029 65.6863 16.4753 66.4956 15.6203C67.3208 14.7652 67.7175 13.6251 67.7175 12.2159C67.7175 10.8224 67.3367 9.71402 66.5591 8.90647C65.8133 8.09891 64.7183 7.70304 63.3536 7.70304ZM65.004 14.4485C64.6231 14.9394 64.0201 15.1769 63.2743 15.1769C62.5284 15.1769 61.9254 14.9394 61.497 14.4169C61.0685 13.926 60.8622 13.2134 60.8622 12.3109C60.8622 11.3766 61.0844 10.6641 61.497 10.1574C61.9254 9.65069 62.5126 9.39733 63.2584 9.39733C63.9884 9.39733 64.5596 9.63485 64.9722 10.1257C65.3848 10.6166 65.607 11.3291 65.607 12.2634C65.5752 13.2134 65.4007 13.9577 65.004 14.4485ZM72.3195 11.535C71.6689 11.2658 71.2563 11.06 71.0658 10.8858C70.9072 10.7274 70.8278 10.5057 70.8278 10.2207C70.8278 9.98321 70.923 9.74569 71.1611 9.58735C71.3991 9.429 71.6689 9.34983 72.0656 9.34983C72.4147 9.34983 72.7797 9.41317 73.1288 9.50817C73.4779 9.60318 73.7953 9.74569 74.0492 9.93571L74.1285 9.99904V8.06724L74.0809 8.0514C73.8429 7.9564 73.5255 7.86139 73.1446 7.78222C72.7638 7.71888 72.4147 7.68721 72.1291 7.68721C71.1452 7.68721 70.3359 7.92473 69.7011 8.44726C69.0664 8.93813 68.7649 9.60318 68.7649 10.3791C68.7649 10.7908 68.8283 11.155 68.9712 11.4558C69.114 11.7567 69.3203 12.0417 69.6059 12.2792C69.8916 12.5009 70.3041 12.7542 70.8754 12.9918C71.3515 13.1976 71.7165 13.356 71.9386 13.4826C72.1608 13.6093 72.3036 13.7518 72.4147 13.8627C72.494 13.9893 72.5416 14.1477 72.5416 14.3535C72.5416 14.9394 72.0973 15.2244 71.1928 15.2244C70.8437 15.2244 70.4787 15.1611 70.0502 15.0186C69.6218 14.8761 69.2251 14.6702 68.8918 14.4327L68.8125 14.3694V16.3803L68.8601 16.3962C69.1616 16.5387 69.5266 16.6337 69.9709 16.7445C70.4152 16.8237 70.8119 16.887 71.1611 16.887C72.2243 16.887 73.097 16.6495 73.7159 16.127C74.3507 15.6203 74.6839 14.9711 74.6839 14.1318C74.6839 13.546 74.5252 13.0234 74.1761 12.6276C73.7159 12.2475 73.1447 11.8517 72.3195 11.535ZM80.1269 7.70304C78.6828 7.70304 77.5244 8.13058 76.7151 8.9698C75.9058 9.80903 75.4932 10.9649 75.4932 12.4217C75.4932 13.7835 75.9058 14.8919 76.6993 15.6995C77.4927 16.4912 78.5718 16.9029 79.9206 16.9029C81.3329 16.9029 82.4596 16.4753 83.2689 15.6203C84.0941 14.7652 84.4908 13.6251 84.4908 12.2159C84.4908 10.8224 84.11 9.71402 83.3324 8.90647C82.5866 8.09891 81.4916 7.70304 80.1269 7.70304ZM81.7614 14.4485C81.3805 14.9394 80.7775 15.1769 80.0317 15.1769C79.27 15.1769 78.6829 14.9394 78.2544 14.4169C77.8259 13.926 77.6196 13.2134 77.6196 12.3109C77.6196 11.3766 77.8418 10.6641 78.2544 10.1574C78.6829 9.65069 79.27 9.39733 80.0158 9.39733C80.7299 9.39733 81.3171 9.63485 81.7297 10.1257C82.1422 10.6166 82.3644 11.3291 82.3644 12.2634C82.3644 13.2134 82.1581 13.9577 81.7614 14.4485ZM95.5196 9.58735V7.89306H93.4408V5.2962L93.3773 5.31204L91.4096 5.89791L91.362 5.91375V7.89306H88.2517V6.78464C88.2517 6.27794 88.3787 5.88208 88.6008 5.62873C88.823 5.37537 89.1562 5.2487 89.5688 5.2487C89.8545 5.2487 90.156 5.31204 90.4892 5.45455L90.5686 5.50205V3.71275L90.521 3.69692C90.2353 3.60191 89.8545 3.53857 89.3625 3.53857C88.7436 3.53857 88.2041 3.68108 87.7122 3.9186C87.2202 4.18779 86.8553 4.55198 86.5855 5.04285C86.3157 5.51788 86.1729 6.05626 86.1729 6.6738V7.89306H84.7289V9.57151H86.1729V16.6654H88.2517V9.58735H91.362V14.1002C91.362 15.9528 92.2348 16.887 93.9803 16.887C94.266 16.887 94.5675 16.8395 94.8531 16.792C95.1546 16.7287 95.3768 16.6495 95.5037 16.5862L95.5196 16.5704V14.8761L95.4403 14.9394C95.3133 15.0186 95.2022 15.0819 95.0118 15.1294C94.8531 15.1769 94.7103 15.1928 94.5992 15.1928C94.1866 15.1928 93.901 15.0977 93.6947 14.8602C93.5043 14.6385 93.4091 14.2744 93.4091 13.736V9.58735H95.5196Z" fill="#858897"/>
<path d="M-0.311523 0.355713H9.41603V10.0623H-0.311523V0.355713Z" fill="#858897"/>
<path d="M10.4316 0.355713H20.1592V10.0623H10.4316V0.355713Z" fill="#858897"/>
<path d="M-0.311523 11.0757H9.41603V20.7822H-0.311523V11.0757Z" fill="#858897"/>
<path d="M10.4316 11.0757H20.1592V20.7822H10.4316V11.0757Z" fill="#858897"/>
</g>
<defs>
<clipPath id="clip0_0_235">
<rect width="96" height="21" fill="white"/>
</clipPath>
</defs>
</svg>
