<svg width="87" height="21" viewBox="0 0 87 21" fill="none" xmlns="http://www.w3.org/2000/svg">
<g clip-path="url(#clip0_0_241)">
<path d="M30.9266 7.62127V8.77889H30.962C31.3786 8.1591 32.0701 7.42919 33.6029 7.42919C34.7953 7.42919 35.7101 8.03617 36.1021 8.95304H36.1375C36.4724 8.48948 36.8563 8.13861 37.2864 7.89019C37.7956 7.59566 38.3618 7.42663 39.0751 7.42663C40.6896 7.42663 42.1189 8.47668 42.1189 11.1248V16.1472H39.6578V11.4757C39.6578 10.1337 39.1732 9.35769 38.1658 9.35769C37.428 9.35769 36.8917 9.82381 36.6875 10.3975C36.6167 10.5947 36.584 10.8636 36.584 11.089V16.1497H34.1229V11.2862C34.1229 10.1465 33.6573 9.35513 32.6636 9.35513C31.8686 9.35513 31.3704 9.94418 31.1662 10.4487C31.0791 10.6639 31.0519 10.9123 31.0519 11.1453V16.1472H28.588V7.62127H30.9266ZM54.8222 7.62127V9.22964H54.8903C55.3422 8.00031 56.4149 7.42919 57.3569 7.42919C57.5938 7.42919 57.7244 7.44712 57.915 7.48297V9.71625C57.689 9.68551 57.4794 9.65478 57.1854 9.65478C56.1181 9.65478 55.3749 10.2387 55.187 11.153C55.1462 11.3425 55.1326 11.5474 55.1326 11.783V16.1497H52.6061V7.62127H54.8222ZM61.3454 4.79639V7.48041H63.4798V9.65222H61.3454V12.8561C61.3454 13.8934 61.6258 14.3954 62.4589 14.3954C62.8509 14.3954 63.1395 14.3493 63.39 14.2904L63.4227 16.0908C63.0878 16.2086 62.3745 16.3367 61.6503 16.3367C60.7982 16.3367 60.0876 16.0575 59.6547 15.6247C59.1592 15.1304 58.9305 14.3211 58.9305 13.1686V4.79639H61.3454ZM26.8728 16.1472H24.4225V4.79639H26.8728V16.1472ZM20.3387 13.102C20.3387 13.2582 20.3251 13.4221 20.2788 13.563C20.0883 14.1546 19.4376 14.654 18.6263 14.654C17.9484 14.654 17.4093 14.2929 17.4093 13.5272C17.4093 12.3567 18.7814 12.0315 20.3415 12.0392V13.102H20.3387ZM22.7863 11.0608C22.7863 9.12719 21.9096 7.42919 18.9448 7.42919C17.4229 7.42919 16.2141 7.83128 15.5553 8.18983L16.0371 9.74186C16.6388 9.3833 17.5999 9.08878 18.5092 9.08878C20.0148 9.08622 20.2598 9.8904 20.2598 10.4052V10.5281C16.9791 10.523 14.9073 11.591 14.9073 13.7679C14.9073 15.0971 15.9609 16.3418 17.7959 16.3418C18.9257 16.3418 19.8677 15.9192 20.434 15.2405H20.4885C20.4885 15.2405 20.8642 16.7132 22.9279 16.1497C22.819 15.535 22.7836 14.882 22.7836 14.0957V11.0608H22.7863ZM2.59877 4.79639C2.85196 5.99754 3.57071 9.48575 3.57071 9.48575C3.87291 10.92 4.15061 12.4233 4.36024 13.6117H4.39836C4.60254 12.349 4.9238 11.153 5.26684 9.67271L6.47836 4.79639H9.16005L10.2926 9.7982C10.5894 11.1889 10.8262 12.262 11.0141 13.5553H11.0495C11.2537 12.2492 11.5205 11.1325 11.8118 9.70344L12.9008 4.79639H15.4736L12.2855 16.1472C10.2545 16.5646 9.47586 15.7963 9.19817 14.5772C8.92047 13.3556 8.37596 11.0326 8.37596 11.0326C8.09554 9.75978 7.87774 8.8634 7.72528 7.55725H7.68716C7.46936 8.8506 7.24067 9.75722 6.90308 11.0301L5.56632 16.1497C3.49175 16.539 2.77301 15.9628 2.37552 14.3979C2.03248 13.0585 -0.107422 4.79895 -0.107422 4.79895H2.59877V4.79639ZM48.5223 13.102C48.5223 13.2582 48.5087 13.4221 48.4624 13.563C48.2718 14.1546 47.6211 14.654 46.8098 14.654C46.1319 14.654 45.5929 14.2929 45.5929 13.5272C45.5929 12.3567 46.965 12.0315 48.525 12.0392V13.102H48.5223ZM50.9698 11.0608C50.9698 9.12719 50.0932 7.42919 47.1284 7.42919C45.6065 7.42919 44.3977 7.83128 43.7388 8.18983L44.2207 9.74186C44.8224 9.3833 45.7834 9.08878 46.6928 9.08878C48.1956 9.08622 48.4433 9.8904 48.4433 10.4052V10.5281C45.1654 10.523 43.0936 11.591 43.0936 13.7679C43.0936 15.0971 44.1499 16.3418 45.9822 16.3418C47.1093 16.3418 48.054 15.9192 48.6176 15.2405H48.6748C48.6748 15.2405 49.0505 16.7132 51.1141 16.1497C51.0052 15.535 50.9698 14.882 50.9698 14.0957V11.0608Z" fill="#858897"/>
<path d="M73.4123 12.2377C73.6538 12.6523 73.6375 13.1149 73.3797 13.3262L68.9237 16.4043C68.4596 16.6691 67.7649 16.3482 67.3714 15.6769C66.9752 15.003 67.0458 14.2515 67.5098 13.9867L72.4435 11.7243C72.7528 11.6066 73.1708 11.8232 73.4123 12.2377ZM79.2768 12.2377C79.521 11.8232 79.9362 11.6093 80.2456 11.7216L85.1819 13.9841C85.646 14.2488 85.7138 15.0003 85.3203 15.6742C84.9241 16.3455 84.2267 16.6637 83.7653 16.4017L79.3093 13.3235C79.0542 13.1149 79.0352 12.6496 79.2768 12.2377ZM76.3432 13.9065C76.8289 13.9065 77.2279 14.1526 77.2821 14.4761L77.7625 19.8194C77.7625 20.349 77.1356 20.7822 76.3459 20.7822C75.5589 20.7822 74.9293 20.349 74.9293 19.8194L75.4069 14.4761C75.4612 14.1526 75.8601 13.9065 76.3432 13.9065ZM79.3093 7.8144L83.7653 4.73358C84.2267 4.46882 84.9241 4.78707 85.3203 5.461C85.7138 6.13493 85.646 6.88641 85.1819 7.15117L80.2456 9.41632C79.9362 9.52864 79.5183 9.3147 79.2768 8.90018C79.0352 8.48566 79.0542 8.023 79.3093 7.8144ZM72.4435 9.41632L67.5098 7.15117C67.0485 6.88641 66.9779 6.13493 67.3714 5.461C67.7649 4.78707 68.4624 4.46882 68.9237 4.73358L73.3797 7.8144C73.6375 8.02033 73.6538 8.48566 73.4123 8.90018C73.1708 9.3147 72.7528 9.52864 72.4435 9.41632ZM75.4069 6.66177L74.9293 1.31847C74.9293 0.788953 75.5562 0.355713 76.3459 0.355713C77.1356 0.355713 77.7625 0.788953 77.7625 1.31847L77.2821 6.66177C77.2279 6.98269 76.8289 7.2314 76.3432 7.2314C75.8601 7.2314 75.4612 6.98269 75.4069 6.66177ZM86.5253 16.3829V16.2492H86.6474C86.6881 16.2492 86.7152 16.276 86.7152 16.3161C86.7152 16.3535 86.6881 16.3829 86.6474 16.3829H86.5253ZM86.4248 16.6263C86.4248 16.6397 86.4357 16.653 86.452 16.653H86.5035C86.5171 16.653 86.5307 16.6397 86.5307 16.6263V16.4739H86.6148L86.6827 16.6343C86.6881 16.645 86.6962 16.653 86.7071 16.653H86.7695C86.7885 16.653 86.8021 16.6343 86.7939 16.6156C86.7695 16.5675 86.7451 16.5167 86.7207 16.4658C86.7614 16.4525 86.8238 16.4124 86.8238 16.3161C86.8238 16.2145 86.7396 16.1556 86.6555 16.1556H86.452C86.4384 16.1556 86.4248 16.169 86.4248 16.1824V16.6263ZM86.205 16.4043C86.205 16.1877 86.3841 16.0112 86.604 16.0112C86.8238 16.0112 87.0029 16.185 87.0029 16.4043C87.0029 16.621 86.8265 16.7975 86.604 16.7975C86.3814 16.7975 86.205 16.621 86.205 16.4043ZM86.1101 16.4043C86.1101 16.6718 86.3299 16.8911 86.604 16.8911C86.8753 16.8911 87.0979 16.6718 87.0979 16.4043C87.0979 16.1369 86.8753 15.9176 86.604 15.9176C86.3299 15.9176 86.1101 16.1369 86.1101 16.4043Z" fill="#858897"/>
</g>
<defs>
<clipPath id="clip0_0_241">
<rect width="87" height="21" fill="white"/>
</clipPath>
</defs>
</svg>
